<?xml version="1.0" standalone="no"?>
<!DOCTYPE svg PUBLIC "-//W3C//DTD SVG 20010904//EN"
 "http://www.w3.org/TR/2001/REC-SVG-20010904/DTD/svg10.dtd">
<svg version="1.0" xmlns="http://www.w3.org/2000/svg"
 width="700.000000pt" height="700.000000pt" viewBox="0 0 700.000000 700.000000"
 preserveAspectRatio="xMidYMid meet">
<metadata>
Created by potrace 1.11, written by Peter Selinger 2001-2013
</metadata>
<g transform="translate(0.000000,700.000000) scale(0.100000,-0.100000)"
fill="#000000" stroke="none">
<path d="M212 6877 c30 -38 356 -443 396 -492 10 -11 80 -99 157 -195 77 -96
142 -177 145 -180 3 -3 68 -83 145 -179 245 -304 326 -404 390 -481 l61 -75
1121 1 1120 0 -1783 -1784 -1784 -1784 33 -41 c27 -35 102 -128 150 -187 7 -8
48 -60 92 -115 44 -55 88 -109 97 -120 9 -11 97 -119 194 -240 98 -121 223
-276 279 -345 55 -69 185 -230 288 -357 106 -132 195 -233 205 -234 9 0 296 0
637 0 341 0 1535 0 2654 1 l2033 0 -28 38 c-15 20 -31 39 -34 42 -6 5 -285
348 -590 726 -411 509 -626 772 -654 802 l-30 32 -1248 0 -1248 0 1850 1850
c1017 1017 1850 1855 1850 1861 0 6 -91 124 -202 262 -112 139 -209 261 -218
271 -8 10 -27 33 -41 50 -14 17 -155 193 -314 391 -159 198 -302 376 -319 397
-17 20 -48 56 -68 81 l-37 44 -2665 1 -2666 0 32 -41z"/>
<path d="M1708 5019 c-7 -5 542 -697 619 -779 11 -13 66 38 408 380 217 217
392 396 390 399 -7 7 -1405 7 -1417 0z"/>
</g>
</svg>
