<?xml version="1.0" standalone="no"?>
<!DOCTYPE svg PUBLIC "-//W3C//DTD SVG 1.1//EN" "http://www.w3.org/Graphics/SVG/1.1/DTD/svg11.dtd" >
<svg>
<metadata>
Created by FontForge 20090622 at Mon Aug 14 18:03:26 2017
 By deploy user
Copyright (c) 2015 by Jakob Runge, under exclusive license to TypeMates, Runge Thomsen GbR. All rights reserved.
</metadata>
<defs>
<font id="CeraPRO-Medium" horiz-adv-x="560" >
  <font-face 
    font-family="CeraPRO-Medium"
    font-weight="400"
    font-stretch="normal"
    units-per-em="1000"
    panose-1="2 11 6 0 0 0 0 0 0 0"
    ascent="799"
    descent="-201"
    x-height="491"
    cap-height="660"
    bbox="-155 -242 1336 1000"
    underline-thickness="80"
    underline-position="-20"
    unicode-range="U+0020-U+FB02"
  />
<missing-glyph horiz-adv-x="710" 
d="M626 0h-543v660h543v-660zM156 592l396 -527v527h-396z" />
    <glyph glyph-name="fi" unicode="fi" horiz-adv-x="594" 
d="M315 400h-116v-400h-105v400h-70v91h70v99q0 89 48.5 130t127.5 41q38 0 67 -9v-89q-24 3 -42 3q-45 0 -70.5 -18t-25.5 -67v-90h116v-91zM518 0h-105v491h105v-491zM466 744q29 0 50.5 -20.5t21.5 -49.5t-21.5 -49t-50.5 -20q-30 0 -51 20t-21 49t21 49.5t51 20.5z" />
    <glyph glyph-name="fl" unicode="fl" horiz-adv-x="594" 
d="M315 400h-116v-400h-105v400h-70v91h70v99q0 89 48.5 130t127.5 41q38 0 67 -9v-89q-24 3 -42 3q-45 0 -70.5 -18t-25.5 -67v-90h116v-91zM518 0h-105v750h105v-750z" />
    <glyph glyph-name=".notdef" horiz-adv-x="710" 
d="M626 0h-543v660h543v-660zM156 592l396 -527v527h-396z" />
    <glyph glyph-name=".null" horiz-adv-x="0" 
 />
    <glyph glyph-name="nonmarkingreturn" horiz-adv-x="333" 
 />
    <glyph glyph-name="space" unicode=" " horiz-adv-x="280" 
 />
    <glyph glyph-name="exclam" unicode="!" horiz-adv-x="326" 
d="M206 225h-87l-20 435h126zM163 144q32 0 54.5 -22t22.5 -56t-22.5 -55.5t-54.5 -21.5q-33 0 -55.5 21.5t-22.5 55.5t22.5 56t55.5 22z" />
    <glyph glyph-name="quotedbl" unicode="&#x22;" horiz-adv-x="500" 
d="M170 392h-81l9 268h121zM380 392h-81l9 268h121z" />
    <glyph glyph-name="numbersign" unicode="#" horiz-adv-x="614" 
d="M241 480h171l24 180h88l-24 -180h86v-89h-98l-17 -122h94v-89h-106l-24 -180h-87l24 180h-171l-24 -180h-87l24 180h-86v89h98l16 122h-92v89h104l24 180h88zM213 266h170l17 128h-170z" />
    <glyph glyph-name="dollar" unicode="$" horiz-adv-x="537" 
d="M316 631q54 -9 91 -38.5t61 -71.5l-72 -54q-36 53 -80 67v-163l18 -7q70 -27 109.5 -67.5t39.5 -103.5q0 -35 -12.5 -64t-35 -50.5t-53 -35.5t-66.5 -19v-119h-97v120q-63 11 -108.5 46.5t-74.5 89.5l73 54q21 -35 48 -58.5t62 -34.5v184q-30 12 -56.5 27.5t-46 36
t-30.5 46t-11 57.5q0 63 40.5 103.5t103.5 53.5v119h97v-118zM378 191q0 27 -17 44t-45 31v-147q27 8 44.5 26t17.5 46zM180 474q0 -22 10.5 -36.5t28.5 -25.5v119q-17 -8 -28 -21.5t-11 -35.5z" />
    <glyph glyph-name="percent" unicode="%" horiz-adv-x="821" 
d="M607 315q34 0 65 -12.5t53.5 -34t36 -51.5t13.5 -65t-13.5 -64.5t-36 -51t-53.5 -34t-65 -12.5q-35 0 -65 12.5t-52.5 34t-35.5 51t-13 64.5t13 65t35.5 51.5t52.5 34t65 12.5zM608 240q-37 0 -60 -25t-23 -63t23 -62.5t60 -24.5q35 0 58.5 24.5t23.5 62.5t-23.5 63
t-58.5 25zM213 671q34 0 64.5 -12.5t53.5 -34t36 -51.5t13 -64q0 -35 -13 -65t-36 -51.5t-53.5 -34t-64.5 -12.5q-35 0 -65.5 12.5t-53 34t-35.5 51.5t-13 65q0 34 13 64t35.5 51.5t53 34t65.5 12.5zM213 597q-37 0 -60 -25t-23 -63t23 -63t60 -25q36 0 59.5 25t23.5 63
t-23.5 63t-59.5 25zM265 0h-88l378 660h89z" />
    <glyph glyph-name="ampersand" unicode="&#x26;" horiz-adv-x="649" 
d="M282 671q35 0 63.5 -11t48.5 -29.5t31 -44t11 -55.5q0 -53 -31 -94t-81 -80l120 -145q22 30 45 65l49 74l84 -58l-56.5 -83.5t-56.5 -76.5l111 -133h-125l-52 62q-39 -34 -84 -53.5t-102 -19.5q-45 0 -83.5 12.5t-66 36t-43.5 56t-16 72.5q0 33 11 60t30 51.5t44.5 46.5
t54.5 44q-29 38 -46 74t-17 78q0 33 11 60.5t31 47.5t49.5 31.5t65.5 11.5zM262 84q34 0 62.5 14t55.5 40l-133 160l-36.5 -29.5t-28.5 -28t-19 -30t-7 -34.5q0 -41 30 -66.5t76 -25.5zM224 520q0 -28 13 -50t33 -47q32 26 49.5 48.5t17.5 51.5q0 24 -13.5 40t-42.5 16
t-43 -16.5t-14 -42.5z" />
    <glyph glyph-name="quotesingle" unicode="'" horiz-adv-x="291" 
d="M170 392h-81l9 268h121z" />
    <glyph glyph-name="parenleft" unicode="(" horiz-adv-x="349" 
d="M321 670q-29 -19 -56 -48t-48 -73t-34 -104.5t-13 -142.5t13 -142.5t34 -104t48 -72.5t56 -48l-43 -66q-39 18 -76 52t-65.5 86.5t-46 125t-17.5 169.5t17.5 170t46 125.5t65.5 86.5t76 52z" />
    <glyph glyph-name="parenright" unicode=")" horiz-adv-x="349" 
d="M71 736q39 -18 76 -52t65.5 -86.5t45.5 -125.5t17 -170t-17 -169.5t-45.5 -125t-65.5 -86.5t-76 -52l-44 66q29 19 56.5 48t48.5 72.5t34 104t13 142.5t-13 142.5t-34 104.5t-48.5 73t-56.5 48z" />
    <glyph glyph-name="asterisk" unicode="*" horiz-adv-x="438" 
d="M74 684l103 -47l11 113h62l11 -113l103 47l31 -54l-93 -66l93 -66l-31 -53l-103 46l-11 -112h-62l-11 113l-103 -47l-31 53l92 66l-92 66z" />
    <glyph glyph-name="plus" unicode="+" 
d="M333 272v-185h-102v185h-180v91h180v183h102v-183h176v-91h-176z" />
    <glyph glyph-name="comma" unicode="," horiz-adv-x="270" 
d="M159 -178h-85l9 284h122z" />
    <glyph glyph-name="hyphen" unicode="-" horiz-adv-x="344" 
d="M295 273h-246v89h246v-89z" />
    <glyph glyph-name="period" unicode="." horiz-adv-x="270" 
d="M135 144q32 0 54.5 -22t22.5 -56t-22.5 -55.5t-54.5 -21.5q-33 0 -55.5 21.5t-22.5 55.5t22.5 56t55.5 22z" />
    <glyph glyph-name="slash" unicode="/" horiz-adv-x="650" 
d="M122 -121h-117l523 901h117z" />
    <glyph glyph-name="zero" unicode="0" horiz-adv-x="661" 
d="M330 546q59 0 111 -21.5t90.5 -59t61 -88.5t22.5 -110t-22.5 -109.5t-61.5 -88.5t-91 -59.5t-111 -21.5t-110.5 21.5t-90 59.5t-60.5 88.5t-22 109.5t22 110t60.5 88.5t90.5 59t111 21.5zM331 449q-39 0 -71 -14t-55.5 -38t-36.5 -57.5t-13 -72.5t13 -72t36.5 -57.5
t55.5 -38.5t71 -14q37 0 69.5 14t56 38.5t37 57.5t13.5 72t-13.5 72.5t-37 57.5t-56 38t-69.5 14z" />
    <glyph glyph-name="one" unicode="1" horiz-adv-x="504" 
d="M326 91h136v-91h-388v91h146v348h-136v96h242v-444z" />
    <glyph glyph-name="two" unicode="2" horiz-adv-x="567" 
d="M281 546q46 0 84.5 -14t66.5 -39.5t43.5 -60.5t15.5 -76q0 -36 -12 -67t-33 -58.5t-49.5 -52.5t-61.5 -50l-50 -37h230v-91h-472v24l201 150l54.5 41.5t44 39.5t29.5 42t11 49q0 42 -27 73t-78 31q-26 0 -45.5 -8.5t-33.5 -23t-21 -33.5t-7 -39q0 -19 5 -47h-104
q-4 14 -5.5 28.5t-1.5 27.5q0 36 15 70.5t43 61.5t68 43t90 16z" />
    <glyph glyph-name="three" unicode="3" horiz-adv-x="527" 
d="M463 506l-159 -212q32 -6 63.5 -22t56 -41.5t39.5 -60.5t15 -80q0 -51 -19.5 -92t-52.5 -70.5t-77 -45t-92 -15.5q-42 0 -77.5 11t-65 30.5t-52 45.5t-37.5 55l74 53q27 -42 63.5 -70t91.5 -28q29 0 54 9t43 25t28.5 39t10.5 52q0 56 -39.5 87t-113.5 31h-70v29l152 203
h-247v96h411v-29z" />
    <glyph glyph-name="four" unicode="4" horiz-adv-x="559" 
d="M454 91h91v-91h-91v-121h-105v121h-330v29l206 506h109l-183 -444h198v204h105v-204z" />
    <glyph glyph-name="five" unicode="5" horiz-adv-x="547" 
d="M447 439h-259v-150q20 5 41.5 7.5t44.5 2.5q42 0 82.5 -13t72 -39t50.5 -65t19 -91q0 -51 -19.5 -92.5t-52.5 -71t-77 -45t-93 -15.5q-43 0 -79.5 11t-66.5 30.5t-52.5 45.5t-38.5 55l74 53q27 -42 64.5 -70t95.5 -28q29 0 54 9t43.5 25.5t29 39.5t10.5 52q0 57 -39.5 87
t-112.5 30h-152v328h361v-96z" />
    <glyph glyph-name="six" unicode="6" horiz-adv-x="556" 
d="M266 435q13 3 29 3q43 0 82 -16.5t69 -46t48 -70t18 -88.5q0 -49 -18.5 -91t-50.5 -72.5t-74.5 -47.5t-90.5 -17q-47 0 -89.5 17t-74.5 47.5t-50.5 72.5t-18.5 92q0 30 7 56t19 51t28.5 49.5l36.5 52.5l164 233h126zM277 348q-27 0 -50.5 -10t-40.5 -27.5t-27 -41.5
t-10 -52t10 -52t27 -41.5t40.5 -27.5t50.5 -10t51 10t41.5 27.5t27.5 41.5t10 52t-10 52t-27.5 41.5t-41.5 27.5t-51 10z" />
    <glyph glyph-name="seven" unicode="7" horiz-adv-x="513" 
d="M488 506l-317 -627h-115l288 560h-308v96h452v-29z" />
    <glyph glyph-name="eight" unicode="8" horiz-adv-x="583" 
d="M291 671q43 0 81 -11t66.5 -32.5t45 -53t16.5 -72.5q0 -54 -29.5 -93t-83.5 -66q29 -11 55 -26.5t45.5 -36.5t31 -47.5t11.5 -60.5q0 -42 -17.5 -75.5t-49 -57.5t-75.5 -37t-97 -13t-97.5 13t-76 37t-49 57.5t-17.5 75.5q0 65 40.5 106.5t101.5 64.5q-52 27 -82 65
t-30 94q0 41 16.5 72.5t45 53t66.5 32.5t82 11zM425 176q0 24 -10.5 42t-28.5 32t-42.5 25t-52.5 22q-29 -11 -53 -22t-42 -25t-28 -32t-10 -42q0 -44 34 -71.5t100 -27.5t99.5 27.5t33.5 71.5zM292 584q-47 0 -78 -22t-31 -64q0 -39 29 -62.5t79 -45.5q49 21 78.5 44.5
t29.5 63.5q0 42 -31 64t-76 22z" />
    <glyph glyph-name="nine" unicode="9" horiz-adv-x="556" 
d="M279 546q47 0 89.5 -17t74.5 -47.5t50.5 -72.5t18.5 -92q0 -30 -6.5 -55t-18 -49.5t-28.5 -49.5l-38 -54l-162 -230h-125l157 222q-14 -3 -29 -3q-43 0 -82 16.5t-69 46t-48 69.5t-18 88q0 49 18.5 91t50.5 72.5t74.5 47.5t90.5 17zM277 450q-27 0 -50 -10t-40.5 -27.5
t-27.5 -42t-10 -52.5t10 -52t27.5 -41.5t40.5 -27.5t50 -10q28 0 51.5 10t41 27.5t27.5 41.5t10 52t-10 52t-27.5 42t-41 28t-51.5 10z" />
    <glyph glyph-name="colon" unicode=":" horiz-adv-x="270" 
d="M135 498q32 0 54.5 -22t22.5 -56t-22.5 -55.5t-54.5 -21.5q-33 0 -55.5 21.5t-22.5 55.5t22.5 56t55.5 22zM135 144q32 0 54.5 -22t22.5 -56t-22.5 -55.5t-54.5 -21.5q-33 0 -55.5 21.5t-22.5 55.5t22.5 56t55.5 22z" />
    <glyph glyph-name="semicolon" unicode=";" horiz-adv-x="270" 
d="M135 498q32 0 54.5 -22t22.5 -56t-22.5 -55.5t-54.5 -21.5q-33 0 -55.5 21.5t-22.5 55.5t22.5 56t55.5 22zM159 -178h-85l9 284h122z" />
    <glyph glyph-name="less" unicode="&#x3c;" 
d="M495 434l-276 -116l276 -116v-95l-451 196v30l451 196v-95z" />
    <glyph glyph-name="equal" unicode="=" 
d="M500 378h-439v91h439v-91zM500 166h-439v91h439v-91z" />
    <glyph glyph-name="greater" unicode="&#x3e;" 
d="M516 333v-30l-451 -196v95l276 116l-276 116v95z" />
    <glyph glyph-name="question" unicode="?" horiz-adv-x="448" 
d="M222 671q39 0 73 -12.5t59.5 -35t40 -53.5t14.5 -69q0 -25 -6.5 -45.5t-18.5 -39t-28.5 -35.5t-36.5 -35q-32 -28 -51 -48.5t-19 -45.5q0 -8 1 -14.5l2 -12.5h-90q-10 22 -10 46q0 18 7 34t18 30.5t25 27.5l29 26l30 27.5t21.5 24t13 24t4.5 27.5q0 38 -24 60t-57 22
q-68 0 -97 -86l-88 38q20 72 69.5 108.5t118.5 36.5zM212 144q33 0 55.5 -22t22.5 -56t-22.5 -55.5t-55.5 -21.5q-32 0 -55 21.5t-23 55.5t23 56t55 22z" />
    <glyph glyph-name="at" unicode="@" horiz-adv-x="937" 
d="M480 661q90 0 165.5 -30t130.5 -81t86 -119.5t31 -146.5q0 -63 -20.5 -110t-56.5 -78.5t-85.5 -47t-108.5 -15.5h-36v57q-23 -33 -60 -50.5t-82 -17.5q-44 0 -80.5 16.5t-63 45t-41.5 68t-15 85.5t15 85.5t41.5 68t63.5 45t81 16.5q42 0 77.5 -15.5t58.5 -44.5v51h93
v-324q60 5 95.5 45.5t35.5 119.5q0 63 -23 116.5t-65.5 93t-102 61.5t-131.5 22q-76 0 -140 -24.5t-110.5 -69t-73 -105.5t-26.5 -134q0 -75 26.5 -136.5t73 -105.5t108.5 -68t133 -24q33 0 65 5.5t60 13.5l17 -76q-35 -14 -74.5 -20.5t-77.5 -6.5q-88 0 -164.5 31.5
t-133.5 87t-90 131.5t-33 166q0 91 34 168t93.5 133t139 87t170.5 31zM463 362q-24 0 -45.5 -9t-37.5 -25t-25 -39.5t-9 -51.5t9 -51t25 -39t37 -25t45 -9q21 0 41.5 7.5t36.5 22.5t26 38.5t10 56.5q0 32 -9.5 55.5t-25.5 38.5t-36.5 22.5t-41.5 7.5z" />
    <glyph glyph-name="A" unicode="A" horiz-adv-x="662" 
d="M640 0h-114l-47 110h-297l-47 -110h-113l291 671h36zM220 201h220l-109 273z" />
    <glyph glyph-name="B" unicode="B" horiz-adv-x="618" 
d="M314 660q45 0 81.5 -13t62.5 -36.5t40 -55.5t14 -71q0 -77 -56 -124q59 -19 91.5 -62.5t32.5 -105.5q0 -42 -15 -77t-43 -60.5t-67.5 -40t-88.5 -14.5h-283v660h231zM187 298v-205h170q57 0 86.5 27.5t29.5 74.5t-29.5 75t-86.5 28h-170zM187 567v-178h117q51 0 76 25
t25 65t-25 64t-76 24h-117z" />
    <glyph glyph-name="C" unicode="C" horiz-adv-x="717" 
d="M390 671q93 0 166.5 -41.5t116.5 -110.5l-80 -59q-35 54 -86 84t-117 30q-51 0 -94.5 -18.5t-75.5 -51t-50 -77t-18 -97.5t18 -97.5t50 -77t75.5 -51t94.5 -18.5q66 0 117 30t86 84l80 -59q-42 -69 -116 -110.5t-167 -41.5q-73 0 -136 26t-110 71.5t-74 108t-27 135.5
q0 72 27 134.5t74 108.5t110 72t136 26z" />
    <glyph glyph-name="D" unicode="D" horiz-adv-x="692" 
d="M289 660q82 0 148.5 -24t113.5 -67.5t72.5 -104t25.5 -133.5q0 -72 -25.5 -132.5t-72.5 -105t-113.5 -69t-148.5 -24.5h-206v660h206zM189 564v-469h99q58 0 105 17.5t79 49t49.5 75t17.5 94.5q0 53 -17.5 96t-49.5 73.5t-79 47t-105 16.5h-99z" />
    <glyph glyph-name="E" unicode="E" horiz-adv-x="569" 
d="M517 565h-328v-169h246v-92h-246v-209h340v-95h-446v660h434v-95z" />
    <glyph glyph-name="F" unicode="F" horiz-adv-x="529" 
d="M507 565h-318v-197h262v-96h-262v-272h-106v660h424v-95z" />
    <glyph glyph-name="G" unicode="G" horiz-adv-x="746" 
d="M391 671q87 0 156.5 -36t116.5 -102l-77 -63q-35 49 -84 76.5t-113 27.5q-53 0 -96.5 -18.5t-75 -51t-49 -77t-17.5 -96.5q0 -53 18 -98.5t50 -78.5t76.5 -51.5t98.5 -18.5q67 0 117.5 27.5t80.5 72.5v71h-204v94h310v-186q-22 -39 -53.5 -71t-71 -55t-86 -35.5
t-97.5 -12.5q-74 0 -137.5 26t-110 72t-73.5 108.5t-27 134.5t27 134.5t73.5 108.5t110 72t137.5 26z" />
    <glyph glyph-name="H" unicode="H" horiz-adv-x="711" 
d="M627 0h-106v302h-332v-302h-106v660h106v-263h332v263h106v-660z" />
    <glyph glyph-name="I" unicode="I" horiz-adv-x="272" 
d="M189 0h-106v660h106v-660z" />
    <glyph glyph-name="J" unicode="J" horiz-adv-x="381" 
d="M298 164q0 -91 -50.5 -133t-135.5 -42q-26 0 -48.5 3t-42.5 8v91q20 -2 37.5 -3.5t31.5 -1.5q49 0 75.5 18.5t26.5 70.5v485h106v-496z" />
    <glyph glyph-name="K" unicode="K" horiz-adv-x="651" 
d="M324 351l305 -351h-131l-306 351l277 309h130zM189 0h-106v660h106v-660z" />
    <glyph glyph-name="L" unicode="L" horiz-adv-x="515" 
d="M189 95h302v-95h-408v660h106v-565z" />
    <glyph glyph-name="M" unicode="M" horiz-adv-x="793" 
d="M710 0h-106v414l-190 -248h-35l-190 249v-415h-106v671h36l277 -369l278 369h36v-671z" />
    <glyph glyph-name="N" unicode="N" horiz-adv-x="711" 
d="M521 214v446h106v-671h-36l-402 457v-446h-106v671h36z" />
    <glyph glyph-name="O" unicode="O" horiz-adv-x="780" 
d="M389 671q72 0 135 -26t110 -72t74.5 -108.5t27.5 -134.5q0 -73 -27.5 -135.5t-74.5 -108t-110 -71.5t-135 -26t-135.5 26t-110 72t-73.5 108.5t-27 134.5t27 134.5t74 108.5t110 72t135 26zM390 574q-51 0 -94.5 -18.5t-75 -50.5t-49.5 -77t-18 -97q0 -53 18 -98
t49.5 -77.5t75 -51t94.5 -18.5t94 18.5t75 51t50 77.5t18 98q0 52 -18 96.5t-50 77t-75 51t-94 18.5z" />
    <glyph glyph-name="P" unicode="P" horiz-adv-x="583" 
d="M323 660q51 0 92.5 -14.5t71 -41.5t45.5 -64t16 -82t-16 -82t-45.5 -64t-71 -42t-92.5 -15h-134v-255h-106v660h240zM189 566v-217h133q57 0 87 30t30 78t-30 78.5t-87 30.5h-133z" />
    <glyph glyph-name="Q" unicode="Q" horiz-adv-x="780" 
d="M389 671q72 0 135 -26t110 -72t74.5 -108.5t27.5 -134.5q0 -87 -38 -157.5t-101 -116.5q68 -89 154 -133t204 -44q20 0 44 1t50 3v-84q-24 -5 -52 -8t-60 -3q-132 0 -240.5 56t-186.5 165q-58 -20 -121 -20q-72 0 -135.5 26t-110 72t-73.5 108.5t-27 134.5t27 134.5
t74 108.5t110 72t135 26zM390 574q-51 0 -94.5 -18.5t-75 -50.5t-49.5 -77t-18 -97q0 -53 18 -98t49.5 -77.5t75 -51t94.5 -18.5t94 18.5t75 51t50 77t18 97.5q0 52 -18 97t-49.5 77.5t-75 51t-94.5 18.5z" />
    <glyph glyph-name="R" unicode="R" horiz-adv-x="631" 
d="M323 660q51 0 92.5 -14.5t71 -41.5t45.5 -64t16 -82q0 -66 -34 -114.5t-94 -71.5l199 -272h-121l-189 255h-120v-255h-106v660h240zM189 566v-217h132q57 0 87.5 30t30.5 78t-30.5 78.5t-87.5 30.5h-132z" />
    <glyph glyph-name="S" unicode="S" horiz-adv-x="559" 
d="M282 671q73 0 128 -33.5t85 -84.5l-74 -57q-26 38 -61 59t-78 21q-40 0 -70 -19.5t-30 -60.5q0 -19 7 -32.5t19 -24t29 -19l37 -18.5l74 -34q37 -17 67 -36t50 -41.5t31 -49.5t11 -61q0 -44 -17 -79.5t-47 -60t-70.5 -38t-87.5 -13.5q-83 0 -147 38.5t-102 104.5l75 57
q14 -21 31.5 -40t38.5 -33.5t46.5 -23t56.5 -8.5q51 0 82.5 24.5t31.5 67.5q0 19 -7 33.5t-20 25.5t-30.5 20.5t-39.5 19.5l-73 34q-32 15 -60 32t-49 39t-33 49.5t-12 62.5q0 41 16.5 74t45 56.5t66 36t80.5 12.5z" />
    <glyph glyph-name="T" unicode="T" horiz-adv-x="583" 
d="M566 565h-222v-565h-106v565h-222v95h550v-95z" />
    <glyph glyph-name="U" unicode="U" horiz-adv-x="694" 
d="M618 267q0 -66 -20.5 -117.5t-57 -87.5t-86 -54.5t-107.5 -18.5q-59 0 -108.5 18.5t-85.5 54.5t-56.5 87.5t-20.5 117.5v393h106v-400q0 -44 12.5 -76.5t35 -54t52.5 -32.5t65 -11q34 0 64.5 11t52.5 32.5t35 54t13 76.5v400h106v-393z" />
    <glyph glyph-name="V" unicode="V" horiz-adv-x="662" 
d="M349 -11h-36l-291 671h119l190 -459l190 459h119z" />
    <glyph glyph-name="W" unicode="W" horiz-adv-x="1051" 
d="M734 214l165 446h117l-257 -671h-36l-197 468l-197 -468h-36l-257 671h117l164 -447l191 458h36z" />
    <glyph glyph-name="X" unicode="X" horiz-adv-x="607" 
d="M363 336l221 -336h-121l-160 245l-159 -245h-122l223 336l-209 324h122l145 -234l145 234h121z" />
    <glyph glyph-name="Y" unicode="Y" horiz-adv-x="620" 
d="M363 266v-266h-106v266l-228 394h118l163 -288l164 288h118z" />
    <glyph glyph-name="Z" unicode="Z" horiz-adv-x="588" 
d="M556 631l-367 -536h368v-95h-531v29l364 536h-321v95h487v-29z" />
    <glyph glyph-name="bracketleft" unicode="[" horiz-adv-x="350" 
d="M306 641h-115v-682h115v-90h-210v860h210v-88z" />
    <glyph glyph-name="backslash" unicode="\" horiz-adv-x="650" 
d="M122 780l523 -901h-117l-523 901h117z" />
    <glyph glyph-name="bracketright" unicode="]" horiz-adv-x="350" 
d="M254 -131h-210v90h115v682h-115v88h210v-860z" />
    <glyph glyph-name="asciicircum" unicode="^" horiz-adv-x="524" 
d="M469 280h-104l-103 216l-103 -216h-104l189 390h36z" />
    <glyph glyph-name="underscore" unicode="_" horiz-adv-x="504" 
d="M465 -155h-426v85h426v-85z" />
    <glyph glyph-name="grave" unicode="`" horiz-adv-x="266" 
d="M236 568h-78l-128 193v19h127z" />
    <glyph glyph-name="a" unicode="a" horiz-adv-x="536" 
d="M264 502q45 0 82 -13t63.5 -38.5t41.5 -64t15 -89.5v-297h-98v55q-26 -31 -66 -48.5t-91 -17.5q-39 0 -70.5 10t-54 29t-34.5 45t-12 58q0 65 49 102.5t132 37.5h139v32q0 51 -27 78t-78 27q-43 0 -75 -19t-62 -54l-60 62q38 54 91 79.5t115 25.5zM233 70q26 0 49 8.5
t40.5 24t27.5 37t10 46.5v9h-126q-42 0 -64.5 -15t-22.5 -45q0 -32 25 -48.5t61 -16.5z" />
    <glyph glyph-name="b" unicode="b" horiz-adv-x="631" 
d="M181 431q28 33 70.5 52t93.5 19q52 0 96 -19.5t76.5 -54t50.5 -81.5t18 -102t-18 -101.5t-50 -81t-76 -54t-96 -19.5q-55 0 -100.5 21t-72.5 60v-70h-97v750h105v-319zM328 406q-28 0 -54.5 -9.5t-47.5 -29.5t-33.5 -50t-12.5 -72t13 -72.5t34 -50t47.5 -28.5t53.5 -9
q32 0 59.5 12t47.5 33t31.5 50.5t11.5 65.5t-11.5 65.5t-32 50.5t-48 32.5t-58.5 11.5z" />
    <glyph glyph-name="c" unicode="c" horiz-adv-x="552" 
d="M305 502q70 0 123 -31t85 -83l-74 -58q-25 34 -56.5 54.5t-76.5 20.5q-33 0 -61.5 -12.5t-48.5 -34t-31.5 -50.5t-11.5 -62q0 -34 11.5 -63.5t31.5 -51t48.5 -33.5t61.5 -12q45 0 76 20t56 54l74 -57q-32 -52 -85 -83t-122 -31q-54 0 -101.5 20t-83 54.5t-55.5 81.5
t-20 101t20 100.5t55.5 81t83 54.5t101.5 20z" />
    <glyph glyph-name="d" unicode="d" horiz-adv-x="631" 
d="M555 0h-98v69q-28 -38 -72.5 -59t-98.5 -21q-53 0 -97 19.5t-76 54t-50 81t-18 101.5t18 102t50 81.5t76 54t97 19.5q51 0 93.5 -19t70.5 -53v320h105v-750zM302 406q-32 0 -59 -11.5t-47.5 -32.5t-32 -50.5t-11.5 -65.5t11.5 -65.5t31.5 -50.5t47.5 -33t59.5 -12
q27 0 53.5 9t47.5 28.5t34 50t13 72.5t-12.5 72t-33.5 50t-47.5 29.5t-54.5 9.5z" />
    <glyph glyph-name="e" unicode="e" horiz-adv-x="570" 
d="M299 502q49 0 91 -17t72 -47t47 -71.5t17 -89.5q0 -20 -2.5 -38t-5.5 -28h-366q11 -61 54 -95t106 -34q43 0 78 15.5t65 42.5l51 -72q-39 -37 -88 -58t-108 -21q-57 0 -106 19.5t-84 54t-55 81.5t-20 101t19.5 101t54 81.5t80.5 54.5t100 20zM296 413q-54 0 -92 -32.5
t-50 -87.5h267q-2 58 -38.5 89t-86.5 31z" />
    <glyph glyph-name="f" unicode="f" horiz-adv-x="322" 
d="M315 400h-116v-400h-105v400h-70v91h70v99q0 89 48.5 130t127.5 41q38 0 67 -9v-89q-24 3 -42 3q-45 0 -70.5 -18t-25.5 -67v-90h116v-91z" />
    <glyph glyph-name="g" unicode="g" horiz-adv-x="634" 
d="M286 502q56 0 101 -21.5t73 -59.5v70h98v-440q0 -59 -18 -104.5t-50.5 -76t-77.5 -46t-100 -15.5q-79 0 -138 28t-98 65l57 73q37 -29 78 -49.5t95 -20.5q66 0 106.5 34.5t40.5 105.5v35q-29 -34 -72.5 -52t-94.5 -18t-94.5 18t-75.5 50.5t-50 78t-18 99.5t18 99.5t50 78
t75.5 50.5t94.5 18zM306 408q-32 0 -59 -11t-47.5 -30.5t-32 -48t-11.5 -62.5q0 -35 11.5 -63.5t32 -48.5t47.5 -31t59 -11q28 0 54.5 9t47.5 28t33.5 48.5t12.5 69.5t-13 68.5t-34 47t-47.5 27t-53.5 8.5z" />
    <glyph glyph-name="h" unicode="h" horiz-adv-x="575" 
d="M181 441q25 29 60.5 45t81.5 16q42 0 76 -14.5t57.5 -40t36 -61.5t12.5 -79v-307h-106v292q0 51 -28.5 82.5t-77.5 31.5t-80.5 -31.5t-31.5 -82.5v-292h-105v750h105v-309z" />
    <glyph glyph-name="i" unicode="i" horiz-adv-x="257" 
d="M181 0h-105v491h105v-491zM129 744q29 0 50.5 -20.5t21.5 -49.5t-21.5 -49t-50.5 -20q-30 0 -51 20t-21 49t21 49.5t51 20.5z" />
    <glyph glyph-name="j" unicode="j" horiz-adv-x="257" 
d="M181 -20q0 -89 -48.5 -130t-126.5 -41q-40 0 -68 9v89q13 -2 22.5 -2.5t20.5 -0.5q45 0 70 18.5t25 66.5v502h105v-511zM129 744q29 0 50.5 -20.5t21.5 -49.5t-21.5 -49t-50.5 -20q-30 0 -51 20t-21 49t21 49.5t51 20.5z" />
    <glyph glyph-name="k" unicode="k" horiz-adv-x="533" 
d="M181 0h-105v750h105v-750zM308 274l216 -274h-126l-214 276l192 215h131z" />
    <glyph glyph-name="l" unicode="l" horiz-adv-x="257" 
d="M181 0h-105v750h105v-750z" />
    <glyph glyph-name="m" unicode="m" horiz-adv-x="883" 
d="M631 502q43 0 77 -14.5t57 -40t35 -61.5t12 -79v-307h-105v292q0 51 -27 82.5t-75 31.5t-78 -31t-30 -78v-297h-105v292q0 51 -27.5 82.5t-75.5 31.5t-78 -31.5t-30 -82.5v-292h-105v491h97v-48q25 28 61.5 43.5t81.5 15.5q53 0 90 -21t59 -57q26 35 68.5 56.5t97.5 21.5
z" />
    <glyph glyph-name="n" unicode="n" horiz-adv-x="575" 
d="M321 502q43 0 77 -14.5t58 -40t36.5 -61.5t12.5 -79v-307h-106v293q0 51 -28.5 82.5t-77.5 31.5t-80.5 -31.5t-31.5 -82.5v-293h-105v491h97v-50q26 29 63.5 45t84.5 16z" />
    <glyph glyph-name="o" unicode="o" horiz-adv-x="609" 
d="M305 502q54 0 101 -20t82.5 -54.5t56 -81t20.5 -100.5t-20.5 -101t-56 -81.5t-83 -54.5t-101.5 -20t-101 20t-82.5 54.5t-55.5 81.5t-20 101t20 100.5t55.5 81t83 54.5t101.5 20zM305 406q-33 0 -61.5 -12.5t-48.5 -34t-31 -51t-11 -63.5t11 -63t31.5 -50.5t48 -33.5
t60.5 -12t61 12t48.5 33.5t32 50.5t11.5 63t-11.5 63.5t-32 51t-48.5 34t-60 12.5z" />
    <glyph glyph-name="p" unicode="p" horiz-adv-x="631" 
d="M345 502q52 0 96.5 -19.5t76.5 -54t50 -81t18 -101.5t-18 -102t-50.5 -81.5t-76.5 -54t-96 -19.5q-51 0 -93.5 18t-70.5 52v-239h-105v671h97v-71q27 39 72 60.5t100 21.5zM328 406q-27 0 -53.5 -9.5t-47.5 -29t-34 -49.5t-13 -72t12.5 -72t33.5 -50t47.5 -29.5
t54.5 -9.5q31 0 58.5 11.5t48 32.5t32 50.5t11.5 65.5t-11.5 65.5t-31.5 50.5t-47.5 33t-59.5 12z" />
    <glyph glyph-name="q" unicode="q" horiz-adv-x="631" 
d="M286 502q54 0 98.5 -21.5t72.5 -59.5v70h98v-671h-105v239q-29 -34 -71.5 -52t-92.5 -18q-53 0 -97 19.5t-76 54t-50 81.5t-18 102t18 101.5t50 81t76 54t97 19.5zM302 406q-32 0 -59.5 -12t-47.5 -33.5t-31.5 -51t-11.5 -64.5q0 -36 11.5 -65.5t32 -50.5t47.5 -32.5
t59 -11.5q28 0 54.5 9.5t47.5 29.5t33.5 50t12.5 72t-13 72t-34 49.5t-47.5 29t-53.5 9.5z" />
    <glyph glyph-name="r" unicode="r" horiz-adv-x="375" 
d="M317 496q13 0 22.5 -1.5t17.5 -3.5v-93h-32q-29 0 -55.5 -8.5t-46 -25.5t-31 -42.5t-11.5 -59.5v-262h-105v491h97v-66q26 35 63.5 53t80.5 18z" />
    <glyph glyph-name="s" unicode="s" horiz-adv-x="455" 
d="M233 502q54 0 96.5 -19.5t73.5 -56.5l-57 -65q-24 24 -54 37t-62 13q-29 0 -48 -11.5t-19 -35.5q0 -20 16 -32t50 -26l46 -19q67 -28 101 -61t34 -87q0 -37 -14.5 -65t-39.5 -47t-58 -28.5t-70 -9.5q-66 0 -116 26.5t-82 68.5l59 66q30 -31 63.5 -50.5t75.5 -19.5
q32 0 55 13.5t23 41.5q0 24 -19 36.5t-49 24.5l-50 21q-30 12 -53.5 25.5t-40 30.5t-25.5 38t-9 49q0 34 13.5 60.5t36.5 44.5t55 27.5t68 9.5z" />
    <glyph glyph-name="t" unicode="t" horiz-adv-x="398" 
d="M352 400h-147v-231q0 -49 25.5 -67t72.5 -18q13 0 29 1.5t35 3.5v-89q-20 -5 -40.5 -8t-45.5 -3q-82 0 -131.5 41t-49.5 130v240h-80v91h80v129h105v-129h147v-91z" />
    <glyph glyph-name="u" unicode="u" horiz-adv-x="570" 
d="M500 206q0 -50 -16.5 -90t-45 -68.5t-68 -43.5t-84.5 -15q-46 0 -85 15t-68 43.5t-45.5 68.5t-16.5 90v285h105v-293q0 -52 32 -82t78 -30q45 0 76.5 30t31.5 82v293h106v-285z" />
    <glyph glyph-name="v" unicode="v" horiz-adv-x="549" 
d="M293 -11h-37l-237 502h112l143 -325l144 325h111z" />
    <glyph glyph-name="w" unicode="w" horiz-adv-x="854" 
d="M596 173l127 318h111l-217 -502h-36l-155 328l-153 -328h-36l-218 502h112l129 -321l149 332h36z" />
    <glyph glyph-name="x" unicode="x" horiz-adv-x="514" 
d="M315 254l184 -254h-120l-123 178l-122 -178h-120l182 255l-169 236h120l109 -160l110 160h120z" />
    <glyph glyph-name="y" unicode="y" horiz-adv-x="549" 
d="M291 -56q-31 -71 -74.5 -103t-106.5 -32q-20 0 -41 2.5t-40 7.5v89q18 -2 32 -3t27 -1q34 0 60.5 14t46.5 58l20 46l-196 469h113l140 -358l146 358h112z" />
    <glyph glyph-name="z" unicode="z" horiz-adv-x="461" 
d="M437 461l-258 -370h260v-91h-417v29l257 371h-234v91h392v-30z" />
    <glyph glyph-name="braceleft" unicode="{" horiz-adv-x="404" 
d="M288 -131q-67 0 -106.5 31.5t-39.5 105.5q0 24 3.5 51t8 53.5l8.5 49.5t4 39q0 29 -14.5 42t-43.5 13h-59v91h59q29 0 43.5 12.5t14.5 41.5q0 16 -4 39.5l-8.5 49.5t-8 53.5t-3.5 51.5q0 74 39.5 105t106.5 31h72v-88h-54q-33 0 -51.5 -18t-18.5 -56q0 -18 3.5 -42
t8 -48.5t8.5 -48.5t4 -43q0 -36 -15.5 -55.5t-47.5 -30.5q32 -11 47.5 -30.5t15.5 -54.5q0 -19 -4 -43l-8.5 -49t-8 -48.5t-3.5 -41.5q0 -39 18.5 -57t51.5 -18h54v-88h-72z" />
    <glyph glyph-name="bar" unicode="|" horiz-adv-x="332" 
d="M211 -121h-89v901h89v-901z" />
    <glyph glyph-name="braceright" unicode="}" horiz-adv-x="404" 
d="M44 -43h53q34 0 52.5 18t18.5 57q0 18 -4 41.5l-8.5 48.5t-8 49t-3.5 43q0 35 15 54.5t47 30.5q-32 11 -47 30.5t-15 55.5q0 19 3.5 43t8 48.5t8.5 48.5t4 42q0 38 -18.5 56t-52.5 18h-53v88h72q67 0 106.5 -31t39.5 -105q0 -24 -4 -51.5t-8.5 -53.5t-8 -49.5t-3.5 -39.5
q0 -29 14.5 -41.5t42.5 -12.5h60v-91h-60q-28 0 -42.5 -13t-14.5 -42q0 -16 3.5 -39t8 -49.5t8.5 -53.5t4 -51q0 -74 -39.5 -105.5t-106.5 -31.5h-72v88z" />
    <glyph glyph-name="asciitilde" unicode="~" 
d="M157 417q20 0 41.5 -7t42.5 -19l91 -56q18 -10 32 -17t27 -7q17 0 26 12.5t9 29.5v17h83q1 -5 1.5 -13.5t0.5 -16.5q0 -27 -8 -49.5t-22.5 -39t-34.5 -26t-44 -9.5q-40 0 -83 26l-91 55q-18 11 -32 18t-27 7q-17 0 -26.5 -12t-9.5 -30v-17h-82q-1 5 -1.5 13.5t-0.5 16.5
q0 53 30 88.5t78 35.5z" />
    <glyph glyph-name="exclamdown" unicode="&#xa1;" horiz-adv-x="326" 
d="M226 -180h-127l20 445h87zM163 502q32 0 54.5 -22t22.5 -56q0 -33 -22.5 -55t-54.5 -22q-33 0 -55.5 22t-22.5 55q0 34 22.5 56t55.5 22z" />
    <glyph glyph-name="cent" unicode="&#xa2;" horiz-adv-x="555" 
d="M327 581q58 -7 102.5 -36.5t73.5 -74.5l-73 -58q-20 27 -45.5 45.5t-57.5 25.5v-313q32 6 57 25t45 47l73 -58q-28 -46 -72.5 -75.5t-102.5 -36.5v-167h-97v173q-42 10 -78 33t-62 55.5t-40.5 73.5t-14.5 87q0 45 14.5 85.5t40.5 73t62 55.5t78 34v174h97v-168zM143 327
q0 -50 23.5 -88.5t63.5 -57.5v291q-40 -19 -63.5 -57.5t-23.5 -87.5z" />
    <glyph glyph-name="sterling" unicode="&#xa3;" horiz-adv-x="548" 
d="M416 235h-130q0 -5 0.5 -10t0.5 -10q0 -35 -11.5 -67t-33.5 -57h262v-91h-455v24q29 20 53.5 41t42 44t27.5 49t10 56q0 5 -0.5 10.5t-1.5 10.5h-121v91h89q-19 36 -37 74t-18 88q0 42 15.5 75.5t42.5 57.5t64.5 37t81.5 13q79 0 136 -43t80 -129l-91 -33
q-16 51 -45 79.5t-74 28.5q-50 0 -76 -30t-26 -73q0 -20 5 -38.5t13.5 -36t18.5 -35t19 -35.5h159v-91z" />
    <glyph glyph-name="currency" unicode="&#xa4;" horiz-adv-x="649" 
d="M323 560q36 0 69 -10t61 -27l110 110l63 -63l-107 -107q20 -28 31.5 -61.5t11.5 -71.5t-11.5 -71.5t-31.5 -61.5l108 -109l-63 -63l-111 112q-29 -17 -62 -27t-69 -10t-68.5 9.5t-60.5 26.5l-108 -111l-63 63l105 109q-20 28 -31 61.5t-11 71.5q0 37 11 70.5t31 61.5
l-105 108l63 63l108 -110q28 17 61 27t69 10zM323 463q-29 0 -53 -10t-41 -28t-26.5 -42.5t-9.5 -53.5q0 -28 9.5 -52t26.5 -42t41 -28t53 -10q28 0 52 10t41.5 28t27.5 42t10 52q0 29 -10 53.5t-27.5 42.5t-41.5 28t-52 10z" />
    <glyph glyph-name="yen" unicode="&#xa5;" horiz-adv-x="575" 
d="M529 114h-188v-114h-106v114h-187v88h187v77h-187v89h163l-204 292h118l163 -237l163 237h118l-204 -292h164v-89h-188v-77h188v-88z" />
    <glyph glyph-name="brokenbar" unicode="&#xa6;" horiz-adv-x="332" 
d="M211 480h-89v300h89v-300zM211 -121h-89v300h89v-300z" />
    <glyph glyph-name="section" unicode="&#xa7;" horiz-adv-x="590" 
d="M325 677q57 0 103.5 -24t80.5 -73l-71 -59q-26 32 -53.5 47.5t-61.5 15.5q-32 0 -51 -14t-19 -43q0 -33 24.5 -56t62.5 -52l99 -75q58 -41 88.5 -78.5t30.5 -86.5q0 -53 -33 -87.5t-87 -48.5q0 -4 0.5 -8t0.5 -9q0 -32 -12 -60t-35 -48.5t-55.5 -32t-72.5 -11.5
q-56 0 -102.5 24t-80.5 73l71 58q26 -31 53 -47t62 -16q32 0 50.5 14.5t18.5 43.5q0 16 -6.5 29.5t-17.5 26t-27 25l-35 26.5l-99 76q-59 41 -89 78.5t-30 86.5q0 52 32.5 87t87.5 48q-1 5 -1 9v9q0 32 12 60t34.5 48.5t54.5 32t73 11.5zM276 347q-29 21 -53.5 42t-41.5 44
q-21 -8 -34 -22.5t-13 -37.5q0 -11 3.5 -20.5t12.5 -19.5t24 -22.5l37 -29.5l99 -75l55 -44t42 -44q21 8 34.5 22t13.5 38q0 11 -3.5 20.5t-12.5 19.5t-23.5 22l-36.5 29z" />
    <glyph glyph-name="dieresis" unicode="&#xa8;" horiz-adv-x="420" 
d="M323 740q28 0 47.5 -18.5t19.5 -47.5q0 -26 -19.5 -45.5t-47.5 -19.5q-26 0 -47 19.5t-21 45.5q0 29 21 47.5t47 18.5zM98 740q28 0 47.5 -18.5t19.5 -47.5q0 -26 -19.5 -45.5t-47.5 -19.5q-26 0 -47 19.5t-21 45.5q0 29 21 47.5t47 18.5z" />
    <glyph glyph-name="copyright" unicode="&#xa9;" horiz-adv-x="780" 
d="M389 671q70 0 133.5 -26t110.5 -72t75 -108.5t28 -134.5q0 -73 -28 -135.5t-75 -108t-110.5 -71.5t-133.5 -26q-71 0 -133.5 26t-110 71.5t-75 108t-27.5 135.5t28 135t75 108t110 72t133 26zM398 519q48 0 86.5 -21t65.5 -57l-60 -52q-17 23 -39 36.5t-51 13.5
q-46 0 -75 -30.5t-29 -78.5q0 -46 29 -77t74 -31q29 0 51.5 13t39.5 36l60 -52q-27 -35 -66 -56t-87 -21q-40 0 -74.5 14.5t-60 39.5t-40 59.5t-14.5 74.5t14.5 75t40 60t60.5 39.5t75 14.5zM389 604q-55 0 -104 -20t-86.5 -56t-59.5 -86.5t-22 -111.5q0 -62 22 -112.5
t59.5 -86.5t86.5 -55.5t104 -19.5q54 0 104 19.5t87.5 55.5t60 86.5t22.5 112.5q0 61 -22.5 111.5t-60 86.5t-87 56t-104.5 20z" />
    <glyph glyph-name="ordfeminine" unicode="&#xaa;" horiz-adv-x="367" 
d="M181 563q61 0 97.5 -33.5t36.5 -99.5v-186h-78v27q-17 -16 -40 -25t-52 -9q-52 0 -80 26.5t-28 67.5q0 44 31.5 67.5t85.5 23.5h76v14q0 26 -14.5 40t-43.5 14q-24 0 -44 -9.5t-40 -26.5l-38 55q57 54 131 54zM168 300q26 0 44 16t18 42v10h-62q-22 0 -33.5 -9.5
t-11.5 -24.5q0 -17 13 -25.5t32 -8.5z" />
    <glyph glyph-name="guillemotleft" unicode="&#xab;" horiz-adv-x="550" 
d="M288 425l-138 -153l138 -155l-68 -59l-186 199v29l186 199zM515 425l-138 -153l138 -155l-68 -59l-186 199v29l186 199z" />
    <glyph glyph-name="logicalnot" unicode="&#xac;" 
d="M478 99h-101v173h-328v91h429v-264z" />
    <glyph glyph-name="uni00AD" unicode="&#xad;" horiz-adv-x="344" 
d="M295 273h-246v89h246v-89z" />
    <glyph glyph-name="registered" unicode="&#xae;" horiz-adv-x="572" 
d="M286 688q51 0 96 -20t78.5 -54.5t53 -80.5t19.5 -98t-19.5 -97.5t-53 -80t-78.5 -54.5t-96 -20t-96 20t-79 54.5t-53.5 80t-19.5 97.5t19.5 98t53.5 80.5t79 54.5t96 20zM287 631q-40 0 -74.5 -15t-60 -41.5t-40 -62t-14.5 -76.5q0 -42 14.5 -77.5t40 -62t60 -41.5
t74.5 -15q39 0 73.5 15t60 41t40.5 62t15 78t-15 77.5t-40.5 61.5t-60 41t-73.5 15zM290 561q42 0 69 -23t27 -63q0 -23 -10.5 -41.5t-28.5 -29.5l68 -94h-71l-60 79h-32v-79h-64v251h102zM252 505v-60h38q14 0 22.5 8t8.5 21q0 14 -8.5 22.5t-22.5 8.5h-38z" />
    <glyph glyph-name="macron" unicode="&#xaf;" horiz-adv-x="348" 
d="M318 632h-288v84h288v-84z" />
    <glyph glyph-name="degree" unicode="&#xb0;" horiz-adv-x="361" 
d="M181 671q32 0 59.5 -12t48 -32t32.5 -47.5t12 -58.5t-12 -58.5t-32.5 -47.5t-48 -32t-59.5 -12t-60 12t-48.5 32t-32.5 47.5t-12 58.5t12 58.5t32.5 47.5t48.5 32t60 12zM180 598q-32 0 -53.5 -22.5t-21.5 -54.5t21.5 -54.5t53.5 -22.5q34 0 55 22.5t21 54.5t-21 54.5
t-55 22.5z" />
    <glyph glyph-name="plusminus" unicode="&#xb1;" 
d="M332 401h168v-88h-168v-151h-102v151h-169v88h169v145h102v-145zM500 0h-439v88h439v-88z" />
    <glyph glyph-name="uni00B2" unicode="&#xb2;" horiz-adv-x="376" 
d="M182 787q31 0 57 -10t45 -27.5t30 -42t11 -52.5q0 -23 -7 -44t-19 -40.5t-28.5 -38.5l-35.5 -39l-51 -54h153v-75h-303v18l148 160q29 32 43.5 56t14.5 50q0 27 -16 45t-42 18q-27 0 -43.5 -18t-16.5 -47q0 -7 0.5 -14.5t1.5 -16.5h-82q-2 9 -3 18.5t-1 17.5
q0 25 10 49.5t28.5 44t45 31t60.5 11.5z" />
    <glyph glyph-name="uni00B3" unicode="&#xb3;" horiz-adv-x="357" 
d="M311 757l-92 -130q18 -5 36 -15t32.5 -26t23 -37.5t8.5 -48.5q0 -32 -12.5 -58.5t-33.5 -45.5t-49 -29t-59 -10q-54 0 -92 26.5t-58 66.5l57 41q17 -27 38 -42.5t52 -15.5q32 0 52.5 17.5t20.5 49.5q0 61 -86 61h-45v21l87 123h-145v75h265v-23z" />
    <glyph glyph-name="acute" unicode="&#xb4;" horiz-adv-x="266" 
d="M236 761l-128 -193h-78l79 212h127v-19z" />
    <glyph glyph-name="uni00B5" unicode="&#xb5;" horiz-adv-x="601" 
d="M505 154q0 -36 12 -52t38 -16q5 0 11 0.5t17 1.5v-88q-29 -8 -62 -8q-73 0 -101 54q-21 -26 -52.5 -41.5t-70.5 -15.5q-36 0 -65.5 13.5t-50.5 37.5v-220h-105v671h105v-288q0 -54 31 -86t78 -32q48 0 78.5 32t30.5 86v288h106v-337z" />
    <glyph glyph-name="paragraph" unicode="&#xb6;" horiz-adv-x="588" 
d="M505 -14q0 -94 -49.5 -135.5t-132.5 -41.5q-24 0 -45.5 3t-40.5 8v90l35 -3.5t29 -1.5q47 0 73 19t26 72v664h105v-674zM338 227h-59q-52 0 -96.5 15.5t-77 44t-51 68.5t-18.5 90q0 49 18.5 89t51 68t77 43t96.5 15h59v-433z" />
    <glyph glyph-name="periodcentered" unicode="&#xb7;" horiz-adv-x="270" 
d="M135 395q32 0 54.5 -22t22.5 -56t-22.5 -55.5t-54.5 -21.5q-33 0 -55.5 21.5t-22.5 55.5t22.5 56t55.5 22z" />
    <glyph glyph-name="cedilla" unicode="&#xb8;" horiz-adv-x="274" 
d="M178 35q30 -16 48 -43t18 -63q0 -25 -9.5 -46.5t-28 -38t-45 -26t-60.5 -9.5q-18 0 -36.5 2.5t-34.5 6.5v72q37 -3 58 -3q31 0 50.5 14.5t19.5 46.5q0 20 -7 36.5t-16 29.5z" />
    <glyph glyph-name="uni00B9" unicode="&#xb9;" horiz-adv-x="361" 
d="M232 439h88v-75h-275v75h104v266h-97v75h180v-341z" />
    <glyph glyph-name="ordmasculine" unicode="&#xba;" horiz-adv-x="404" 
d="M201 562q34 0 65 -12.5t53.5 -34t36 -51.5t13.5 -65t-13.5 -64.5t-36 -51t-53.5 -34t-65 -12.5q-35 0 -65 12.5t-52.5 34t-35.5 51t-13 64.5t13 65t35.5 51.5t52.5 34t65 12.5zM201 486q-37 0 -59.5 -24t-22.5 -63q0 -38 22.5 -62t59.5 -24t60 24t23 62t-23 62.5
t-60 24.5z" />
    <glyph glyph-name="guillemotright" unicode="&#xbb;" horiz-adv-x="550" 
d="M289 286v-29l-186 -199l-68 59l138 155l-138 153l68 60zM516 286v-29l-186 -199l-68 59l138 155l-138 153l68 60z" />
    <glyph glyph-name="onequarter" unicode="&#xbc;" horiz-adv-x="910" 
d="M232 319h88v-75h-275v75h104v266h-97v75h180v-341zM338 0h-88l378 660h89zM844 138h53v-68h-53v-69h-76v69h-209v22l127 325h85l-110 -279h107v120h76v-120z" />
    <glyph glyph-name="onehalf" unicode="&#xbd;" horiz-adv-x="946" 
d="M232 319h88v-75h-275v75h104v266h-97v75h180v-341zM338 0h-88l378 660h89zM752 424q31 0 57 -10t45 -27.5t30 -42t11 -52.5q0 -23 -7 -44t-19 -40.5t-28.5 -38.5l-35.5 -39l-51 -54h153v-75h-303v18l148 160q29 32 43.5 56t14.5 50q0 27 -16 45t-42 18q-27 0 -43.5 -18
t-16.5 -47q0 -7 0.5 -14.5t1.5 -16.5h-82q-2 9 -3 18.5t-1 17.5q0 25 10 49.5t28.5 44t45 31t60.5 11.5z" />
    <glyph glyph-name="threequarters" unicode="&#xbe;" horiz-adv-x="871" 
d="M311 637l-92 -130q18 -5 36 -15t32.5 -26t23 -37.5t8.5 -48.5q0 -32 -12.5 -58.5t-33.5 -45.5t-49 -29t-59 -10q-54 0 -92 26.5t-58 66.5l57 41q17 -27 38 -42.5t52 -15.5q32 0 52.5 17.5t20.5 49.5q0 61 -86 61h-45v21l87 123h-145v75h265v-23zM299 0h-88l378 660h89z
M805 138h53v-68h-53v-69h-76v69h-209v22l127 325h85l-110 -279h107v120h76v-120z" />
    <glyph glyph-name="questiondown" unicode="&#xbf;" horiz-adv-x="447" 
d="M285 265q5 -9 8 -21t3 -24q0 -19 -7.5 -36t-19 -32t-26 -28.5l-27.5 -25.5q-33 -31 -51 -54t-18 -55q0 -38 24.5 -60.5t57.5 -22.5q67 0 97 86l87 -38q-20 -72 -70 -108.5t-117 -36.5q-39 0 -73 12.5t-59.5 35.5t-40 55t-14.5 71q0 27 7 49t19 41t28.5 35.5t34.5 32.5
q35 31 52.5 52t17.5 46q0 15 -3 26h90zM234 502q33 0 55.5 -22t22.5 -56q0 -33 -22.5 -55.5t-55.5 -22.5q-32 0 -54.5 22.5t-22.5 55.5q0 34 22.5 56t54.5 22z" />
    <glyph glyph-name="Agrave" unicode="&#xc0;" horiz-adv-x="662" 
d="M640 0h-114l-47 110h-297l-47 -110h-113l291 671h36zM220 201h220l-109 273zM370 724h-78l-128 167v19h127z" />
    <glyph glyph-name="Aacute" unicode="&#xc1;" horiz-adv-x="662" 
d="M640 0h-114l-47 110h-297l-47 -110h-113l291 671h36zM220 201h220l-109 273zM496 891l-128 -167h-78l79 186h127v-19z" />
    <glyph glyph-name="Acircumflex" unicode="&#xc2;" horiz-adv-x="662" 
d="M640 0h-114l-47 110h-297l-47 -110h-113l291 671h36zM220 201h220l-109 273zM512 724h-81l-101 93l-100 -93h-81l148 186h67z" />
    <glyph glyph-name="Atilde" unicode="&#xc3;" horiz-adv-x="662" 
d="M640 0h-114l-47 110h-297l-47 -110h-113l291 671h36zM220 201h220l-109 273zM250 890q36 0 72 -22l33 -20l22 -12.5t22 -5.5q14 0 21 10t7 25v15h84q1 -7 1 -14v-15q0 -53 -28 -85t-71 -32q-19 0 -37.5 6t-37.5 17l-31 18q-12 7 -22.5 12.5t-21.5 5.5q-14 0 -21 -10.5
t-7 -25.5v-13h-84q-1 7 -1.5 14t-0.5 15q0 52 28.5 84.5t72.5 32.5z" />
    <glyph glyph-name="Adieresis" unicode="&#xc4;" horiz-adv-x="662" 
d="M640 0h-114l-47 110h-297l-47 -110h-113l291 671h36zM220 201h220l-109 273zM453 877q28 0 47.5 -19t19.5 -47q0 -26 -19.5 -45.5t-47.5 -19.5q-26 0 -47 19.5t-21 45.5q0 28 21 47t47 19zM208 877q28 0 47.5 -18.5t19.5 -46.5q0 -26 -19.5 -45.5t-47.5 -19.5
q-26 0 -47 19.5t-21 45.5q0 28 21 46.5t47 18.5z" />
    <glyph glyph-name="Aring" unicode="&#xc5;" horiz-adv-x="662" 
d="M640 0h-114l-47 110h-297l-47 -110h-113l291 671h36zM220 201h220l-109 273zM330 917q26 0 48 -9t37.5 -24.5t24.5 -36.5t9 -45q0 -49 -33.5 -82t-85.5 -33q-26 0 -47.5 9t-37 24.5t-24.5 36.5t-9 45t9 45t24.5 36.5t37 24.5t47.5 9zM331 848q-20 0 -33 -13t-13 -33
t13 -33t33 -13q19 0 32 13t13 33t-12.5 33t-32.5 13z" />
    <glyph glyph-name="AE" unicode="&#xc6;" horiz-adv-x="836" 
d="M704 304h-188l35 -209h245v-95h-335l-19 110h-261l-58 -110h-114l341 660h434v-95h-312l28 -169h204v-92zM228 201h199l-49 303z" />
    <glyph glyph-name="Ccedilla" unicode="&#xc7;" horiz-adv-x="717" 
d="M390 671q93 0 166.5 -41.5t116.5 -110.5l-80 -59q-35 54 -86 84t-117 30q-51 0 -94.5 -18.5t-75.5 -51t-50 -77t-18 -97.5t18 -97.5t50 -77t75.5 -51t94.5 -18.5q66 0 117 30t86 84l80 -59q-42 -69 -116 -110.5t-167 -41.5q-73 0 -136 26t-110 71.5t-74 108t-27 135.5
q0 72 27 134.5t74 108.5t110 72t136 26zM410 35q30 -16 48 -43t18 -63q0 -25 -9.5 -46.5t-28 -38t-45 -26t-60.5 -9.5q-18 0 -36.5 2.5t-34.5 6.5v72q37 -3 58 -3q31 0 50.5 14.5t19.5 46.5q0 20 -7 36.5t-16 29.5z" />
    <glyph glyph-name="Egrave" unicode="&#xc8;" horiz-adv-x="569" 
d="M517 565h-328v-169h246v-92h-246v-209h340v-95h-446v660h434v-95zM338 724h-78l-128 167v19h127z" />
    <glyph glyph-name="Eacute" unicode="&#xc9;" horiz-adv-x="569" 
d="M517 565h-328v-169h246v-92h-246v-209h340v-95h-446v660h434v-95zM464 891l-128 -167h-78l79 186h127v-19z" />
    <glyph glyph-name="Ecircumflex" unicode="&#xca;" horiz-adv-x="569" 
d="M517 565h-328v-169h246v-92h-246v-209h340v-95h-446v660h434v-95zM480 724h-81l-101 93l-100 -93h-81l148 186h67z" />
    <glyph glyph-name="Edieresis" unicode="&#xcb;" horiz-adv-x="569" 
d="M517 565h-328v-169h246v-92h-246v-209h340v-95h-446v660h434v-95zM421 877q28 0 47.5 -19t19.5 -47q0 -26 -19.5 -45.5t-47.5 -19.5q-26 0 -47 19.5t-21 45.5q0 28 21 47t47 19zM176 877q28 0 47.5 -18.5t19.5 -46.5q0 -26 -19.5 -45.5t-47.5 -19.5q-26 0 -47 19.5
t-21 45.5q0 28 21 46.5t47 18.5z" />
    <glyph glyph-name="Igrave" unicode="&#xcc;" horiz-adv-x="272" 
d="M189 0h-106v660h106v-660zM177 724h-78l-128 167v19h127z" />
    <glyph glyph-name="Iacute" unicode="&#xcd;" horiz-adv-x="272" 
d="M189 0h-106v660h106v-660zM302 891l-128 -167h-78l79 186h127v-19z" />
    <glyph glyph-name="Icircumflex" unicode="&#xce;" horiz-adv-x="272" 
d="M189 0h-106v660h106v-660zM319 724h-81l-101 93l-100 -93h-81l148 186h67z" />
    <glyph glyph-name="Idieresis" unicode="&#xcf;" horiz-adv-x="272" 
d="M189 0h-106v660h106v-660zM260 877q28 0 47.5 -19t19.5 -47q0 -26 -19.5 -45.5t-47.5 -19.5q-26 0 -47 19.5t-21 45.5q0 28 21 47t47 19zM15 877q28 0 47.5 -18.5t19.5 -46.5q0 -26 -19.5 -45.5t-47.5 -19.5q-26 0 -47 19.5t-21 45.5q0 28 21 46.5t47 18.5z" />
    <glyph glyph-name="Eth" unicode="&#xd0;" horiz-adv-x="692" 
d="M289 660q82 0 148.5 -24t113.5 -67.5t72.5 -104t25.5 -133.5q0 -72 -25.5 -132.5t-72.5 -105t-113.5 -69t-148.5 -24.5h-206v265h-88v90h88v305h206zM189 564v-209h120v-90h-120v-170h99q58 0 105 17.5t79 49t49.5 75t17.5 94.5q0 53 -17.5 96t-49.5 73.5t-79 47
t-105 16.5h-99z" />
    <glyph glyph-name="Ntilde" unicode="&#xd1;" horiz-adv-x="711" 
d="M521 214v446h106v-671h-36l-402 457v-446h-106v671h36zM274 890q36 0 72 -22l33 -20l22 -12.5t22 -5.5q14 0 21 10t7 25v15h84q1 -7 1 -14v-15q0 -53 -28 -85t-71 -32q-19 0 -37.5 6t-37.5 17l-31 18q-12 7 -22.5 12.5t-21.5 5.5q-14 0 -21 -10.5t-7 -25.5v-13h-84
q-1 7 -1.5 14t-0.5 15q0 52 28.5 84.5t72.5 32.5z" />
    <glyph glyph-name="Ograve" unicode="&#xd2;" horiz-adv-x="780" 
d="M389 671q72 0 135 -26t110 -72t74.5 -108.5t27.5 -134.5q0 -73 -27.5 -135.5t-74.5 -108t-110 -71.5t-135 -26t-135.5 26t-110 72t-73.5 108.5t-27 134.5t27 134.5t74 108.5t110 72t135 26zM390 574q-51 0 -94.5 -18.5t-75 -50.5t-49.5 -77t-18 -97q0 -53 18 -98
t49.5 -77.5t75 -51t94.5 -18.5t94 18.5t75 51t50 77.5t18 98q0 52 -18 96.5t-50 77t-75 51t-94 18.5zM429 724h-78l-128 167v19h127z" />
    <glyph glyph-name="Oacute" unicode="&#xd3;" horiz-adv-x="780" 
d="M389 671q72 0 135 -26t110 -72t74.5 -108.5t27.5 -134.5q0 -73 -27.5 -135.5t-74.5 -108t-110 -71.5t-135 -26t-135.5 26t-110 72t-73.5 108.5t-27 134.5t27 134.5t74 108.5t110 72t135 26zM390 574q-51 0 -94.5 -18.5t-75 -50.5t-49.5 -77t-18 -97q0 -53 18 -98
t49.5 -77.5t75 -51t94.5 -18.5t94 18.5t75 51t50 77.5t18 98q0 52 -18 96.5t-50 77t-75 51t-94 18.5zM555 891l-128 -167h-78l79 186h127v-19z" />
    <glyph glyph-name="Ocircumflex" unicode="&#xd4;" horiz-adv-x="780" 
d="M389 671q72 0 135 -26t110 -72t74.5 -108.5t27.5 -134.5q0 -73 -27.5 -135.5t-74.5 -108t-110 -71.5t-135 -26t-135.5 26t-110 72t-73.5 108.5t-27 134.5t27 134.5t74 108.5t110 72t135 26zM390 574q-51 0 -94.5 -18.5t-75 -50.5t-49.5 -77t-18 -97q0 -53 18 -98
t49.5 -77.5t75 -51t94.5 -18.5t94 18.5t75 51t50 77.5t18 98q0 52 -18 96.5t-50 77t-75 51t-94 18.5zM571 724h-81l-101 93l-100 -93h-81l148 186h67z" />
    <glyph glyph-name="Otilde" unicode="&#xd5;" horiz-adv-x="780" 
d="M389 671q72 0 135 -26t110 -72t74.5 -108.5t27.5 -134.5q0 -73 -27.5 -135.5t-74.5 -108t-110 -71.5t-135 -26t-135.5 26t-110 72t-73.5 108.5t-27 134.5t27 134.5t74 108.5t110 72t135 26zM390 574q-51 0 -94.5 -18.5t-75 -50.5t-49.5 -77t-18 -97q0 -53 18 -98
t49.5 -77.5t75 -51t94.5 -18.5t94 18.5t75 51t50 77.5t18 98q0 52 -18 96.5t-50 77t-75 51t-94 18.5zM309 890q36 0 72 -22l33 -20l22 -12.5t22 -5.5q14 0 21 10t7 25v15h84q1 -7 1 -14v-15q0 -53 -28 -85t-71 -32q-19 0 -37.5 6t-37.5 17l-31 18q-12 7 -22.5 12.5
t-21.5 5.5q-14 0 -21 -10.5t-7 -25.5v-13h-84q-1 7 -1.5 14t-0.5 15q0 52 28.5 84.5t72.5 32.5z" />
    <glyph glyph-name="Odieresis" unicode="&#xd6;" horiz-adv-x="780" 
d="M389 671q72 0 135 -26t110 -72t74.5 -108.5t27.5 -134.5q0 -73 -27.5 -135.5t-74.5 -108t-110 -71.5t-135 -26t-135.5 26t-110 72t-73.5 108.5t-27 134.5t27 134.5t74 108.5t110 72t135 26zM390 574q-51 0 -94.5 -18.5t-75 -50.5t-49.5 -77t-18 -97q0 -53 18 -98
t49.5 -77.5t75 -51t94.5 -18.5t94 18.5t75 51t50 77.5t18 98q0 52 -18 96.5t-50 77t-75 51t-94 18.5zM512 877q28 0 47.5 -19t19.5 -47q0 -26 -19.5 -45.5t-47.5 -19.5q-26 0 -47 19.5t-21 45.5q0 28 21 47t47 19zM267 877q28 0 47.5 -18.5t19.5 -46.5q0 -26 -19.5 -45.5
t-47.5 -19.5q-26 0 -47 19.5t-21 45.5q0 28 21 46.5t47 18.5z" />
    <glyph glyph-name="multiply" unicode="&#xd7;" 
d="M495 471l-152 -152l152 -152l-62 -63l-153 151l-152 -151l-63 63l152 152l-152 152l63 63l152 -151l152 151z" />
    <glyph glyph-name="Oslash" unicode="&#xd8;" horiz-adv-x="780" 
d="M389 671q59 0 112 -18t97 -50l81 81l64 -64l-80 -80q35 -43 54 -96.5t19 -113.5q0 -73 -27.5 -135.5t-74.5 -108t-110 -71.5t-135 -26q-60 0 -112.5 17.5t-96.5 49.5l-79 -80l-64 64l78 78q-35 44 -53.5 97.5t-18.5 114.5q0 72 27 134.5t74 108.5t110 72t135 26zM390 578
q-53 0 -97 -18.5t-76.5 -51.5t-50.5 -78.5t-18 -98.5q0 -41 10 -76t28 -65l344 344q-29 21 -64.5 32.5t-75.5 11.5zM631 331q0 39 -10 74t-29 64l-343 -344q60 -43 141 -43q51 0 95.5 18.5t76.5 52t50.5 79t18.5 99.5z" />
    <glyph glyph-name="Ugrave" unicode="&#xd9;" horiz-adv-x="694" 
d="M618 267q0 -66 -20.5 -117.5t-57 -87.5t-86 -54.5t-107.5 -18.5q-59 0 -108.5 18.5t-85.5 54.5t-56.5 87.5t-20.5 117.5v393h106v-400q0 -44 12.5 -76.5t35 -54t52.5 -32.5t65 -11q34 0 64.5 11t52.5 32.5t35 54t13 76.5v400h106v-393zM386 724h-78l-128 167v19h127z" />
    <glyph glyph-name="Uacute" unicode="&#xda;" horiz-adv-x="694" 
d="M618 267q0 -66 -20.5 -117.5t-57 -87.5t-86 -54.5t-107.5 -18.5q-59 0 -108.5 18.5t-85.5 54.5t-56.5 87.5t-20.5 117.5v393h106v-400q0 -44 12.5 -76.5t35 -54t52.5 -32.5t65 -11q34 0 64.5 11t52.5 32.5t35 54t13 76.5v400h106v-393zM512 891l-128 -167h-78l79 186h127
v-19z" />
    <glyph glyph-name="Ucircumflex" unicode="&#xdb;" horiz-adv-x="694" 
d="M618 267q0 -66 -20.5 -117.5t-57 -87.5t-86 -54.5t-107.5 -18.5q-59 0 -108.5 18.5t-85.5 54.5t-56.5 87.5t-20.5 117.5v393h106v-400q0 -44 12.5 -76.5t35 -54t52.5 -32.5t65 -11q34 0 64.5 11t52.5 32.5t35 54t13 76.5v400h106v-393zM528 724h-81l-101 93l-100 -93h-81
l148 186h67z" />
    <glyph glyph-name="Udieresis" unicode="&#xdc;" horiz-adv-x="694" 
d="M618 267q0 -66 -20.5 -117.5t-57 -87.5t-86 -54.5t-107.5 -18.5q-59 0 -108.5 18.5t-85.5 54.5t-56.5 87.5t-20.5 117.5v393h106v-400q0 -44 12.5 -76.5t35 -54t52.5 -32.5t65 -11q34 0 64.5 11t52.5 32.5t35 54t13 76.5v400h106v-393zM469 877q28 0 47.5 -19t19.5 -47
q0 -26 -19.5 -45.5t-47.5 -19.5q-26 0 -47 19.5t-21 45.5q0 28 21 47t47 19zM224 877q28 0 47.5 -18.5t19.5 -46.5q0 -26 -19.5 -45.5t-47.5 -19.5q-26 0 -47 19.5t-21 45.5q0 28 21 46.5t47 18.5z" />
    <glyph glyph-name="Yacute" unicode="&#xdd;" horiz-adv-x="620" 
d="M363 266v-266h-106v266l-228 394h118l163 -288l164 288h118zM473 891l-128 -167h-78l79 186h127v-19z" />
    <glyph glyph-name="Thorn" unicode="&#xde;" horiz-adv-x="583" 
d="M189 550h134q51 0 92.5 -14.5t71 -41.5t45.5 -65t16 -84q0 -45 -16 -83t-45.5 -65.5t-71 -43t-92.5 -15.5h-134v-138h-106v660h106v-110zM189 456v-224h133q57 0 87 31.5t30 80.5q0 50 -30 81t-87 31h-133z" />
    <glyph glyph-name="germandbls" unicode="&#xdf;" horiz-adv-x="630" 
d="M301 761q86 0 137 -41t51 -113q0 -15 -3 -35.5t-12 -44.5l-39 -107q-7 -17 -11.5 -32.5t-4.5 -28.5q0 -27 22 -43t59 -38q47 -29 75 -61t28 -82q0 -34 -13.5 -61.5t-37 -46.5t-56 -29t-71.5 -10q-56 0 -99 19t-72 46l48 75q27 -21 59 -34.5t67 -13.5q31 0 51 12.5
t20 39.5t-22 43t-60 39q-48 28 -76.5 55.5t-28.5 67.5q0 17 5 36.5t13 39.5l38 102q7 19 11 36t4 33q0 36 -22.5 58.5t-64.5 22.5q-48 0 -82 -33t-34 -106v-526h-104v531q0 55 16 97.5t45.5 72t71 45t92.5 15.5z" />
    <glyph glyph-name="agrave" unicode="&#xe0;" horiz-adv-x="536" 
d="M264 502q45 0 82 -13t63.5 -38.5t41.5 -64t15 -89.5v-297h-98v55q-26 -31 -66 -48.5t-91 -17.5q-39 0 -70.5 10t-54 29t-34.5 45t-12 58q0 65 49 102.5t132 37.5h139v32q0 51 -27 78t-78 27q-43 0 -75 -19t-62 -54l-60 62q38 54 91 79.5t115 25.5zM233 70q26 0 49 8.5
t40.5 24t27.5 37t10 46.5v9h-126q-42 0 -64.5 -15t-22.5 -45q0 -32 25 -48.5t61 -16.5zM304 568h-78l-128 193v19h127z" />
    <glyph glyph-name="aacute" unicode="&#xe1;" horiz-adv-x="536" 
d="M264 502q45 0 82 -13t63.5 -38.5t41.5 -64t15 -89.5v-297h-98v55q-26 -31 -66 -48.5t-91 -17.5q-39 0 -70.5 10t-54 29t-34.5 45t-12 58q0 65 49 102.5t132 37.5h139v32q0 51 -27 78t-78 27q-43 0 -75 -19t-62 -54l-60 62q38 54 91 79.5t115 25.5zM233 70q26 0 49 8.5
t40.5 24t27.5 37t10 46.5v9h-126q-42 0 -64.5 -15t-22.5 -45q0 -32 25 -48.5t61 -16.5zM433 761l-128 -193h-78l79 212h127v-19z" />
    <glyph glyph-name="acircumflex" unicode="&#xe2;" horiz-adv-x="536" 
d="M264 502q45 0 82 -13t63.5 -38.5t41.5 -64t15 -89.5v-297h-98v55q-26 -31 -66 -48.5t-91 -17.5q-39 0 -70.5 10t-54 29t-34.5 45t-12 58q0 65 49 102.5t132 37.5h139v32q0 51 -27 78t-78 27q-43 0 -75 -19t-62 -54l-60 62q38 54 91 79.5t115 25.5zM233 70q26 0 49 8.5
t40.5 24t27.5 37t10 46.5v9h-126q-42 0 -64.5 -15t-22.5 -45q0 -32 25 -48.5t61 -16.5zM434 568h-79l-90 109l-90 -109h-79l135 212h68z" />
    <glyph glyph-name="atilde" unicode="&#xe3;" horiz-adv-x="536" 
d="M264 502q45 0 82 -13t63.5 -38.5t41.5 -64t15 -89.5v-297h-98v55q-26 -31 -66 -48.5t-91 -17.5q-39 0 -70.5 10t-54 29t-34.5 45t-12 58q0 65 49 102.5t132 37.5h139v32q0 51 -27 78t-78 27q-43 0 -75 -19t-62 -54l-60 62q38 54 91 79.5t115 25.5zM233 70q26 0 49 8.5
t40.5 24t27.5 37t10 46.5v9h-126q-42 0 -64.5 -15t-22.5 -45q0 -32 25 -48.5t61 -16.5zM189 748q38 0 70 -24l27 -20q11 -9 20.5 -14.5t20.5 -5.5q15 0 21.5 11t6.5 27v14h83q1 -8 1 -14.5v-14.5q0 -53 -27 -86.5t-72 -33.5q-35 0 -70 24l-26 20q-12 9 -21 15t-21 6
q-15 0 -21.5 -10.5t-6.5 -27.5v-14h-82q-2 8 -2 14.5v14.5q0 54 27.5 86.5t71.5 32.5z" />
    <glyph glyph-name="adieresis" unicode="&#xe4;" horiz-adv-x="536" 
d="M264 502q45 0 82 -13t63.5 -38.5t41.5 -64t15 -89.5v-297h-98v55q-26 -31 -66 -48.5t-91 -17.5q-39 0 -70.5 10t-54 29t-34.5 45t-12 58q0 65 49 102.5t132 37.5h139v32q0 51 -27 78t-78 27q-43 0 -75 -19t-62 -54l-60 62q38 54 91 79.5t115 25.5zM233 70q26 0 49 8.5
t40.5 24t27.5 37t10 46.5v9h-126q-42 0 -64.5 -15t-22.5 -45q0 -32 25 -48.5t61 -16.5zM377 740q28 0 47.5 -18.5t19.5 -47.5q0 -26 -19.5 -45.5t-47.5 -19.5q-26 0 -47 19.5t-21 45.5q0 29 21 47.5t47 18.5zM152 740q28 0 47.5 -18.5t19.5 -47.5q0 -26 -19.5 -45.5
t-47.5 -19.5q-26 0 -47 19.5t-21 45.5q0 29 21 47.5t47 18.5z" />
    <glyph glyph-name="aring" unicode="&#xe5;" horiz-adv-x="536" 
d="M264 502q45 0 82 -13t63.5 -38.5t41.5 -64t15 -89.5v-297h-98v55q-26 -31 -66 -48.5t-91 -17.5q-39 0 -70.5 10t-54 29t-34.5 45t-12 58q0 65 49 102.5t132 37.5h139v32q0 51 -27 78t-78 27q-43 0 -75 -19t-62 -54l-60 62q38 54 91 79.5t115 25.5zM233 70q26 0 49 8.5
t40.5 24t27.5 37t10 46.5v9h-126q-42 0 -64.5 -15t-22.5 -45q0 -32 25 -48.5t61 -16.5zM264 785q26 0 48 -9t37.5 -24.5t24.5 -37t9 -45.5t-9 -45t-24.5 -36.5t-37.5 -24.5t-48 -9t-47.5 9t-37 24.5t-24.5 36.5t-9 45t9 45.5t24.5 37t37 24.5t47.5 9zM265 716
q-20 0 -33 -13.5t-13 -33.5t13 -32.5t33 -12.5q19 0 32 12.5t13 32.5t-13 33.5t-32 13.5z" />
    <glyph glyph-name="ae" unicode="&#xe6;" horiz-adv-x="887" 
d="M265 502q56 0 98.5 -21.5t66.5 -65.5q32 40 80 63.5t106 23.5q49 0 90.5 -17t71.5 -47t47 -71.5t17 -90.5q0 -20 -2.5 -40.5t-5.5 -31.5h-364q12 -58 54 -90t104 -32q42 0 76.5 15t65.5 42l51 -71q-40 -38 -89 -58.5t-106 -20.5q-70 0 -124.5 29t-87.5 79
q-27 -54 -79 -81t-118 -27q-85 0 -131 40.5t-46 103.5q0 67 49 107t132 40h139v23q0 51 -27.5 78t-76.5 27q-42 0 -74.5 -19.5t-61.5 -53.5l-61 62q39 54 92 79.5t114 25.5zM612 413q-57 0 -96 -36.5t-48 -96.5h269q2 32 -7.5 56.5t-27 41.5t-41 26t-49.5 9zM233 71
q26 0 49 8.5t40.5 23.5t27.5 36t10 46v19h-126q-42 0 -64.5 -15.5t-22.5 -47.5q0 -35 25 -52.5t61 -17.5z" />
    <glyph glyph-name="ccedilla" unicode="&#xe7;" horiz-adv-x="552" 
d="M305 502q70 0 123 -31t85 -83l-74 -58q-25 34 -56.5 54.5t-76.5 20.5q-33 0 -61.5 -12.5t-48.5 -34t-31.5 -50.5t-11.5 -62q0 -34 11.5 -63.5t31.5 -51t48.5 -33.5t61.5 -12q45 0 76 20t56 54l74 -57q-32 -52 -85 -83t-122 -31q-54 0 -101.5 20t-83 54.5t-55.5 81.5
t-20 101t20 100.5t55.5 81t83 54.5t101.5 20zM315 35q30 -16 48 -43t18 -63q0 -25 -9.5 -46.5t-28 -38t-45 -26t-60.5 -9.5q-18 0 -36.5 2.5t-34.5 6.5v72q37 -3 58 -3q31 0 50.5 14.5t19.5 46.5q0 20 -7 36.5t-16 29.5z" />
    <glyph glyph-name="egrave" unicode="&#xe8;" horiz-adv-x="570" 
d="M299 502q49 0 91 -17t72 -47t47 -71.5t17 -89.5q0 -20 -2.5 -38t-5.5 -28h-366q11 -61 54 -95t106 -34q43 0 78 15.5t65 42.5l51 -72q-39 -37 -88 -58t-108 -21q-57 0 -106 19.5t-84 54t-55 81.5t-20 101t19.5 101t54 81.5t80.5 54.5t100 20zM296 413q-54 0 -92 -32.5
t-50 -87.5h267q-2 58 -38.5 89t-86.5 31zM336 568h-78l-128 193v19h127z" />
    <glyph glyph-name="eacute" unicode="&#xe9;" horiz-adv-x="570" 
d="M299 502q49 0 91 -17t72 -47t47 -71.5t17 -89.5q0 -20 -2.5 -38t-5.5 -28h-366q11 -61 54 -95t106 -34q43 0 78 15.5t65 42.5l51 -72q-39 -37 -88 -58t-108 -21q-57 0 -106 19.5t-84 54t-55 81.5t-20 101t19.5 101t54 81.5t80.5 54.5t100 20zM296 413q-54 0 -92 -32.5
t-50 -87.5h267q-2 58 -38.5 89t-86.5 31zM465 761l-128 -193h-78l79 212h127v-19z" />
    <glyph glyph-name="ecircumflex" unicode="&#xea;" horiz-adv-x="570" 
d="M299 502q49 0 91 -17t72 -47t47 -71.5t17 -89.5q0 -20 -2.5 -38t-5.5 -28h-366q11 -61 54 -95t106 -34q43 0 78 15.5t65 42.5l51 -72q-39 -37 -88 -58t-108 -21q-57 0 -106 19.5t-84 54t-55 81.5t-20 101t19.5 101t54 81.5t80.5 54.5t100 20zM296 413q-54 0 -92 -32.5
t-50 -87.5h267q-2 58 -38.5 89t-86.5 31zM466 568h-79l-90 109l-90 -109h-79l135 212h68z" />
    <glyph glyph-name="edieresis" unicode="&#xeb;" horiz-adv-x="570" 
d="M299 502q49 0 91 -17t72 -47t47 -71.5t17 -89.5q0 -20 -2.5 -38t-5.5 -28h-366q11 -61 54 -95t106 -34q43 0 78 15.5t65 42.5l51 -72q-39 -37 -88 -58t-108 -21q-57 0 -106 19.5t-84 54t-55 81.5t-20 101t19.5 101t54 81.5t80.5 54.5t100 20zM296 413q-54 0 -92 -32.5
t-50 -87.5h267q-2 58 -38.5 89t-86.5 31zM409 740q28 0 47.5 -18.5t19.5 -47.5q0 -26 -19.5 -45.5t-47.5 -19.5q-26 0 -47 19.5t-21 45.5q0 29 21 47.5t47 18.5zM184 740q28 0 47.5 -18.5t19.5 -47.5q0 -26 -19.5 -45.5t-47.5 -19.5q-26 0 -47 19.5t-21 45.5q0 29 21 47.5
t47 18.5z" />
    <glyph glyph-name="igrave" unicode="&#xec;" horiz-adv-x="257" 
d="M181 0h-105v491h105v-491zM170 568h-78l-98 193v19h127z" />
    <glyph glyph-name="iacute" unicode="&#xed;" horiz-adv-x="257" 
d="M181 0h-105v491h105v-491zM265 761l-98 -193h-78l49 212h127v-19z" />
    <glyph glyph-name="icircumflex" unicode="&#xee;" horiz-adv-x="257" 
d="M181 0h-105v491h105v-491zM299 568h-79l-90 109l-90 -109h-79l135 212h68z" />
    <glyph glyph-name="idieresis" unicode="&#xef;" horiz-adv-x="257" 
d="M181 0h-105v491h105v-491zM231 740q28 0 47.5 -18.5t19.5 -47.5q0 -26 -19.5 -45.5t-47.5 -19.5q-26 0 -47 19.5t-21 45.5q0 29 21 47.5t47 18.5zM30 740q28 0 47.5 -18.5t19.5 -47.5q0 -26 -19.5 -45.5t-47.5 -19.5q-27 0 -47.5 19.5t-20.5 45.5q0 29 20.5 47.5
t47.5 18.5z" />
    <glyph glyph-name="eth" unicode="&#xf0;" horiz-adv-x="571" 
d="M460 665l-141 -69l94 -126l44.5 -61t36 -58.5t24 -60.5t8.5 -66q0 -51 -18 -94t-50 -74.5t-76 -49t-96 -17.5q-53 0 -97 17.5t-76 48.5t-50 73t-18 90q0 49 18 90.5t49 71.5t72.5 46.5t88.5 16.5q17 0 34 -3l-80 111l-143 -69l-37 76l129 63l-59 82l79 58l71 -96l155 75z
M285 353q-29 0 -53.5 -10t-42 -28t-27.5 -42.5t-10 -54.5q0 -59 37 -96.5t96 -37.5q29 0 53.5 10t42.5 28t28 42.5t10 54.5q0 29 -10 53.5t-28 42.5t-42.5 28t-53.5 10z" />
    <glyph glyph-name="ntilde" unicode="&#xf1;" horiz-adv-x="575" 
d="M321 502q43 0 77 -14.5t58 -40t36.5 -61.5t12.5 -79v-307h-106v293q0 51 -28.5 82.5t-77.5 31.5t-80.5 -31.5t-31.5 -82.5v-293h-105v491h97v-50q26 29 63.5 45t84.5 16zM207 748q38 0 70 -24l27 -20q11 -9 20.5 -14.5t20.5 -5.5q15 0 21.5 11t6.5 27v14h83q1 -8 1 -14.5
v-14.5q0 -53 -27 -86.5t-72 -33.5q-35 0 -70 24l-26 20q-12 9 -21 15t-21 6q-15 0 -21.5 -10.5t-6.5 -27.5v-14h-82q-2 8 -2 14.5v14.5q0 54 27.5 86.5t71.5 32.5z" />
    <glyph glyph-name="ograve" unicode="&#xf2;" horiz-adv-x="609" 
d="M305 502q54 0 101 -20t82.5 -54.5t56 -81t20.5 -100.5t-20.5 -101t-56 -81.5t-83 -54.5t-101.5 -20t-101 20t-82.5 54.5t-55.5 81.5t-20 101t20 100.5t55.5 81t83 54.5t101.5 20zM305 406q-33 0 -61.5 -12.5t-48.5 -34t-31 -51t-11 -63.5t11 -63t31.5 -50.5t48 -33.5
t60.5 -12t61 12t48.5 33.5t32 50.5t11.5 63t-11.5 63.5t-32 51t-48.5 34t-60 12.5zM344 568h-78l-128 193v19h127z" />
    <glyph glyph-name="oacute" unicode="&#xf3;" horiz-adv-x="609" 
d="M305 502q54 0 101 -20t82.5 -54.5t56 -81t20.5 -100.5t-20.5 -101t-56 -81.5t-83 -54.5t-101.5 -20t-101 20t-82.5 54.5t-55.5 81.5t-20 101t20 100.5t55.5 81t83 54.5t101.5 20zM305 406q-33 0 -61.5 -12.5t-48.5 -34t-31 -51t-11 -63.5t11 -63t31.5 -50.5t48 -33.5
t60.5 -12t61 12t48.5 33.5t32 50.5t11.5 63t-11.5 63.5t-32 51t-48.5 34t-60 12.5zM473 761l-128 -193h-78l79 212h127v-19z" />
    <glyph glyph-name="ocircumflex" unicode="&#xf4;" horiz-adv-x="609" 
d="M305 502q54 0 101 -20t82.5 -54.5t56 -81t20.5 -100.5t-20.5 -101t-56 -81.5t-83 -54.5t-101.5 -20t-101 20t-82.5 54.5t-55.5 81.5t-20 101t20 100.5t55.5 81t83 54.5t101.5 20zM305 406q-33 0 -61.5 -12.5t-48.5 -34t-31 -51t-11 -63.5t11 -63t31.5 -50.5t48 -33.5
t60.5 -12t61 12t48.5 33.5t32 50.5t11.5 63t-11.5 63.5t-32 51t-48.5 34t-60 12.5zM474 568h-79l-90 109l-90 -109h-79l135 212h68z" />
    <glyph glyph-name="otilde" unicode="&#xf5;" horiz-adv-x="609" 
d="M305 502q54 0 101 -20t82.5 -54.5t56 -81t20.5 -100.5t-20.5 -101t-56 -81.5t-83 -54.5t-101.5 -20t-101 20t-82.5 54.5t-55.5 81.5t-20 101t20 100.5t55.5 81t83 54.5t101.5 20zM305 406q-33 0 -61.5 -12.5t-48.5 -34t-31 -51t-11 -63.5t11 -63t31.5 -50.5t48 -33.5
t60.5 -12t61 12t48.5 33.5t32 50.5t11.5 63t-11.5 63.5t-32 51t-48.5 34t-60 12.5zM229 748q38 0 70 -24l27 -20q11 -9 20.5 -14.5t20.5 -5.5q15 0 21.5 11t6.5 27v14h83q1 -8 1 -14.5v-14.5q0 -53 -27 -86.5t-72 -33.5q-35 0 -70 24l-26 20q-12 9 -21 15t-21 6
q-15 0 -21.5 -10.5t-6.5 -27.5v-14h-82q-2 8 -2 14.5v14.5q0 54 27.5 86.5t71.5 32.5z" />
    <glyph glyph-name="odieresis" unicode="&#xf6;" horiz-adv-x="609" 
d="M305 502q54 0 101 -20t82.5 -54.5t56 -81t20.5 -100.5t-20.5 -101t-56 -81.5t-83 -54.5t-101.5 -20t-101 20t-82.5 54.5t-55.5 81.5t-20 101t20 100.5t55.5 81t83 54.5t101.5 20zM305 406q-33 0 -61.5 -12.5t-48.5 -34t-31 -51t-11 -63.5t11 -63t31.5 -50.5t48 -33.5
t60.5 -12t61 12t48.5 33.5t32 50.5t11.5 63t-11.5 63.5t-32 51t-48.5 34t-60 12.5zM417 740q28 0 47.5 -18.5t19.5 -47.5q0 -26 -19.5 -45.5t-47.5 -19.5q-26 0 -47 19.5t-21 45.5q0 29 21 47.5t47 18.5zM192 740q28 0 47.5 -18.5t19.5 -47.5q0 -26 -19.5 -45.5t-47.5 -19.5
q-26 0 -47 19.5t-21 45.5q0 29 21 47.5t47 18.5z" />
    <glyph glyph-name="divide" unicode="&#xf7;" 
d="M278 564q28 0 48 -18.5t20 -46.5q0 -27 -20 -46t-48 -19q-29 0 -48.5 19t-19.5 46q0 28 19.5 46.5t48.5 18.5zM278 199q28 0 48 -18.5t20 -46.5t-20 -46.5t-48 -18.5q-29 0 -48.5 18.5t-19.5 46.5t19.5 46.5t48.5 18.5zM508 272h-458v91h458v-91z" />
    <glyph glyph-name="oslash" unicode="&#xf8;" horiz-adv-x="617" 
d="M577 450l-56 -57q22 -31 34.5 -68.5t12.5 -79.5q0 -54 -20.5 -100.5t-56 -81t-83 -54.5t-101.5 -20q-42 0 -78.5 11.5t-68.5 32.5l-56 -57l-64 64l55 55q-23 32 -35 70t-12 80q0 54 20 101t55.5 81.5t83 54.5t101.5 20q42 0 79 -12t69 -33l57 56zM308 411
q-35 0 -64.5 -12.5t-50.5 -34.5t-33 -52.5t-12 -66.5q0 -48 20 -86l227 227q-38 25 -87 25zM468 245q0 47 -20 85l-228 -227q37 -25 87 -25q34 0 63.5 12.5t51.5 35t34 53t12 66.5z" />
    <glyph glyph-name="ugrave" unicode="&#xf9;" horiz-adv-x="570" 
d="M500 206q0 -50 -16.5 -90t-45 -68.5t-68 -43.5t-84.5 -15q-46 0 -85 15t-68 43.5t-45.5 68.5t-16.5 90v285h105v-293q0 -52 32 -82t78 -30q45 0 76.5 30t31.5 82v293h106v-285zM324 568h-78l-128 193v19h127z" />
    <glyph glyph-name="uacute" unicode="&#xfa;" horiz-adv-x="570" 
d="M500 206q0 -50 -16.5 -90t-45 -68.5t-68 -43.5t-84.5 -15q-46 0 -85 15t-68 43.5t-45.5 68.5t-16.5 90v285h105v-293q0 -52 32 -82t78 -30q45 0 76.5 30t31.5 82v293h106v-285zM453 761l-128 -193h-78l79 212h127v-19z" />
    <glyph glyph-name="ucircumflex" unicode="&#xfb;" horiz-adv-x="570" 
d="M500 206q0 -50 -16.5 -90t-45 -68.5t-68 -43.5t-84.5 -15q-46 0 -85 15t-68 43.5t-45.5 68.5t-16.5 90v285h105v-293q0 -52 32 -82t78 -30q45 0 76.5 30t31.5 82v293h106v-285zM454 568h-79l-90 109l-90 -109h-79l135 212h68z" />
    <glyph glyph-name="udieresis" unicode="&#xfc;" horiz-adv-x="570" 
d="M500 206q0 -50 -16.5 -90t-45 -68.5t-68 -43.5t-84.5 -15q-46 0 -85 15t-68 43.5t-45.5 68.5t-16.5 90v285h105v-293q0 -52 32 -82t78 -30q45 0 76.5 30t31.5 82v293h106v-285zM397 740q28 0 47.5 -18.5t19.5 -47.5q0 -26 -19.5 -45.5t-47.5 -19.5q-26 0 -47 19.5
t-21 45.5q0 29 21 47.5t47 18.5zM172 740q28 0 47.5 -18.5t19.5 -47.5q0 -26 -19.5 -45.5t-47.5 -19.5q-26 0 -47 19.5t-21 45.5q0 29 21 47.5t47 18.5z" />
    <glyph glyph-name="yacute" unicode="&#xfd;" horiz-adv-x="549" 
d="M291 -56q-31 -71 -74.5 -103t-106.5 -32q-20 0 -41 2.5t-40 7.5v89q18 -2 32 -3t27 -1q34 0 60.5 14t46.5 58l20 46l-196 469h113l140 -358l146 358h112zM441 761l-128 -193h-78l79 212h127v-19z" />
    <glyph glyph-name="thorn" unicode="&#xfe;" horiz-adv-x="631" 
d="M181 431q28 34 70.5 52.5t93.5 18.5q52 0 96.5 -19.5t76.5 -54t50 -81t18 -101.5t-18 -102t-50.5 -81.5t-76.5 -54t-96 -19.5q-51 0 -93.5 18t-70.5 52v-239h-105v930h105v-319zM328 406q-27 0 -53.5 -9.5t-47.5 -29t-34 -49.5t-13 -72t12.5 -72t33.5 -50t47.5 -29.5
t54.5 -9.5q31 0 58.5 11.5t48 32.5t32 50.5t11.5 65.5t-11.5 65.5t-31.5 50.5t-47.5 33t-59.5 12z" />
    <glyph glyph-name="ydieresis" unicode="&#xff;" horiz-adv-x="549" 
d="M291 -56q-31 -71 -74.5 -103t-106.5 -32q-20 0 -41 2.5t-40 7.5v89q18 -2 32 -3t27 -1q34 0 60.5 14t46.5 58l20 46l-196 469h113l140 -358l146 358h112zM385 740q28 0 47.5 -18.5t19.5 -47.5q0 -26 -19.5 -45.5t-47.5 -19.5q-26 0 -47 19.5t-21 45.5q0 29 21 47.5
t47 18.5zM160 740q28 0 47.5 -18.5t19.5 -47.5q0 -26 -19.5 -45.5t-47.5 -19.5q-26 0 -47 19.5t-21 45.5q0 29 21 47.5t47 18.5z" />
    <glyph glyph-name="Amacron" unicode="&#x100;" horiz-adv-x="662" 
d="M640 0h-114l-47 110h-297l-47 -110h-113l291 671h36zM220 201h220l-109 273zM485 762h-308v85h308v-85z" />
    <glyph glyph-name="amacron" unicode="&#x101;" horiz-adv-x="536" 
d="M264 502q45 0 82 -13t63.5 -38.5t41.5 -64t15 -89.5v-297h-98v55q-26 -31 -66 -48.5t-91 -17.5q-39 0 -70.5 10t-54 29t-34.5 45t-12 58q0 65 49 102.5t132 37.5h139v32q0 51 -27 78t-78 27q-43 0 -75 -19t-62 -54l-60 62q38 54 91 79.5t115 25.5zM233 70q26 0 49 8.5
t40.5 24t27.5 37t10 46.5v9h-126q-42 0 -64.5 -15t-22.5 -45q0 -32 25 -48.5t61 -16.5zM409 632h-288v84h288v-84z" />
    <glyph glyph-name="Abreve" unicode="&#x102;" horiz-adv-x="662" 
d="M640 0h-114l-47 110h-297l-47 -110h-113l291 671h36zM220 201h220l-109 273zM493 897q0 -35 -12 -64.5t-33.5 -51.5t-51 -34t-65.5 -12t-65.5 12t-51 34t-33.5 51.5t-12 64.5h85q0 -38 22 -60t55 -22q34 0 55.5 22t21.5 60h85z" />
    <glyph glyph-name="abreve" unicode="&#x103;" horiz-adv-x="536" 
d="M264 502q45 0 82 -13t63.5 -38.5t41.5 -64t15 -89.5v-297h-98v55q-26 -31 -66 -48.5t-91 -17.5q-39 0 -70.5 10t-54 29t-34.5 45t-12 58q0 65 49 102.5t132 37.5h139v32q0 51 -27 78t-78 27q-43 0 -75 -19t-62 -54l-60 62q38 54 91 79.5t115 25.5zM233 70q26 0 49 8.5
t40.5 24t27.5 37t10 46.5v9h-126q-42 0 -64.5 -15t-22.5 -45q0 -32 25 -48.5t61 -16.5zM427 742q0 -35 -12 -64.5t-33.5 -51.5t-51 -34t-65.5 -12t-65.5 12t-51 34t-33.5 51.5t-12 64.5h85q0 -38 22 -60t55 -22q34 0 56 22t22 60h84z" />
    <glyph glyph-name="Aogonek" unicode="&#x104;" horiz-adv-x="662" 
d="M640 0h-114l-47 110h-297l-47 -110h-113l291 671h36zM220 201h220l-109 273zM641 0l-45 -29q-20 -13 -32.5 -23t-12.5 -27q0 -33 42 -33q10 0 22.5 2l25.5 4v-73q-15 -5 -36.5 -8.5t-42.5 -3.5q-53 0 -83.5 25.5t-30.5 67.5q0 21 8.5 38.5t26.5 34.5t46.5 33.5t68.5 35.5
z" />
    <glyph glyph-name="aogonek" unicode="&#x105;" horiz-adv-x="536" 
d="M264 502q45 0 82 -13t63.5 -38.5t41.5 -64t15 -89.5v-297h-98v55q-26 -31 -66 -48.5t-91 -17.5q-39 0 -70.5 10t-54 29t-34.5 45t-12 58q0 65 49 102.5t132 37.5h139v32q0 51 -27 78t-78 27q-43 0 -75 -19t-62 -54l-60 62q38 54 91 79.5t115 25.5zM233 70q26 0 49 8.5
t40.5 24t27.5 37t10 46.5v9h-126q-42 0 -64.5 -15t-22.5 -45q0 -32 25 -48.5t61 -16.5zM467 0l-45 -29q-20 -13 -32.5 -23t-12.5 -27q0 -33 42 -33q10 0 22.5 2l25.5 4v-73q-15 -5 -36.5 -8.5t-42.5 -3.5q-53 0 -83.5 25.5t-30.5 67.5q0 21 8.5 38.5t26.5 34.5t46.5 33.5
t68.5 35.5z" />
    <glyph glyph-name="Cacute" unicode="&#x106;" horiz-adv-x="717" 
d="M390 671q93 0 166.5 -41.5t116.5 -110.5l-80 -59q-35 54 -86 84t-117 30q-51 0 -94.5 -18.5t-75.5 -51t-50 -77t-18 -97.5t18 -97.5t50 -77t75.5 -51t94.5 -18.5q66 0 117 30t86 84l80 -59q-42 -69 -116 -110.5t-167 -41.5q-73 0 -136 26t-110 71.5t-74 108t-27 135.5
q0 72 27 134.5t74 108.5t110 72t136 26zM556 891l-128 -167h-78l79 186h127v-19z" />
    <glyph glyph-name="cacute" unicode="&#x107;" horiz-adv-x="552" 
d="M305 502q70 0 123 -31t85 -83l-74 -58q-25 34 -56.5 54.5t-76.5 20.5q-33 0 -61.5 -12.5t-48.5 -34t-31.5 -50.5t-11.5 -62q0 -34 11.5 -63.5t31.5 -51t48.5 -33.5t61.5 -12q45 0 76 20t56 54l74 -57q-32 -52 -85 -83t-122 -31q-54 0 -101.5 20t-83 54.5t-55.5 81.5
t-20 101t20 100.5t55.5 81t83 54.5t101.5 20zM471 761l-128 -193h-78l79 212h127v-19z" />
    <glyph glyph-name="Ccircumflex" unicode="&#x108;" horiz-adv-x="717" 
d="M390 671q93 0 166.5 -41.5t116.5 -110.5l-80 -59q-35 54 -86 84t-117 30q-51 0 -94.5 -18.5t-75.5 -51t-50 -77t-18 -97.5t18 -97.5t50 -77t75.5 -51t94.5 -18.5q66 0 117 30t86 84l80 -59q-42 -69 -116 -110.5t-167 -41.5q-73 0 -136 26t-110 71.5t-74 108t-27 135.5
q0 72 27 134.5t74 108.5t110 72t136 26zM572 724h-81l-101 93l-100 -93h-81l148 186h67z" />
    <glyph glyph-name="ccircumflex" unicode="&#x109;" horiz-adv-x="552" 
d="M305 502q70 0 123 -31t85 -83l-74 -58q-25 34 -56.5 54.5t-76.5 20.5q-33 0 -61.5 -12.5t-48.5 -34t-31.5 -50.5t-11.5 -62q0 -34 11.5 -63.5t31.5 -51t48.5 -33.5t61.5 -12q45 0 76 20t56 54l74 -57q-32 -52 -85 -83t-122 -31q-54 0 -101.5 20t-83 54.5t-55.5 81.5
t-20 101t20 100.5t55.5 81t83 54.5t101.5 20zM472 568h-79l-90 109l-90 -109h-79l135 212h68z" />
    <glyph glyph-name="Cdotaccent" unicode="&#x10a;" horiz-adv-x="717" 
d="M390 671q93 0 166.5 -41.5t116.5 -110.5l-80 -59q-35 54 -86 84t-117 30q-51 0 -94.5 -18.5t-75.5 -51t-50 -77t-18 -97.5t18 -97.5t50 -77t75.5 -51t94.5 -18.5q66 0 117 30t86 84l80 -59q-42 -69 -116 -110.5t-167 -41.5q-73 0 -136 26t-110 71.5t-74 108t-27 135.5
q0 72 27 134.5t74 108.5t110 72t136 26zM391 882q29 0 50.5 -20t21.5 -50q0 -29 -21.5 -49t-50.5 -20q-30 0 -51 20t-21 49q0 30 21 50t51 20z" />
    <glyph glyph-name="cdotaccent" unicode="&#x10b;" horiz-adv-x="552" 
d="M305 502q70 0 123 -31t85 -83l-74 -58q-25 34 -56.5 54.5t-76.5 20.5q-33 0 -61.5 -12.5t-48.5 -34t-31.5 -50.5t-11.5 -62q0 -34 11.5 -63.5t31.5 -51t48.5 -33.5t61.5 -12q45 0 76 20t56 54l74 -57q-32 -52 -85 -83t-122 -31q-54 0 -101.5 20t-83 54.5t-55.5 81.5
t-20 101t20 100.5t55.5 81t83 54.5t101.5 20zM303 744q29 0 50.5 -20.5t21.5 -49.5t-21.5 -49t-50.5 -20q-30 0 -51 20t-21 49t21 49.5t51 20.5z" />
    <glyph glyph-name="Ccaron" unicode="&#x10c;" horiz-adv-x="717" 
d="M390 671q93 0 166.5 -41.5t116.5 -110.5l-80 -59q-35 54 -86 84t-117 30q-51 0 -94.5 -18.5t-75.5 -51t-50 -77t-18 -97.5t18 -97.5t50 -77t75.5 -51t94.5 -18.5q66 0 117 30t86 84l80 -59q-42 -69 -116 -110.5t-167 -41.5q-73 0 -136 26t-110 71.5t-74 108t-27 135.5
q0 72 27 134.5t74 108.5t110 72t136 26zM424 724h-67l-148 186h81l100 -94l101 94h81z" />
    <glyph glyph-name="ccaron" unicode="&#x10d;" horiz-adv-x="552" 
d="M305 502q70 0 123 -31t85 -83l-74 -58q-25 34 -56.5 54.5t-76.5 20.5q-33 0 -61.5 -12.5t-48.5 -34t-31.5 -50.5t-11.5 -62q0 -34 11.5 -63.5t31.5 -51t48.5 -33.5t61.5 -12q45 0 76 20t56 54l74 -57q-32 -52 -85 -83t-122 -31q-54 0 -101.5 20t-83 54.5t-55.5 81.5
t-20 101t20 100.5t55.5 81t83 54.5t101.5 20zM337 568h-68l-135 212h79l90 -109l90 109h79z" />
    <glyph glyph-name="Dcaron" unicode="&#x10e;" horiz-adv-x="692" 
d="M289 660q82 0 148.5 -24t113.5 -67.5t72.5 -104t25.5 -133.5q0 -72 -25.5 -132.5t-72.5 -105t-113.5 -69t-148.5 -24.5h-206v660h206zM189 564v-469h99q58 0 105 17.5t79 49t49.5 75t17.5 94.5q0 53 -17.5 96t-49.5 73.5t-79 47t-105 16.5h-99zM315 724h-67l-148 186h81
l100 -94l101 94h81z" />
    <glyph glyph-name="dcaron" unicode="&#x10f;" horiz-adv-x="631" 
d="M555 0h-98v69q-28 -38 -72.5 -59t-98.5 -21q-53 0 -97 19.5t-76 54t-50 81t-18 101.5t18 102t50 81.5t76 54t97 19.5q51 0 93.5 -19t70.5 -53v320h105v-750zM302 406q-32 0 -59 -11.5t-47.5 -32.5t-32 -50.5t-11.5 -65.5t11.5 -65.5t31.5 -50.5t47.5 -33t59.5 -12
q27 0 53.5 9t47.5 28.5t34 50t13 72.5t-12.5 72t-33.5 50t-47.5 29.5t-54.5 9.5zM725 542h-76l9 208h111z" />
    <glyph glyph-name="Dcroat" unicode="&#x110;" horiz-adv-x="692" 
d="M289 660q82 0 148.5 -24t113.5 -67.5t72.5 -104t25.5 -133.5q0 -72 -25.5 -132.5t-72.5 -105t-113.5 -69t-148.5 -24.5h-206v265h-88v90h88v305h206zM189 564v-209h120v-90h-120v-170h99q58 0 105 17.5t79 49t49.5 75t17.5 94.5q0 53 -17.5 96t-49.5 73.5t-79 47
t-105 16.5h-99z" />
    <glyph glyph-name="dcroat" unicode="&#x111;" horiz-adv-x="635" 
d="M634 567h-80v-567h-98v70q-28 -38 -74 -59.5t-101 -21.5q-50 0 -93.5 18.5t-75.5 51t-50 77.5t-18 98t18 98.5t50 78.5t75 51.5t94 18.5q52 0 95.5 -19.5t72.5 -54.5v160h-212v86h212v97h105v-97h80v-86zM302 389q-32 0 -59 -11t-47.5 -31.5t-32 -49t-11.5 -63.5
t11.5 -63t31.5 -48.5t47.5 -31.5t59.5 -11q27 0 53.5 8.5t47.5 27.5t34 48t13 70t-12.5 70.5t-33.5 48t-47.5 27.5t-54.5 9z" />
    <glyph glyph-name="Emacron" unicode="&#x112;" horiz-adv-x="569" 
d="M517 565h-328v-169h246v-92h-246v-209h340v-95h-446v660h434v-95zM453 762h-308v85h308v-85z" />
    <glyph glyph-name="emacron" unicode="&#x113;" horiz-adv-x="570" 
d="M299 502q49 0 91 -17t72 -47t47 -71.5t17 -89.5q0 -20 -2.5 -38t-5.5 -28h-366q11 -61 54 -95t106 -34q43 0 78 15.5t65 42.5l51 -72q-39 -37 -88 -58t-108 -21q-57 0 -106 19.5t-84 54t-55 81.5t-20 101t19.5 101t54 81.5t80.5 54.5t100 20zM296 413q-54 0 -92 -32.5
t-50 -87.5h267q-2 58 -38.5 89t-86.5 31zM441 632h-288v84h288v-84z" />
    <glyph glyph-name="Ebreve" unicode="&#x114;" horiz-adv-x="569" 
d="M517 565h-328v-169h246v-92h-246v-209h340v-95h-446v660h434v-95zM461 897q0 -35 -12 -64.5t-33.5 -51.5t-51 -34t-65.5 -12t-65.5 12t-51 34t-33.5 51.5t-12 64.5h85q0 -38 22 -60t55 -22q34 0 55.5 22t21.5 60h85z" />
    <glyph glyph-name="ebreve" unicode="&#x115;" horiz-adv-x="570" 
d="M299 502q49 0 91 -17t72 -47t47 -71.5t17 -89.5q0 -20 -2.5 -38t-5.5 -28h-366q11 -61 54 -95t106 -34q43 0 78 15.5t65 42.5l51 -72q-39 -37 -88 -58t-108 -21q-57 0 -106 19.5t-84 54t-55 81.5t-20 101t19.5 101t54 81.5t80.5 54.5t100 20zM296 413q-54 0 -92 -32.5
t-50 -87.5h267q-2 58 -38.5 89t-86.5 31zM459 742q0 -35 -12 -64.5t-33.5 -51.5t-51 -34t-65.5 -12t-65.5 12t-51 34t-33.5 51.5t-12 64.5h85q0 -38 22 -60t55 -22q34 0 56 22t22 60h84z" />
    <glyph glyph-name="Edotaccent" unicode="&#x116;" horiz-adv-x="569" 
d="M517 565h-328v-169h246v-92h-246v-209h340v-95h-446v660h434v-95zM299 882q29 0 50.5 -20t21.5 -50q0 -29 -21.5 -49t-50.5 -20q-30 0 -51 20t-21 49q0 30 21 50t51 20z" />
    <glyph glyph-name="edotaccent" unicode="&#x117;" horiz-adv-x="570" 
d="M299 502q49 0 91 -17t72 -47t47 -71.5t17 -89.5q0 -20 -2.5 -38t-5.5 -28h-366q11 -61 54 -95t106 -34q43 0 78 15.5t65 42.5l51 -72q-39 -37 -88 -58t-108 -21q-57 0 -106 19.5t-84 54t-55 81.5t-20 101t19.5 101t54 81.5t80.5 54.5t100 20zM296 413q-54 0 -92 -32.5
t-50 -87.5h267q-2 58 -38.5 89t-86.5 31zM297 744q29 0 50.5 -20.5t21.5 -49.5t-21.5 -49t-50.5 -20q-30 0 -51 20t-21 49t21 49.5t51 20.5z" />
    <glyph glyph-name="Eogonek" unicode="&#x118;" horiz-adv-x="569" 
d="M517 565h-328v-169h246v-92h-246v-209h340v-95h-446v660h434v-95zM530 0l-45 -29q-20 -13 -32.5 -23t-12.5 -27q0 -33 42 -33q10 0 22.5 2l25.5 4v-73q-15 -5 -36.5 -8.5t-42.5 -3.5q-53 0 -83.5 25.5t-30.5 67.5q0 21 8.5 38.5t26.5 34.5t46.5 33.5t68.5 35.5z" />
    <glyph glyph-name="eogonek" unicode="&#x119;" horiz-adv-x="570" 
d="M299 502q49 0 91 -17t72 -47t47 -71.5t17 -89.5q0 -20 -2.5 -38t-5.5 -28h-366q11 -61 54 -95t106 -34q43 0 79 15.5t66 43.5l48 -72q-22 -23 -46 -39l-55 -36q-23 -16 -39 -32.5t-16 -37.5q0 -37 44 -37q10 0 22.5 2t25.5 5v-71q-13 -5 -34 -9.5t-44 -4.5
q-53 0 -83.5 25.5t-30.5 67.5q0 49 48 87q-53 1 -98.5 20.5t-80 54t-54 81t-19.5 100.5t19.5 101t54 81.5t81 54.5t99.5 20zM296 413q-54 0 -92 -32.5t-50 -87.5h267q-2 58 -38.5 89t-86.5 31z" />
    <glyph glyph-name="Ecaron" unicode="&#x11a;" horiz-adv-x="569" 
d="M517 565h-328v-169h246v-92h-246v-209h340v-95h-446v660h434v-95zM332 724h-67l-148 186h81l100 -94l101 94h81z" />
    <glyph glyph-name="ecaron" unicode="&#x11b;" horiz-adv-x="570" 
d="M299 502q49 0 91 -17t72 -47t47 -71.5t17 -89.5q0 -20 -2.5 -38t-5.5 -28h-366q11 -61 54 -95t106 -34q43 0 78 15.5t65 42.5l51 -72q-39 -37 -88 -58t-108 -21q-57 0 -106 19.5t-84 54t-55 81.5t-20 101t19.5 101t54 81.5t80.5 54.5t100 20zM296 413q-54 0 -92 -32.5
t-50 -87.5h267q-2 58 -38.5 89t-86.5 31zM331 568h-68l-135 212h79l90 -109l90 109h79z" />
    <glyph glyph-name="Gcircumflex" unicode="&#x11c;" horiz-adv-x="746" 
d="M391 671q87 0 156.5 -36t116.5 -102l-77 -63q-35 49 -84 76.5t-113 27.5q-53 0 -96.5 -18.5t-75 -51t-49 -77t-17.5 -96.5q0 -53 18 -98.5t50 -78.5t76.5 -51.5t98.5 -18.5q67 0 117.5 27.5t80.5 72.5v71h-204v94h310v-186q-22 -39 -53.5 -71t-71 -55t-86 -35.5
t-97.5 -12.5q-74 0 -137.5 26t-110 72t-73.5 108.5t-27 134.5t27 134.5t73.5 108.5t110 72t137.5 26zM573 724h-81l-101 93l-100 -93h-81l148 186h67z" />
    <glyph glyph-name="gcircumflex" unicode="&#x11d;" horiz-adv-x="634" 
d="M286 502q56 0 101 -21.5t73 -59.5v70h98v-440q0 -59 -18 -104.5t-50.5 -76t-77.5 -46t-100 -15.5q-79 0 -138 28t-98 65l57 73q37 -29 78 -49.5t95 -20.5q66 0 106.5 34.5t40.5 105.5v35q-29 -34 -72.5 -52t-94.5 -18t-94.5 18t-75.5 50.5t-50 78t-18 99.5t18 99.5t50 78
t75.5 50.5t94.5 18zM306 408q-32 0 -59 -11t-47.5 -30.5t-32 -48t-11.5 -62.5q0 -35 11.5 -63.5t32 -48.5t47.5 -31t59 -11q28 0 54.5 9t47.5 28t33.5 48.5t12.5 69.5t-13 68.5t-34 47t-47.5 27t-53.5 8.5zM481 568h-79l-90 109l-90 -109h-79l135 212h68z" />
    <glyph glyph-name="Gbreve" unicode="&#x11e;" horiz-adv-x="746" 
d="M391 671q87 0 156.5 -36t116.5 -102l-77 -63q-35 49 -84 76.5t-113 27.5q-53 0 -96.5 -18.5t-75 -51t-49 -77t-17.5 -96.5q0 -53 18 -98.5t50 -78.5t76.5 -51.5t98.5 -18.5q67 0 117.5 27.5t80.5 72.5v71h-204v94h310v-186q-22 -39 -53.5 -71t-71 -55t-86 -35.5
t-97.5 -12.5q-74 0 -137.5 26t-110 72t-73.5 108.5t-27 134.5t27 134.5t73.5 108.5t110 72t137.5 26zM554 897q0 -35 -12 -64.5t-33.5 -51.5t-51 -34t-65.5 -12t-65.5 12t-51 34t-33.5 51.5t-12 64.5h85q0 -38 22 -60t55 -22q34 0 55.5 22t21.5 60h85z" />
    <glyph glyph-name="gbreve" unicode="&#x11f;" horiz-adv-x="634" 
d="M286 502q56 0 101 -21.5t73 -59.5v70h98v-440q0 -59 -18 -104.5t-50.5 -76t-77.5 -46t-100 -15.5q-79 0 -138 28t-98 65l57 73q37 -29 78 -49.5t95 -20.5q66 0 106.5 34.5t40.5 105.5v35q-29 -34 -72.5 -52t-94.5 -18t-94.5 18t-75.5 50.5t-50 78t-18 99.5t18 99.5t50 78
t75.5 50.5t94.5 18zM306 408q-32 0 -59 -11t-47.5 -30.5t-32 -48t-11.5 -62.5q0 -35 11.5 -63.5t32 -48.5t47.5 -31t59 -11q28 0 54.5 9t47.5 28t33.5 48.5t12.5 69.5t-13 68.5t-34 47t-47.5 27t-53.5 8.5zM474 742q0 -35 -12 -64.5t-33.5 -51.5t-51 -34t-65.5 -12t-65.5 12
t-51 34t-33.5 51.5t-12 64.5h85q0 -38 22 -60t55 -22q34 0 56 22t22 60h84z" />
    <glyph glyph-name="Gdotaccent" unicode="&#x120;" horiz-adv-x="746" 
d="M391 671q87 0 156.5 -36t116.5 -102l-77 -63q-35 49 -84 76.5t-113 27.5q-53 0 -96.5 -18.5t-75 -51t-49 -77t-17.5 -96.5q0 -53 18 -98.5t50 -78.5t76.5 -51.5t98.5 -18.5q67 0 117.5 27.5t80.5 72.5v71h-204v94h310v-186q-22 -39 -53.5 -71t-71 -55t-86 -35.5
t-97.5 -12.5q-74 0 -137.5 26t-110 72t-73.5 108.5t-27 134.5t27 134.5t73.5 108.5t110 72t137.5 26zM392 882q29 0 50.5 -20t21.5 -50q0 -29 -21.5 -49t-50.5 -20q-30 0 -51 20t-21 49q0 30 21 50t51 20z" />
    <glyph glyph-name="gdotaccent" unicode="&#x121;" horiz-adv-x="634" 
d="M286 502q56 0 101 -21.5t73 -59.5v70h98v-440q0 -59 -18 -104.5t-50.5 -76t-77.5 -46t-100 -15.5q-79 0 -138 28t-98 65l57 73q37 -29 78 -49.5t95 -20.5q66 0 106.5 34.5t40.5 105.5v35q-29 -34 -72.5 -52t-94.5 -18t-94.5 18t-75.5 50.5t-50 78t-18 99.5t18 99.5t50 78
t75.5 50.5t94.5 18zM306 408q-32 0 -59 -11t-47.5 -30.5t-32 -48t-11.5 -62.5q0 -35 11.5 -63.5t32 -48.5t47.5 -31t59 -11q28 0 54.5 9t47.5 28t33.5 48.5t12.5 69.5t-13 68.5t-34 47t-47.5 27t-53.5 8.5zM312 744q29 0 50.5 -20.5t21.5 -49.5t-21.5 -49t-50.5 -20
q-30 0 -51 20t-21 49t21 49.5t51 20.5z" />
    <glyph glyph-name="Gcommaaccent" unicode="&#x122;" horiz-adv-x="746" 
d="M391 671q87 0 156.5 -36t116.5 -102l-77 -63q-35 49 -84 76.5t-113 27.5q-53 0 -96.5 -18.5t-75 -51t-49 -77t-17.5 -96.5q0 -53 18 -98.5t50 -78.5t76.5 -51.5t98.5 -18.5q67 0 117.5 27.5t80.5 72.5v71h-204v94h310v-186q-22 -39 -53.5 -71t-71 -55t-86 -35.5
t-97.5 -12.5q-74 0 -137.5 26t-110 72t-73.5 108.5t-27 134.5t27 134.5t73.5 108.5t110 72t137.5 26zM416 -220h-81l6 172h101z" />
    <glyph glyph-name="gcommaaccent" unicode="&#x123;" horiz-adv-x="634" 
d="M286 502q56 0 101 -21.5t73 -59.5v70h98v-440q0 -59 -18 -104.5t-50.5 -76t-77.5 -46t-100 -15.5q-79 0 -138 28t-98 65l57 73q37 -29 78 -49.5t95 -20.5q66 0 106.5 34.5t40.5 105.5v35q-29 -34 -72.5 -52t-94.5 -18t-94.5 18t-75.5 50.5t-50 78t-18 99.5t18 99.5t50 78
t75.5 50.5t94.5 18zM306 408q-32 0 -59 -11t-47.5 -30.5t-32 -48t-11.5 -62.5q0 -35 11.5 -63.5t32 -48.5t47.5 -31t59 -11q28 0 54.5 9t47.5 28t33.5 48.5t12.5 69.5t-13 68.5t-34 47t-47.5 27t-53.5 8.5zM361 568h-101l33 212h78z" />
    <glyph glyph-name="Hcircumflex" unicode="&#x124;" horiz-adv-x="711" 
d="M627 0h-106v302h-332v-302h-106v660h106v-263h332v263h106v-660zM536 724h-81l-101 93l-100 -93h-81l148 186h67z" />
    <glyph glyph-name="hcircumflex" unicode="&#x125;" horiz-adv-x="575" 
d="M181 441q25 29 60.5 45t81.5 16q42 0 76 -14.5t57.5 -40t36 -61.5t12.5 -79v-307h-106v292q0 51 -28.5 82.5t-77.5 31.5t-80.5 -31.5t-31.5 -82.5v-292h-105v750h105v-309zM363 814h-81l-101 93l-100 -93h-81l148 186h67z" />
    <glyph glyph-name="Hbar" unicode="&#x126;" horiz-adv-x="725" 
d="M635 537h96v-89h-96v-448h-106v234h-332v-234h-106v448h-96v89h96v123h106v-123h332v123h106v-123zM196 448v-121h332v121h-332z" />
    <glyph glyph-name="hbar" unicode="&#x127;" horiz-adv-x="581" 
d="M383 565h-196v-144q25 29 60.5 44.5t80.5 15.5q42 0 76 -14.5t58 -40t36.5 -62t12.5 -79.5v-285h-106v272q0 50 -28.5 81t-77.5 31q-50 0 -81 -31t-31 -81v-272h-105v565h-81v90h81v95h105v-95h196v-90z" />
    <glyph glyph-name="Itilde" unicode="&#x128;" horiz-adv-x="272" 
d="M189 0h-106v660h106v-660zM57 890q36 0 72 -22l33 -20l22 -12.5t22 -5.5q14 0 21 10t7 25v15h84q1 -7 1 -14v-15q0 -53 -28 -85t-71 -32q-19 0 -37.5 6t-37.5 17l-31 18q-12 7 -22.5 12.5t-21.5 5.5q-14 0 -21 -10.5t-7 -25.5v-13h-84q-1 7 -1.5 14t-0.5 15
q0 52 28.5 84.5t72.5 32.5z" />
    <glyph glyph-name="itilde" unicode="&#x129;" horiz-adv-x="257" 
d="M181 0h-105v491h105v-491zM63 748q20 0 36 -7t31 -20l19 -18q11 -10 18.5 -14.5t15.5 -4.5q14 0 20 11t6 27v14h82q1 -5 1.5 -13t0.5 -16q0 -52 -26 -86t-69 -34q-20 0 -35.5 7.5t-31.5 21.5l-19 16q-11 11 -18.5 15.5t-15.5 4.5q-15 0 -21 -11.5t-6 -26.5v-14h-83
q-1 5 -1.5 12.5t-0.5 15.5q0 53 26 86.5t71 33.5z" />
    <glyph glyph-name="Imacron" unicode="&#x12a;" horiz-adv-x="272" 
d="M189 0h-106v660h106v-660zM292 762h-308v85h308v-85z" />
    <glyph glyph-name="imacron" unicode="&#x12b;" horiz-adv-x="257" 
d="M181 0h-105v491h105v-491zM249 632h-238v85h238v-85z" />
    <glyph glyph-name="Ibreve" unicode="&#x12c;" horiz-adv-x="272" 
d="M189 0h-106v660h106v-660zM300 897q0 -35 -12 -64.5t-33.5 -51.5t-51 -34t-65.5 -12t-65.5 12t-51 34t-33.5 51.5t-12 64.5h85q0 -38 22 -60t55 -22q34 0 55.5 22t21.5 60h85z" />
    <glyph glyph-name="ibreve" unicode="&#x12d;" horiz-adv-x="257" 
d="M181 0h-105v491h105v-491zM292 742q0 -35 -12 -64.5t-33.5 -51.5t-51 -34t-65.5 -12t-65.5 12t-51 34t-33.5 51.5t-12 64.5h85q0 -38 22 -60t55 -22q34 0 56 22t22 60h84z" />
    <glyph glyph-name="Iogonek" unicode="&#x12e;" horiz-adv-x="272" 
d="M189 0h-106v660h106v-660zM191 0l-45 -29q-20 -13 -32.5 -23t-12.5 -27q0 -33 42 -33q10 0 22.5 2l25.5 4v-73q-15 -5 -36.5 -8.5t-42.5 -3.5q-53 0 -83.5 25.5t-30.5 67.5q0 21 8.5 38.5t26.5 34.5t46.5 33.5t68.5 35.5z" />
    <glyph glyph-name="iogonek" unicode="&#x12f;" horiz-adv-x="257" 
d="M181 0h-105v491h105v-491zM129 744q29 0 50.5 -20.5t21.5 -49.5t-21.5 -49t-50.5 -20q-30 0 -51 20t-21 49t21 49.5t51 20.5zM183 0l-45 -29q-20 -13 -32.5 -23t-12.5 -27q0 -33 42 -33q10 0 22.5 2l25.5 4v-73q-15 -5 -36.5 -8.5t-42.5 -3.5q-53 0 -83.5 25.5
t-30.5 67.5q0 21 8.5 38.5t26.5 34.5t46.5 33.5t68.5 35.5z" />
    <glyph glyph-name="Idotaccent" unicode="&#x130;" horiz-adv-x="272" 
d="M189 0h-106v660h106v-660zM137 882q29 0 50.5 -20t21.5 -50q0 -29 -21.5 -49t-50.5 -20q-30 0 -51 20t-21 49q0 30 21 50t51 20z" />
    <glyph glyph-name="dotlessi" unicode="&#x131;" horiz-adv-x="257" 
d="M181 0h-105v491h105v-491z" />
    <glyph glyph-name="IJ" unicode="&#x132;" horiz-adv-x="653" 
d="M189 0h-106v660h106v-660zM570 164q0 -91 -50.5 -133t-135.5 -42q-26 0 -48.5 3t-42.5 8v91q20 -2 37.5 -3.5t31.5 -1.5q49 0 75.5 18.5t26.5 70.5v485h106v-496z" />
    <glyph glyph-name="ij" unicode="&#x133;" horiz-adv-x="514" 
d="M438 -20q0 -89 -48.5 -130t-126.5 -41q-40 0 -68 9v89q13 -2 22.5 -2.5t20.5 -0.5q45 0 70 18.5t25 66.5v502h105v-511zM386 744q29 0 50.5 -20.5t21.5 -49.5t-21.5 -49t-50.5 -20q-30 0 -51 20t-21 49t21 49.5t51 20.5zM181 0h-105v491h105v-491zM129 744
q29 0 50.5 -20.5t21.5 -49.5t-21.5 -49t-50.5 -20q-30 0 -51 20t-21 49t21 49.5t51 20.5z" />
    <glyph glyph-name="Jcircumflex" unicode="&#x134;" horiz-adv-x="381" 
d="M298 164q0 -91 -50.5 -133t-135.5 -42q-26 0 -48.5 3t-42.5 8v91q20 -2 37.5 -3.5t31.5 -1.5q49 0 75.5 18.5t26.5 70.5v485h106v-496zM413 724h-81l-101 93l-100 -93h-81l148 186h67z" />
    <glyph glyph-name="jcircumflex" unicode="&#x135;" horiz-adv-x="257" 
d="M181 -20q0 -89 -48.5 -130t-126.5 -41q-40 0 -68 9v89q13 -2 22.5 -2.5t20.5 -0.5q45 0 70 18.5t25 66.5v502h105v-511zM299 568h-79l-90 109l-90 -109h-79l135 212h68z" />
    <glyph glyph-name="Kcommaaccent" unicode="&#x136;" horiz-adv-x="651" 
d="M324 351l305 -351h-131l-306 351l277 309h130zM189 0h-106v660h106v-660zM336 -220h-81l6 172h101z" />
    <glyph glyph-name="kcommaaccent" unicode="&#x137;" horiz-adv-x="533" 
d="M181 0h-105v750h105v-750zM308 274l216 -274h-126l-214 276l192 215h131zM293 -220h-81l6 172h101z" />
    <glyph glyph-name="Lacute" unicode="&#x139;" horiz-adv-x="515" 
d="M189 95h302v-95h-408v660h106v-565zM301 891l-128 -167h-78l79 186h127v-19z" />
    <glyph glyph-name="lacute" unicode="&#x13a;" horiz-adv-x="257" 
d="M181 0h-105v750h105v-750zM294 981l-128 -167h-78l79 186h127v-19z" />
    <glyph glyph-name="Lcommaaccent" unicode="&#x13b;" horiz-adv-x="515" 
d="M189 95h302v-95h-408v660h106v-565zM305 -220h-81l6 172h101z" />
    <glyph glyph-name="lcommaaccent" unicode="&#x13c;" horiz-adv-x="257" 
d="M181 0h-105v750h105v-750zM153 -220h-81l6 172h101z" />
    <glyph glyph-name="Lcaron" unicode="&#x13d;" horiz-adv-x="515" 
d="M189 95h302v-95h-408v660h106v-565zM438 513h-76l9 208h111z" />
    <glyph glyph-name="lcaron" unicode="&#x13e;" horiz-adv-x="257" 
d="M181 0h-105v750h105v-750zM348 542h-76l9 208h111z" />
    <glyph glyph-name="Ldot" unicode="&#x13f;" horiz-adv-x="515" 
d="M189 95h302v-95h-408v660h106v-565zM394 451q32 0 54.5 -22t22.5 -56t-22.5 -55.5t-54.5 -21.5q-33 0 -55.5 21.5t-22.5 55.5t22.5 56t55.5 22z" />
    <glyph glyph-name="ldot" unicode="&#x140;" horiz-adv-x="257" 
d="M181 0h-105v750h105v-750zM307 395q32 0 54.5 -22t22.5 -56t-22.5 -55.5t-54.5 -21.5q-33 0 -55.5 21.5t-22.5 55.5t22.5 56t55.5 22z" />
    <glyph glyph-name="Lslash" unicode="&#x141;" horiz-adv-x="515" 
d="M189 368l211 97v-99l-211 -96v-175h302v-95h-408v229l-75 -33v98l75 33v333h106v-292z" />
    <glyph glyph-name="lslash" unicode="&#x142;" horiz-adv-x="350" 
d="M305 359l-87 -40v-319h-105v280l-74 -34v99l74 34v371h105v-333l87 41v-99z" />
    <glyph glyph-name="Nacute" unicode="&#x143;" horiz-adv-x="711" 
d="M521 214v446h106v-671h-36l-402 457v-446h-106v671h36zM520 891l-128 -167h-78l79 186h127v-19z" />
    <glyph glyph-name="nacute" unicode="&#x144;" horiz-adv-x="575" 
d="M321 502q43 0 77 -14.5t58 -40t36.5 -61.5t12.5 -79v-307h-106v293q0 51 -28.5 82.5t-77.5 31.5t-80.5 -31.5t-31.5 -82.5v-293h-105v491h97v-50q26 29 63.5 45t84.5 16zM451 761l-128 -193h-78l79 212h127v-19z" />
    <glyph glyph-name="Ncommaaccent" unicode="&#x145;" horiz-adv-x="711" 
d="M521 214v446h106v-671h-36l-402 457v-446h-106v671h36zM379 -220h-81l6 172h101z" />
    <glyph glyph-name="ncommaaccent" unicode="&#x146;" horiz-adv-x="575" 
d="M321 502q43 0 77 -14.5t58 -40t36.5 -61.5t12.5 -79v-307h-106v293q0 51 -28.5 82.5t-77.5 31.5t-80.5 -31.5t-31.5 -82.5v-293h-105v491h97v-50q26 29 63.5 45t84.5 16zM315 -220h-81l6 172h101z" />
    <glyph glyph-name="Ncaron" unicode="&#x147;" horiz-adv-x="711" 
d="M521 214v446h106v-671h-36l-402 457v-446h-106v671h36zM388 724h-67l-148 186h81l100 -94l101 94h81z" />
    <glyph glyph-name="ncaron" unicode="&#x148;" horiz-adv-x="575" 
d="M321 502q43 0 77 -14.5t58 -40t36.5 -61.5t12.5 -79v-307h-106v293q0 51 -28.5 82.5t-77.5 31.5t-80.5 -31.5t-31.5 -82.5v-293h-105v491h97v-50q26 29 63.5 45t84.5 16zM317 568h-68l-135 212h79l90 -109l90 109h79z" />
    <glyph glyph-name="Eng" unicode="&#x14a;" horiz-adv-x="711" 
d="M521 175v485h106v-680q0 -89 -48.5 -130t-126.5 -41q-40 0 -68 9v89q13 -2 22.5 -2.5t21.5 -0.5q45 0 69 18.5t24 66.5v30l-332 412v-431h-106v671h36z" />
    <glyph glyph-name="eng" unicode="&#x14b;" horiz-adv-x="575" 
d="M321 502q43 0 77 -14.5t58 -40t36.5 -61.5t12.5 -79v-327q0 -89 -48.5 -130t-126.5 -41q-40 0 -68 9v89q24 -3 42 -3q45 0 70 18t25 67v303q0 51 -28.5 82.5t-77.5 31.5t-80.5 -31.5t-31.5 -82.5v-292h-105v491h97v-50q26 29 63.5 45t84.5 16z" />
    <glyph glyph-name="Omacron" unicode="&#x14c;" horiz-adv-x="780" 
d="M389 671q72 0 135 -26t110 -72t74.5 -108.5t27.5 -134.5q0 -73 -27.5 -135.5t-74.5 -108t-110 -71.5t-135 -26t-135.5 26t-110 72t-73.5 108.5t-27 134.5t27 134.5t74 108.5t110 72t135 26zM390 574q-51 0 -94.5 -18.5t-75 -50.5t-49.5 -77t-18 -97q0 -53 18 -98
t49.5 -77.5t75 -51t94.5 -18.5t94 18.5t75 51t50 77.5t18 98q0 52 -18 96.5t-50 77t-75 51t-94 18.5zM544 762h-308v85h308v-85z" />
    <glyph glyph-name="omacron" unicode="&#x14d;" horiz-adv-x="609" 
d="M305 502q54 0 101 -20t82.5 -54.5t56 -81t20.5 -100.5t-20.5 -101t-56 -81.5t-83 -54.5t-101.5 -20t-101 20t-82.5 54.5t-55.5 81.5t-20 101t20 100.5t55.5 81t83 54.5t101.5 20zM305 406q-33 0 -61.5 -12.5t-48.5 -34t-31 -51t-11 -63.5t11 -63t31.5 -50.5t48 -33.5
t60.5 -12t61 12t48.5 33.5t32 50.5t11.5 63t-11.5 63.5t-32 51t-48.5 34t-60 12.5zM449 632h-288v84h288v-84z" />
    <glyph glyph-name="Obreve" unicode="&#x14e;" horiz-adv-x="780" 
d="M389 671q72 0 135 -26t110 -72t74.5 -108.5t27.5 -134.5q0 -73 -27.5 -135.5t-74.5 -108t-110 -71.5t-135 -26t-135.5 26t-110 72t-73.5 108.5t-27 134.5t27 134.5t74 108.5t110 72t135 26zM390 574q-51 0 -94.5 -18.5t-75 -50.5t-49.5 -77t-18 -97q0 -53 18 -98
t49.5 -77.5t75 -51t94.5 -18.5t94 18.5t75 51t50 77.5t18 98q0 52 -18 96.5t-50 77t-75 51t-94 18.5zM552 897q0 -35 -12 -64.5t-33.5 -51.5t-51 -34t-65.5 -12t-65.5 12t-51 34t-33.5 51.5t-12 64.5h85q0 -38 22 -60t55 -22q34 0 55.5 22t21.5 60h85z" />
    <glyph glyph-name="obreve" unicode="&#x14f;" horiz-adv-x="609" 
d="M305 502q54 0 101 -20t82.5 -54.5t56 -81t20.5 -100.5t-20.5 -101t-56 -81.5t-83 -54.5t-101.5 -20t-101 20t-82.5 54.5t-55.5 81.5t-20 101t20 100.5t55.5 81t83 54.5t101.5 20zM305 406q-33 0 -61.5 -12.5t-48.5 -34t-31 -51t-11 -63.5t11 -63t31.5 -50.5t48 -33.5
t60.5 -12t61 12t48.5 33.5t32 50.5t11.5 63t-11.5 63.5t-32 51t-48.5 34t-60 12.5zM467 742q0 -35 -12 -64.5t-33.5 -51.5t-51 -34t-65.5 -12t-65.5 12t-51 34t-33.5 51.5t-12 64.5h85q0 -38 22 -60t55 -22q34 0 56 22t22 60h84z" />
    <glyph glyph-name="Ohungarumlaut" unicode="&#x150;" horiz-adv-x="780" 
d="M389 671q72 0 135 -26t110 -72t74.5 -108.5t27.5 -134.5q0 -73 -27.5 -135.5t-74.5 -108t-110 -71.5t-135 -26t-135.5 26t-110 72t-73.5 108.5t-27 134.5t27 134.5t74 108.5t110 72t135 26zM390 574q-51 0 -94.5 -18.5t-75 -50.5t-49.5 -77t-18 -97q0 -53 18 -98
t49.5 -77.5t75 -51t94.5 -18.5t94 18.5t75 51t50 77.5t18 98q0 52 -18 96.5t-50 77t-75 51t-94 18.5zM636 891l-117 -167h-73l79 186h111v-19zM437 891l-118 -167h-72l79 186h111v-19z" />
    <glyph glyph-name="ohungarumlaut" unicode="&#x151;" horiz-adv-x="609" 
d="M305 502q54 0 101 -20t82.5 -54.5t56 -81t20.5 -100.5t-20.5 -101t-56 -81.5t-83 -54.5t-101.5 -20t-101 20t-82.5 54.5t-55.5 81.5t-20 101t20 100.5t55.5 81t83 54.5t101.5 20zM305 406q-33 0 -61.5 -12.5t-48.5 -34t-31 -51t-11 -63.5t11 -63t31.5 -50.5t48 -33.5
t60.5 -12t61 12t48.5 33.5t32 50.5t11.5 63t-11.5 63.5t-32 51t-48.5 34t-60 12.5zM544 761l-117 -193h-73l79 212h111v-19zM365 761l-118 -193h-72l79 212h111v-19z" />
    <glyph glyph-name="OE" unicode="&#x152;" horiz-adv-x="1113" 
d="M1061 565h-328v-170h246v-90h-246v-210h340v-95h-446v96q-41 -51 -103 -79t-136 -28q-73 0 -136 26t-109.5 72t-73 108.5t-26.5 134.5t26.5 134.5t73 108.5t110 72t136.5 26q75 0 136.5 -28.5t101.5 -78.5v96h434v-95zM389 574q-51 0 -94.5 -18.5t-75 -51t-49 -77
t-17.5 -97.5t17.5 -97.5t49 -77t75 -51t94.5 -18.5q49 0 92 17.5t74.5 48.5t50.5 73.5t21 93.5v11q0 52 -18 97t-49.5 77.5t-75.5 51t-95 18.5z" />
    <glyph glyph-name="oe" unicode="&#x153;" horiz-adv-x="962" 
d="M694 501q48 0 89 -17t71 -47t47 -71.5t17 -89.5q0 -20 -3 -38t-5 -28h-360q10 -61 51 -95t104 -34q41 0 75 15t65 43l52 -71q-40 -38 -89.5 -59t-105.5 -21q-66 0 -119 28t-86 77q-31 -48 -81 -76t-114 -28q-54 0 -100.5 19.5t-81.5 54t-55 81.5t-20 101t20.5 101
t55.5 81.5t82 54.5t100 20q64 0 114 -28.5t81 -77.5q32 48 82.5 76.5t113.5 28.5zM303 405q-33 0 -60.5 -12t-48 -33.5t-31.5 -51t-11 -63.5t11 -63t31 -50.5t47.5 -33.5t60.5 -12t59.5 12t46 33.5t30 50.5t10.5 63t-10.5 63.5t-29.5 51t-46 33.5t-59 12zM688 412
q-51 0 -88 -32.5t-48 -87.5h261q-2 57 -38.5 88.5t-86.5 31.5z" />
    <glyph glyph-name="Racute" unicode="&#x154;" horiz-adv-x="631" 
d="M323 660q51 0 92.5 -14.5t71 -41.5t45.5 -64t16 -82q0 -66 -34 -114.5t-94 -71.5l199 -272h-121l-189 255h-120v-255h-106v660h240zM189 566v-217h132q57 0 87.5 30t30.5 78t-30.5 78.5t-87.5 30.5h-132zM428 891l-128 -167h-78l79 186h127v-19z" />
    <glyph glyph-name="racute" unicode="&#x155;" horiz-adv-x="375" 
d="M317 496q13 0 22.5 -1.5t17.5 -3.5v-93h-32q-29 0 -55.5 -8.5t-46 -25.5t-31 -42.5t-11.5 -59.5v-262h-105v491h97v-66q26 35 63.5 53t80.5 18zM350 761l-128 -193h-78l79 212h127v-19z" />
    <glyph glyph-name="Rcommaaccent" unicode="&#x156;" horiz-adv-x="631" 
d="M323 660q51 0 92.5 -14.5t71 -41.5t45.5 -64t16 -82q0 -66 -34 -114.5t-94 -71.5l199 -272h-121l-189 255h-120v-255h-106v660h240zM189 566v-217h132q57 0 87.5 30t30.5 78t-30.5 78.5t-87.5 30.5h-132zM333 -220h-81l6 172h101z" />
    <glyph glyph-name="rcommaaccent" unicode="&#x157;" horiz-adv-x="375" 
d="M317 496q13 0 22.5 -1.5t17.5 -3.5v-93h-32q-29 0 -55.5 -8.5t-46 -25.5t-31 -42.5t-11.5 -59.5v-262h-105v491h97v-66q26 35 63.5 53t80.5 18zM152 -220h-81l6 172h101z" />
    <glyph glyph-name="Rcaron" unicode="&#x158;" horiz-adv-x="631" 
d="M323 660q51 0 92.5 -14.5t71 -41.5t45.5 -64t16 -82q0 -66 -34 -114.5t-94 -71.5l199 -272h-121l-189 255h-120v-255h-106v660h240zM189 566v-217h132q57 0 87.5 30t30.5 78t-30.5 78.5t-87.5 30.5h-132zM296 724h-67l-148 186h81l100 -94l101 94h81z" />
    <glyph glyph-name="rcaron" unicode="&#x159;" horiz-adv-x="375" 
d="M317 496q13 0 22.5 -1.5t17.5 -3.5v-93h-32q-29 0 -55.5 -8.5t-46 -25.5t-31 -42.5t-11.5 -59.5v-262h-105v491h97v-66q26 35 63.5 53t80.5 18zM217 568h-68l-135 212h79l90 -109l90 109h79z" />
    <glyph glyph-name="Sacute" unicode="&#x15a;" horiz-adv-x="559" 
d="M282 671q73 0 128 -33.5t85 -84.5l-74 -57q-26 38 -61 59t-78 21q-40 0 -70 -19.5t-30 -60.5q0 -19 7 -32.5t19 -24t29 -19l37 -18.5l74 -34q37 -17 67 -36t50 -41.5t31 -49.5t11 -61q0 -44 -17 -79.5t-47 -60t-70.5 -38t-87.5 -13.5q-83 0 -147 38.5t-102 104.5l75 57
q14 -21 31.5 -40t38.5 -33.5t46.5 -23t56.5 -8.5q51 0 82.5 24.5t31.5 67.5q0 19 -7 33.5t-20 25.5t-30.5 20.5t-39.5 19.5l-73 34q-32 15 -60 32t-49 39t-33 49.5t-12 62.5q0 41 16.5 74t45 56.5t66 36t80.5 12.5zM447 891l-128 -167h-78l79 186h127v-19z" />
    <glyph glyph-name="sacute" unicode="&#x15b;" horiz-adv-x="455" 
d="M233 502q54 0 96.5 -19.5t73.5 -56.5l-57 -65q-24 24 -54 37t-62 13q-29 0 -48 -11.5t-19 -35.5q0 -20 16 -32t50 -26l46 -19q67 -28 101 -61t34 -87q0 -37 -14.5 -65t-39.5 -47t-58 -28.5t-70 -9.5q-66 0 -116 26.5t-82 68.5l59 66q30 -31 63.5 -50.5t75.5 -19.5
q32 0 55 13.5t23 41.5q0 24 -19 36.5t-49 24.5l-50 21q-30 12 -53.5 25.5t-40 30.5t-25.5 38t-9 49q0 34 13.5 60.5t36.5 44.5t55 27.5t68 9.5zM399 761l-128 -193h-78l79 212h127v-19z" />
    <glyph glyph-name="Scircumflex" unicode="&#x15c;" horiz-adv-x="559" 
d="M282 671q73 0 128 -33.5t85 -84.5l-74 -57q-26 38 -61 59t-78 21q-40 0 -70 -19.5t-30 -60.5q0 -19 7 -32.5t19 -24t29 -19l37 -18.5l74 -34q37 -17 67 -36t50 -41.5t31 -49.5t11 -61q0 -44 -17 -79.5t-47 -60t-70.5 -38t-87.5 -13.5q-83 0 -147 38.5t-102 104.5l75 57
q14 -21 31.5 -40t38.5 -33.5t46.5 -23t56.5 -8.5q51 0 82.5 24.5t31.5 67.5q0 19 -7 33.5t-20 25.5t-30.5 20.5t-39.5 19.5l-73 34q-32 15 -60 32t-49 39t-33 49.5t-12 62.5q0 41 16.5 74t45 56.5t66 36t80.5 12.5zM463 724h-81l-101 93l-100 -93h-81l148 186h67z" />
    <glyph glyph-name="scircumflex" unicode="&#x15d;" horiz-adv-x="455" 
d="M233 502q54 0 96.5 -19.5t73.5 -56.5l-57 -65q-24 24 -54 37t-62 13q-29 0 -48 -11.5t-19 -35.5q0 -20 16 -32t50 -26l46 -19q67 -28 101 -61t34 -87q0 -37 -14.5 -65t-39.5 -47t-58 -28.5t-70 -9.5q-66 0 -116 26.5t-82 68.5l59 66q30 -31 63.5 -50.5t75.5 -19.5
q32 0 55 13.5t23 41.5q0 24 -19 36.5t-49 24.5l-50 21q-30 12 -53.5 25.5t-40 30.5t-25.5 38t-9 49q0 34 13.5 60.5t36.5 44.5t55 27.5t68 9.5zM400 568h-79l-90 109l-90 -109h-79l135 212h68z" />
    <glyph glyph-name="Scedilla" unicode="&#x15e;" horiz-adv-x="559" 
d="M282 671q73 0 128 -33.5t85 -84.5l-74 -57q-26 38 -61 59t-78 21q-40 0 -70 -19.5t-30 -60.5q0 -19 7 -32.5t19 -24t29 -19l37 -18.5l74 -34q37 -17 67 -36t50 -41.5t31 -49.5t11 -61q0 -44 -17 -79.5t-47 -60t-70.5 -38t-87.5 -13.5q-83 0 -147 38.5t-102 104.5l75 57
q14 -21 31.5 -40t38.5 -33.5t46.5 -23t56.5 -8.5q51 0 82.5 24.5t31.5 67.5q0 19 -7 33.5t-20 25.5t-30.5 20.5t-39.5 19.5l-73 34q-32 15 -60 32t-49 39t-33 49.5t-12 62.5q0 41 16.5 74t45 56.5t66 36t80.5 12.5zM301 35q30 -16 48 -43t18 -63q0 -25 -9.5 -46.5t-28 -38
t-45 -26t-60.5 -9.5q-18 0 -36.5 2.5t-34.5 6.5v72q37 -3 58 -3q31 0 50.5 14.5t19.5 46.5q0 20 -7 36.5t-16 29.5z" />
    <glyph glyph-name="scedilla" unicode="&#x15f;" horiz-adv-x="455" 
d="M233 502q54 0 96.5 -19.5t73.5 -56.5l-57 -65q-24 24 -54 37t-62 13q-29 0 -48 -11.5t-19 -35.5q0 -20 16 -32t50 -26l46 -19q67 -28 101 -61t34 -87q0 -37 -14.5 -65t-39.5 -47t-58 -28.5t-70 -9.5q-66 0 -116 26.5t-82 68.5l59 66q30 -31 63.5 -50.5t75.5 -19.5
q32 0 55 13.5t23 41.5q0 24 -19 36.5t-49 24.5l-50 21q-30 12 -53.5 25.5t-40 30.5t-25.5 38t-9 49q0 34 13.5 60.5t36.5 44.5t55 27.5t68 9.5zM253 35q30 -16 48 -43t18 -63q0 -25 -9.5 -46.5t-28 -38t-45 -26t-60.5 -9.5q-18 0 -36.5 2.5t-34.5 6.5v72q37 -3 58 -3
q31 0 50.5 14.5t19.5 46.5q0 20 -7 36.5t-16 29.5z" />
    <glyph glyph-name="Scaron" unicode="&#x160;" horiz-adv-x="559" 
d="M282 671q73 0 128 -33.5t85 -84.5l-74 -57q-26 38 -61 59t-78 21q-40 0 -70 -19.5t-30 -60.5q0 -19 7 -32.5t19 -24t29 -19l37 -18.5l74 -34q37 -17 67 -36t50 -41.5t31 -49.5t11 -61q0 -44 -17 -79.5t-47 -60t-70.5 -38t-87.5 -13.5q-83 0 -147 38.5t-102 104.5l75 57
q14 -21 31.5 -40t38.5 -33.5t46.5 -23t56.5 -8.5q51 0 82.5 24.5t31.5 67.5q0 19 -7 33.5t-20 25.5t-30.5 20.5t-39.5 19.5l-73 34q-32 15 -60 32t-49 39t-33 49.5t-12 62.5q0 41 16.5 74t45 56.5t66 36t80.5 12.5zM315 724h-67l-148 186h81l100 -94l101 94h81z" />
    <glyph glyph-name="scaron" unicode="&#x161;" horiz-adv-x="455" 
d="M233 502q54 0 96.5 -19.5t73.5 -56.5l-57 -65q-24 24 -54 37t-62 13q-29 0 -48 -11.5t-19 -35.5q0 -20 16 -32t50 -26l46 -19q67 -28 101 -61t34 -87q0 -37 -14.5 -65t-39.5 -47t-58 -28.5t-70 -9.5q-66 0 -116 26.5t-82 68.5l59 66q30 -31 63.5 -50.5t75.5 -19.5
q32 0 55 13.5t23 41.5q0 24 -19 36.5t-49 24.5l-50 21q-30 12 -53.5 25.5t-40 30.5t-25.5 38t-9 49q0 34 13.5 60.5t36.5 44.5t55 27.5t68 9.5zM265 568h-68l-135 212h79l90 -109l90 109h79z" />
    <glyph glyph-name="uni0162" unicode="&#x162;" horiz-adv-x="583" 
d="M566 565h-222v-565h-106v565h-222v95h550v-95zM304 35q30 -16 48 -43t18 -63q0 -25 -9.5 -46.5t-28 -38t-45 -26t-60.5 -9.5q-18 0 -36.5 2.5t-34.5 6.5v72q37 -3 58 -3q31 0 50.5 14.5t19.5 46.5q0 20 -7 36.5t-16 29.5z" />
    <glyph glyph-name="uni0163" unicode="&#x163;" horiz-adv-x="398" 
d="M352 400h-147v-231q0 -49 25.5 -67t72.5 -18q13 0 29 1.5t35 3.5v-89q-20 -5 -40.5 -8t-45.5 -3q-82 0 -131.5 41t-49.5 130v240h-80v91h80v129h105v-129h147v-91zM238 35q30 -16 48 -43t18 -63q0 -25 -9.5 -46.5t-28 -38t-45 -26t-60.5 -9.5q-18 0 -36.5 2.5t-34.5 6.5
v72q37 -3 58 -3q31 0 50.5 14.5t19.5 46.5q0 20 -7 36.5t-16 29.5z" />
    <glyph glyph-name="Tcaron" unicode="&#x164;" horiz-adv-x="583" 
d="M566 565h-222v-565h-106v565h-222v95h550v-95zM325 724h-67l-148 186h81l100 -94l101 94h81z" />
    <glyph glyph-name="tcaron" unicode="&#x165;" horiz-adv-x="398" 
d="M352 400h-147v-231q0 -49 25.5 -67t72.5 -18q13 0 29 1.5t35 3.5v-89q-20 -5 -40.5 -8t-45.5 -3q-82 0 -131.5 41t-49.5 130v240h-80v91h80v129h105v-129h147v-91zM372 542h-76l9 208h111z" />
    <glyph glyph-name="Tbar" unicode="&#x166;" horiz-adv-x="583" 
d="M566 565h-222v-232h186v-89h-186v-244h-106v244h-186v89h186v232h-222v95h550v-95z" />
    <glyph glyph-name="tbar" unicode="&#x167;" horiz-adv-x="412" 
d="M361 208h-146v-39q0 -49 25 -67t71 -18q15 0 30.5 1.5l34.5 3.5v-89q-19 -5 -40 -8t-46 -3q-81 0 -130.5 41t-49.5 130v48h-81v87h81v109h-81v87h81v129h105v-129h146v-87h-146v-109h146v-87z" />
    <glyph glyph-name="Utilde" unicode="&#x168;" horiz-adv-x="694" 
d="M618 267q0 -66 -20.5 -117.5t-57 -87.5t-86 -54.5t-107.5 -18.5q-59 0 -108.5 18.5t-85.5 54.5t-56.5 87.5t-20.5 117.5v393h106v-400q0 -44 12.5 -76.5t35 -54t52.5 -32.5t65 -11q34 0 64.5 11t52.5 32.5t35 54t13 76.5v400h106v-393zM266 890q36 0 72 -22l33 -20
l22 -12.5t22 -5.5q14 0 21 10t7 25v15h84q1 -7 1 -14v-15q0 -53 -28 -85t-71 -32q-19 0 -37.5 6t-37.5 17l-31 18q-12 7 -22.5 12.5t-21.5 5.5q-14 0 -21 -10.5t-7 -25.5v-13h-84q-1 7 -1.5 14t-0.5 15q0 52 28.5 84.5t72.5 32.5z" />
    <glyph glyph-name="utilde" unicode="&#x169;" horiz-adv-x="570" 
d="M500 206q0 -50 -16.5 -90t-45 -68.5t-68 -43.5t-84.5 -15q-46 0 -85 15t-68 43.5t-45.5 68.5t-16.5 90v285h105v-293q0 -52 32 -82t78 -30q45 0 76.5 30t31.5 82v293h106v-285zM209 748q38 0 70 -24l27 -20q11 -9 20.5 -14.5t20.5 -5.5q15 0 21.5 11t6.5 27v14h83
q1 -8 1 -14.5v-14.5q0 -53 -27 -86.5t-72 -33.5q-35 0 -70 24l-26 20q-12 9 -21 15t-21 6q-15 0 -21.5 -10.5t-6.5 -27.5v-14h-82q-2 8 -2 14.5v14.5q0 54 27.5 86.5t71.5 32.5z" />
    <glyph glyph-name="Umacron" unicode="&#x16a;" horiz-adv-x="694" 
d="M618 267q0 -66 -20.5 -117.5t-57 -87.5t-86 -54.5t-107.5 -18.5q-59 0 -108.5 18.5t-85.5 54.5t-56.5 87.5t-20.5 117.5v393h106v-400q0 -44 12.5 -76.5t35 -54t52.5 -32.5t65 -11q34 0 64.5 11t52.5 32.5t35 54t13 76.5v400h106v-393zM501 762h-308v85h308v-85z" />
    <glyph glyph-name="umacron" unicode="&#x16b;" horiz-adv-x="570" 
d="M500 206q0 -50 -16.5 -90t-45 -68.5t-68 -43.5t-84.5 -15q-46 0 -85 15t-68 43.5t-45.5 68.5t-16.5 90v285h105v-293q0 -52 32 -82t78 -30q45 0 76.5 30t31.5 82v293h106v-285zM429 632h-288v84h288v-84z" />
    <glyph glyph-name="Ubreve" unicode="&#x16c;" horiz-adv-x="694" 
d="M618 267q0 -66 -20.5 -117.5t-57 -87.5t-86 -54.5t-107.5 -18.5q-59 0 -108.5 18.5t-85.5 54.5t-56.5 87.5t-20.5 117.5v393h106v-400q0 -44 12.5 -76.5t35 -54t52.5 -32.5t65 -11q34 0 64.5 11t52.5 32.5t35 54t13 76.5v400h106v-393zM509 897q0 -35 -12 -64.5
t-33.5 -51.5t-51 -34t-65.5 -12t-65.5 12t-51 34t-33.5 51.5t-12 64.5h85q0 -38 22 -60t55 -22q34 0 55.5 22t21.5 60h85z" />
    <glyph glyph-name="ubreve" unicode="&#x16d;" horiz-adv-x="570" 
d="M500 206q0 -50 -16.5 -90t-45 -68.5t-68 -43.5t-84.5 -15q-46 0 -85 15t-68 43.5t-45.5 68.5t-16.5 90v285h105v-293q0 -52 32 -82t78 -30q45 0 76.5 30t31.5 82v293h106v-285zM447 742q0 -35 -12 -64.5t-33.5 -51.5t-51 -34t-65.5 -12t-65.5 12t-51 34t-33.5 51.5
t-12 64.5h85q0 -38 22 -60t55 -22q34 0 56 22t22 60h84z" />
    <glyph glyph-name="Uring" unicode="&#x16e;" horiz-adv-x="694" 
d="M618 267q0 -66 -20.5 -117.5t-57 -87.5t-86 -54.5t-107.5 -18.5q-59 0 -108.5 18.5t-85.5 54.5t-56.5 87.5t-20.5 117.5v393h106v-400q0 -44 12.5 -76.5t35 -54t52.5 -32.5t65 -11q34 0 64.5 11t52.5 32.5t35 54t13 76.5v400h106v-393zM346 917q26 0 48 -9t37.5 -24.5
t24.5 -36.5t9 -45q0 -49 -33.5 -82t-85.5 -33q-26 0 -47.5 9t-37 24.5t-24.5 36.5t-9 45t9 45t24.5 36.5t37 24.5t47.5 9zM347 848q-20 0 -33 -13t-13 -33t13 -33t33 -13q19 0 32 13t13 33t-12.5 33t-32.5 13z" />
    <glyph glyph-name="uring" unicode="&#x16f;" horiz-adv-x="570" 
d="M500 206q0 -50 -16.5 -90t-45 -68.5t-68 -43.5t-84.5 -15q-46 0 -85 15t-68 43.5t-45.5 68.5t-16.5 90v285h105v-293q0 -52 32 -82t78 -30q45 0 76.5 30t31.5 82v293h106v-285zM284 785q26 0 48 -9t37.5 -24.5t24.5 -37t9 -45.5t-9 -45t-24.5 -36.5t-37.5 -24.5t-48 -9
t-47.5 9t-37 24.5t-24.5 36.5t-9 45t9 45.5t24.5 37t37 24.5t47.5 9zM285 716q-20 0 -33 -13.5t-13 -33.5t13 -32.5t33 -12.5q19 0 32 12.5t13 32.5t-13 33.5t-32 13.5z" />
    <glyph glyph-name="Uhungarumlaut" unicode="&#x170;" horiz-adv-x="694" 
d="M618 267q0 -66 -20.5 -117.5t-57 -87.5t-86 -54.5t-107.5 -18.5q-59 0 -108.5 18.5t-85.5 54.5t-56.5 87.5t-20.5 117.5v393h106v-400q0 -44 12.5 -76.5t35 -54t52.5 -32.5t65 -11q34 0 64.5 11t52.5 32.5t35 54t13 76.5v400h106v-393zM593 891l-117 -167h-73l79 186h111
v-19zM394 891l-118 -167h-72l79 186h111v-19z" />
    <glyph glyph-name="uhungarumlaut" unicode="&#x171;" horiz-adv-x="570" 
d="M500 206q0 -50 -16.5 -90t-45 -68.5t-68 -43.5t-84.5 -15q-46 0 -85 15t-68 43.5t-45.5 68.5t-16.5 90v285h105v-293q0 -52 32 -82t78 -30q45 0 76.5 30t31.5 82v293h106v-285zM524 761l-117 -193h-73l79 212h111v-19zM345 761l-118 -193h-72l79 212h111v-19z" />
    <glyph glyph-name="Uogonek" unicode="&#x172;" horiz-adv-x="694" 
d="M618 267q0 -58 -14 -99t-36 -72.5t-49.5 -56l-54.5 -49.5q-18 -16 -29 -30.5t-11 -34.5q0 -37 44 -37q10 0 22 2t26 4v-72q-16 -5 -36.5 -9t-44.5 -4q-51 0 -82 22t-31 66q0 28 13 50.5t38 43.5q-8 -1 -15 -1.5t-15 -0.5q-56 0 -105 20t-85 56t-56.5 87.5t-20.5 114.5
v393h106v-400q0 -41 12.5 -73t35 -54.5t52 -34.5t64.5 -12t65 12t52.5 34.5t35.5 54.5t13 73v400h106v-393z" />
    <glyph glyph-name="uogonek" unicode="&#x173;" horiz-adv-x="570" 
d="M500 206q0 -41 -9 -70.5t-25.5 -53.5t-40 -46.5l-52.5 -48.5q-19 -17 -29.5 -31.5t-10.5 -31.5q0 -38 44 -38q22 0 48 6v-69q-15 -5 -35.5 -9.5t-45.5 -4.5q-51 0 -80.5 22t-29.5 66q0 53 49 92q-46 1 -84.5 16.5t-67 43.5t-44.5 67.5t-16 89.5v285h105v-293
q0 -52 32 -82t78 -30q45 0 76.5 30t31.5 82v293h106v-285z" />
    <glyph glyph-name="Wcircumflex" unicode="&#x174;" horiz-adv-x="1051" 
d="M734 214l165 446h117l-257 -671h-36l-197 468l-197 -468h-36l-257 671h117l164 -447l191 458h36zM707 724h-81l-101 93l-100 -93h-81l148 186h67z" />
    <glyph glyph-name="wcircumflex" unicode="&#x175;" horiz-adv-x="854" 
d="M596 173l127 318h111l-217 -502h-36l-155 328l-153 -328h-36l-218 502h112l129 -321l149 332h36zM594 568h-79l-90 109l-90 -109h-79l135 212h68z" />
    <glyph glyph-name="Ycircumflex" unicode="&#x176;" horiz-adv-x="620" 
d="M363 266v-266h-106v266l-228 394h118l163 -288l164 288h118zM489 724h-81l-101 93l-100 -93h-81l148 186h67z" />
    <glyph glyph-name="ycircumflex" unicode="&#x177;" horiz-adv-x="549" 
d="M291 -56q-31 -71 -74.5 -103t-106.5 -32q-20 0 -41 2.5t-40 7.5v89q18 -2 32 -3t27 -1q34 0 60.5 14t46.5 58l20 46l-196 469h113l140 -358l146 358h112zM442 568h-79l-90 109l-90 -109h-79l135 212h68z" />
    <glyph glyph-name="Ydieresis" unicode="&#x178;" horiz-adv-x="620" 
d="M363 266v-266h-106v266l-228 394h118l163 -288l164 288h118zM430 877q28 0 47.5 -19t19.5 -47q0 -26 -19.5 -45.5t-47.5 -19.5q-26 0 -47 19.5t-21 45.5q0 28 21 47t47 19zM185 877q28 0 47.5 -18.5t19.5 -46.5q0 -26 -19.5 -45.5t-47.5 -19.5q-26 0 -47 19.5t-21 45.5
q0 28 21 46.5t47 18.5z" />
    <glyph glyph-name="Zacute" unicode="&#x179;" horiz-adv-x="588" 
d="M556 631l-367 -536h368v-95h-531v29l364 536h-321v95h487v-29zM465 891l-128 -167h-78l79 186h127v-19z" />
    <glyph glyph-name="zacute" unicode="&#x17a;" horiz-adv-x="461" 
d="M437 461l-258 -370h260v-91h-417v29l257 371h-234v91h392v-30zM406 761l-128 -193h-78l79 212h127v-19z" />
    <glyph glyph-name="Zdotaccent" unicode="&#x17b;" horiz-adv-x="588" 
d="M556 631l-367 -536h368v-95h-531v29l364 536h-321v95h487v-29zM300 882q29 0 50.5 -20t21.5 -50q0 -29 -21.5 -49t-50.5 -20q-30 0 -51 20t-21 49q0 30 21 50t51 20z" />
    <glyph glyph-name="zdotaccent" unicode="&#x17c;" horiz-adv-x="461" 
d="M437 461l-258 -370h260v-91h-417v29l257 371h-234v91h392v-30zM238 744q29 0 50.5 -20.5t21.5 -49.5t-21.5 -49t-50.5 -20q-30 0 -51 20t-21 49t21 49.5t51 20.5z" />
    <glyph glyph-name="Zcaron" unicode="&#x17d;" horiz-adv-x="588" 
d="M556 631l-367 -536h368v-95h-531v29l364 536h-321v95h487v-29zM333 724h-67l-148 186h81l100 -94l101 94h81z" />
    <glyph glyph-name="zcaron" unicode="&#x17e;" horiz-adv-x="461" 
d="M437 461l-258 -370h260v-91h-417v29l257 371h-234v91h392v-30zM272 568h-68l-135 212h79l90 -109l90 109h79z" />
    <glyph glyph-name="uni018F" unicode="&#x18f;" horiz-adv-x="732" 
d="M351 671q71 0 132.5 -26.5t107 -72t71.5 -107.5t26 -133q0 -72 -27 -135t-73 -109t-108.5 -72.5t-132.5 -26.5q-63 0 -118.5 21.5t-97 60.5t-65 93.5t-23.5 121.5q0 24 2.5 45t4.5 34h527q-5 46 -24.5 84.5t-49.5 66.5t-69 43t-84 15q-62 0 -113 -28t-88 -78l-72 61
q46 64 115.5 103t158.5 39zM349 86q42 0 79 13.5t66 38t49 58.5t29 76h-426q0 -45 17.5 -79.5t45.5 -58t64.5 -36t75.5 -12.5z" />
    <glyph glyph-name="florin" unicode="&#x192;" horiz-adv-x="447" 
d="M391 311h-111l-33 -273q-11 -88 -57 -129.5t-123 -41.5q-20 0 -36 2.5t-30 5.5v89q12 -2 24 -2.5t21 -0.5q44 0 67.5 19t29.5 67l32 264h-74v91h86l12 98q11 88 57 129.5t124 41.5q39 0 65 -9v-88q-12 1 -24 1.5t-21 0.5q-44 0 -67.5 -18.5t-29.5 -66.5l-11 -89h99v-91z
" />
    <glyph glyph-name="uni01D4" unicode="&#x1d4;" horiz-adv-x="570" 
d="M500 206q0 -50 -16.5 -90t-45 -68.5t-68 -43.5t-84.5 -15q-46 0 -85 15t-68 43.5t-45.5 68.5t-16.5 90v285h105v-293q0 -52 32 -82t78 -30q45 0 76.5 30t31.5 82v293h106v-285zM319 568h-68l-135 212h79l90 -109l90 109h79z" />
    <glyph glyph-name="AEacute" unicode="&#x1fc;" horiz-adv-x="836" 
d="M704 304h-188l35 -209h245v-95h-335l-19 110h-261l-58 -110h-114l341 660h434v-95h-312l28 -169h204v-92zM228 201h199l-49 303zM584 891l-128 -167h-78l79 186h127v-19z" />
    <glyph glyph-name="aeacute" unicode="&#x1fd;" horiz-adv-x="887" 
d="M265 502q56 0 98.5 -21.5t66.5 -65.5q32 40 80 63.5t106 23.5q49 0 90.5 -17t71.5 -47t47 -71.5t17 -90.5q0 -20 -2.5 -40.5t-5.5 -31.5h-364q12 -58 54 -90t104 -32q42 0 76.5 15t65.5 42l51 -71q-40 -38 -89 -58.5t-106 -20.5q-70 0 -124.5 29t-87.5 79
q-27 -54 -79 -81t-118 -27q-85 0 -131 40.5t-46 103.5q0 67 49 107t132 40h139v23q0 51 -27.5 78t-76.5 27q-42 0 -74.5 -19.5t-61.5 -53.5l-61 62q39 54 92 79.5t114 25.5zM612 413q-57 0 -96 -36.5t-48 -96.5h269q2 32 -7.5 56.5t-27 41.5t-41 26t-49.5 9zM233 71
q26 0 49 8.5t40.5 23.5t27.5 36t10 46v19h-126q-42 0 -64.5 -15.5t-22.5 -47.5q0 -35 25 -52.5t61 -17.5zM597 761l-128 -193h-78l79 212h127v-19z" />
    <glyph glyph-name="Oslashacute" unicode="&#x1fe;" horiz-adv-x="780" 
d="M389 671q59 0 112 -18t97 -50l81 81l64 -64l-80 -80q35 -43 54 -96.5t19 -113.5q0 -73 -27.5 -135.5t-74.5 -108t-110 -71.5t-135 -26q-60 0 -112.5 17.5t-96.5 49.5l-79 -80l-64 64l78 78q-35 44 -53.5 97.5t-18.5 114.5q0 72 27 134.5t74 108.5t110 72t135 26zM390 578
q-53 0 -97 -18.5t-76.5 -51.5t-50.5 -78.5t-18 -98.5q0 -41 10 -76t28 -65l344 344q-29 21 -64.5 32.5t-75.5 11.5zM631 331q0 39 -10 74t-29 64l-343 -344q60 -43 141 -43q51 0 95.5 18.5t76.5 52t50.5 79t18.5 99.5zM555 891l-128 -167h-78l79 186h127v-19z" />
    <glyph glyph-name="oslashacute" unicode="&#x1ff;" horiz-adv-x="617" 
d="M577 450l-56 -57q22 -31 34.5 -68.5t12.5 -79.5q0 -54 -20.5 -100.5t-56 -81t-83 -54.5t-101.5 -20q-42 0 -78.5 11.5t-68.5 32.5l-56 -57l-64 64l55 55q-23 32 -35 70t-12 80q0 54 20 101t55.5 81.5t83 54.5t101.5 20q42 0 79 -12t69 -33l57 56zM308 411
q-35 0 -64.5 -12.5t-50.5 -34.5t-33 -52.5t-12 -66.5q0 -48 20 -86l227 227q-38 25 -87 25zM468 245q0 47 -20 85l-228 -227q37 -25 87 -25q34 0 63.5 12.5t51.5 35t34 53t12 66.5zM477 761l-128 -193h-78l79 212h127v-19z" />
    <glyph glyph-name="Scommaaccent" unicode="&#x218;" horiz-adv-x="559" 
d="M282 671q73 0 128 -33.5t85 -84.5l-74 -57q-26 38 -61 59t-78 21q-40 0 -70 -19.5t-30 -60.5q0 -19 7 -32.5t19 -24t29 -19l37 -18.5l74 -34q37 -17 67 -36t50 -41.5t31 -49.5t11 -61q0 -44 -17 -79.5t-47 -60t-70.5 -38t-87.5 -13.5q-83 0 -147 38.5t-102 104.5l75 57
q14 -21 31.5 -40t38.5 -33.5t46.5 -23t56.5 -8.5q51 0 82.5 24.5t31.5 67.5q0 19 -7 33.5t-20 25.5t-30.5 20.5t-39.5 19.5l-73 34q-32 15 -60 32t-49 39t-33 49.5t-12 62.5q0 41 16.5 74t45 56.5t66 36t80.5 12.5zM313 -220h-81l6 172h101z" />
    <glyph glyph-name="scommaaccent" unicode="&#x219;" horiz-adv-x="455" 
d="M233 502q54 0 96.5 -19.5t73.5 -56.5l-57 -65q-24 24 -54 37t-62 13q-29 0 -48 -11.5t-19 -35.5q0 -20 16 -32t50 -26l46 -19q67 -28 101 -61t34 -87q0 -37 -14.5 -65t-39.5 -47t-58 -28.5t-70 -9.5q-66 0 -116 26.5t-82 68.5l59 66q30 -31 63.5 -50.5t75.5 -19.5
q32 0 55 13.5t23 41.5q0 24 -19 36.5t-49 24.5l-50 21q-30 12 -53.5 25.5t-40 30.5t-25.5 38t-9 49q0 34 13.5 60.5t36.5 44.5t55 27.5t68 9.5zM265 -220h-81l6 172h101z" />
    <glyph glyph-name="uni021A" unicode="&#x21a;" horiz-adv-x="583" 
d="M566 565h-222v-565h-106v565h-222v95h550v-95zM316 -220h-81l6 172h101z" />
    <glyph glyph-name="uni021B" unicode="&#x21b;" horiz-adv-x="398" 
d="M352 400h-147v-231q0 -49 25.5 -67t72.5 -18q13 0 29 1.5t35 3.5v-89q-20 -5 -40.5 -8t-45.5 -3q-82 0 -131.5 41t-49.5 130v240h-80v91h80v129h105v-129h147v-91zM250 -220h-81l6 172h101z" />
    <glyph glyph-name="dotlessj" unicode="&#x237;" horiz-adv-x="257" 
d="M181 -20q0 -89 -48.5 -130t-126.5 -41q-40 0 -68 9v89q13 -2 22.5 -2.5t20.5 -0.5q45 0 70 18.5t25 66.5v502h105v-511z" />
    <glyph glyph-name="uni0259" unicode="&#x259;" horiz-adv-x="570" 
d="M270 502q55 0 102 -19.5t81 -54t53.5 -81t19.5 -100.5q0 -55 -19.5 -102t-54 -81.5t-80.5 -54.5t-100 -20q-50 0 -91.5 17t-71.5 47t-47 71t-17 90q0 20 2.5 37.5t4.5 28.5h367q-10 60 -50.5 94.5t-101.5 34.5q-41 0 -76 -15.5t-65 -42.5l-51 72q39 37 88.5 58t106.5 21z
M275 78q53 0 91 32t51 88h-268q0 -29 10.5 -51.5t27.5 -37.5t40 -23t48 -8z" />
    <glyph glyph-name="circumflex" unicode="&#x2c6;" horiz-adv-x="398" 
d="M368 568h-79l-90 109l-90 -109h-79l135 212h68z" />
    <glyph glyph-name="caron" unicode="&#x2c7;" horiz-adv-x="398" 
d="M233 568h-68l-135 212h79l90 -109l90 109h79z" />
    <glyph glyph-name="breve" unicode="&#x2d8;" horiz-adv-x="384" 
d="M354 742q0 -35 -12 -64.5t-33.5 -51.5t-51 -34t-65.5 -12t-65.5 12t-51 34t-33.5 51.5t-12 64.5h85q0 -38 22 -60t55 -22q34 0 56 22t22 60h84z" />
    <glyph glyph-name="dotaccent" unicode="&#x2d9;" horiz-adv-x="204" 
d="M102 744q29 0 50.5 -20.5t21.5 -49.5t-21.5 -49t-50.5 -20q-30 0 -51 20t-21 49t21 49.5t51 20.5z" />
    <glyph glyph-name="ring" unicode="&#x2da;" horiz-adv-x="297" 
d="M148 785q26 0 48 -9t37.5 -24.5t24.5 -37t9 -45.5t-9 -45t-24.5 -36.5t-37.5 -24.5t-48 -9t-47.5 9t-37 24.5t-24.5 36.5t-9 45t9 45.5t24.5 37t37 24.5t47.5 9zM149 716q-20 0 -33 -13.5t-13 -33.5t13 -32.5t33 -12.5q19 0 32 12.5t13 32.5t-13 33.5t-32 13.5z" />
    <glyph glyph-name="ogonek" unicode="&#x2db;" horiz-adv-x="253" 
d="M218 0l-45 -29q-20 -13 -32.5 -23t-12.5 -27q0 -33 42 -33q10 0 22.5 2l25.5 4v-73q-15 -5 -36.5 -8.5t-42.5 -3.5q-53 0 -83.5 25.5t-30.5 67.5q0 21 8.5 38.5t26.5 34.5t46.5 33.5t68.5 35.5z" />
    <glyph glyph-name="tilde" unicode="&#x2dc;" horiz-adv-x="409" 
d="M129 748q38 0 70 -24l27 -20q11 -9 20.5 -14.5t20.5 -5.5q15 0 21.5 11t6.5 27v14h83q1 -8 1 -14.5v-14.5q0 -53 -27 -86.5t-72 -33.5q-35 0 -70 24l-26 20q-12 9 -21 15t-21 6q-15 0 -21.5 -10.5t-6.5 -27.5v-14h-82q-2 8 -2 14.5v14.5q0 54 27.5 86.5t71.5 32.5z" />
    <glyph glyph-name="hungarumlaut" unicode="&#x2dd;" horiz-adv-x="429" 
d="M399 761l-117 -193h-73l79 212h111v-19zM220 761l-118 -193h-72l79 212h111v-19z" />
    <glyph glyph-name="uni030C" unicode="&#x30c;" horiz-adv-x="180" 
d="M106 542h-76l9 208h111z" />
    <glyph glyph-name="uni0326" unicode="&#x326;" horiz-adv-x="167" 
d="M111 -220h-81l6 172h101z" />
    <glyph glyph-name="dieresistonos" unicode="&#x385;" horiz-adv-x="555" 
d="M347 761l-47 -193h-76v212h123v-19zM108 740q28 0 47.5 -18.5t19.5 -47.5q0 -26 -19.5 -45.5t-47.5 -19.5q-13 0 -25 5t-21.5 14t-15 21t-5.5 25q0 29 20.5 47.5t46.5 18.5zM448 740q28 0 47.5 -18.5t19.5 -47.5q0 -26 -19.5 -45.5t-47.5 -19.5q-26 0 -46.5 19.5
t-20.5 45.5q0 29 20.5 47.5t46.5 18.5z" />
    <glyph glyph-name="Alphatonos" unicode="&#x386;" horiz-adv-x="662" 
d="M106 513h-76l9 208h111zM640 0h-114l-47 110h-297l-47 -110h-113l291 671h36zM220 201h220l-109 273z" />
    <glyph glyph-name="Epsilontonos" unicode="&#x388;" horiz-adv-x="569" 
d="M-23 513h-76l9 208h111zM517 565h-328v-169h246v-92h-246v-209h340v-95h-446v660h434v-95z" />
    <glyph glyph-name="Etatonos" unicode="&#x389;" horiz-adv-x="711" 
d="M-23 513h-76l9 208h111zM627 0h-106v302h-332v-302h-106v660h106v-263h332v263h106v-660z" />
    <glyph glyph-name="Iotatonos" unicode="&#x38a;" horiz-adv-x="272" 
d="M189 0h-106v660h106v-660zM-23 513h-76l9 208h111z" />
    <glyph glyph-name="Omicrontonos" unicode="&#x38c;" horiz-adv-x="780" 
d="M12 513h-76l9 208h111zM389 671q72 0 135 -26t110 -72t74.5 -108.5t27.5 -134.5q0 -73 -27.5 -135.5t-74.5 -108t-110 -71.5t-135 -26t-135.5 26t-110 72t-73.5 108.5t-27 134.5t27 134.5t74 108.5t110 72t135 26zM390 574q-51 0 -94.5 -18.5t-75 -50.5t-49.5 -77
t-18 -97q0 -53 18 -98t49.5 -77.5t75 -51t94.5 -18.5t94 18.5t75 51t50 77.5t18 98q0 52 -18 96.5t-50 77t-75 51t-94 18.5z" />
    <glyph glyph-name="Upsilontonos" unicode="&#x38e;" horiz-adv-x="620" 
d="M-79 513h-76l9 208h111zM363 266v-266h-106v266l-228 394h118l163 -288l164 288h118z" />
    <glyph glyph-name="Omegatonos" unicode="&#x38f;" horiz-adv-x="790" 
d="M394 671q72 0 135 -25t110 -68.5t74.5 -103t27.5 -129.5q0 -85 -38 -145t-101 -105h129v-95h-276v95q38 18 70.5 42.5t56 54.5t36.5 67t13 81q0 51 -18 94t-49.5 74t-75.5 48.5t-95 17.5t-94 -17t-74.5 -47.5t-49.5 -73.5t-18 -95q0 -87 48.5 -147.5t128.5 -98.5v-95
h-276v95h125q-61 45 -98 106t-37 144q0 70 27 129.5t74 103t110 68.5t135 25zM11 513h-76l9 208h111z" />
    <glyph glyph-name="iotadieresistonos" unicode="&#x390;" horiz-adv-x="299" 
d="M178 164q0 -45 16 -62.5t48 -17.5q8 0 17 0.5t20 1.5v-89q-13 -4 -28 -6t-35 -2q-32 0 -58.5 8.5t-45.5 27.5t-29 50t-10 75v341h105v-327zM210 761l-47 -193h-76v212h123v-19zM-29 740q28 0 47.5 -18.5t19.5 -47.5q0 -26 -19.5 -45.5t-47.5 -19.5q-13 0 -25 5t-21.5 14
t-15 21t-5.5 25q0 29 20.5 47.5t46.5 18.5zM311 740q28 0 47.5 -18.5t19.5 -47.5q0 -26 -19.5 -45.5t-47.5 -19.5q-26 0 -46.5 19.5t-20.5 45.5q0 29 20.5 47.5t46.5 18.5z" />
    <glyph glyph-name="Alpha" unicode="&#x391;" horiz-adv-x="662" 
d="M640 0h-114l-47 110h-297l-47 -110h-113l291 671h36zM220 201h220l-109 273z" />
    <glyph glyph-name="Beta" unicode="&#x392;" horiz-adv-x="618" 
d="M314 660q45 0 81.5 -13t62.5 -36.5t40 -55.5t14 -71q0 -77 -56 -124q59 -19 91.5 -62.5t32.5 -105.5q0 -42 -15 -77t-43 -60.5t-67.5 -40t-88.5 -14.5h-283v660h231zM187 298v-205h170q57 0 86.5 27.5t29.5 74.5t-29.5 75t-86.5 28h-170zM187 567v-178h117q51 0 76 25
t25 65t-25 64t-76 24h-117z" />
    <glyph glyph-name="Gamma" unicode="&#x393;" horiz-adv-x="515" 
d="M83 0v660h408v-95h-302v-565h-106z" />
    <glyph glyph-name="uni0394" unicode="&#x394;" horiz-adv-x="662" 
d="M640 0h-618l291 671h36zM175 95h310l-154 364z" />
    <glyph glyph-name="Epsilon" unicode="&#x395;" horiz-adv-x="569" 
d="M517 565h-328v-169h246v-92h-246v-209h340v-95h-446v660h434v-95z" />
    <glyph glyph-name="Zeta" unicode="&#x396;" horiz-adv-x="588" 
d="M556 631l-367 -536h368v-95h-531v29l364 536h-321v95h487v-29z" />
    <glyph glyph-name="Eta" unicode="&#x397;" horiz-adv-x="711" 
d="M627 0h-106v302h-332v-302h-106v660h106v-263h332v263h106v-660z" />
    <glyph glyph-name="Theta" unicode="&#x398;" horiz-adv-x="780" 
d="M389 671q72 0 135 -26t110 -72t74.5 -108.5t27.5 -134.5q0 -73 -27.5 -135.5t-74.5 -108t-110 -71.5t-135 -26t-135.5 26t-110 72t-73.5 108.5t-27 134.5t27 134.5t74 108.5t110 72t135 26zM389 579q-52 0 -96.5 -18.5t-76.5 -52t-50.5 -79t-18.5 -99.5t18.5 -99.5
t50.5 -79t76.5 -52t96.5 -18.5t97 18.5t77.5 52t51 79t18.5 99.5t-18.5 99.5t-51 78.5t-77.5 52t-97 19zM520 293h-259v89h259v-89z" />
    <glyph glyph-name="Iota" unicode="&#x399;" horiz-adv-x="272" 
d="M189 0h-106v660h106v-660z" />
    <glyph glyph-name="Kappa" unicode="&#x39a;" horiz-adv-x="651" 
d="M324 351l305 -351h-131l-306 351l277 309h130zM189 0h-106v660h106v-660z" />
    <glyph glyph-name="Lambda" unicode="&#x39b;" horiz-adv-x="662" 
d="M640 0h-114l-195 461l-196 -461h-113l291 671h36z" />
    <glyph glyph-name="Mu" unicode="&#x39c;" horiz-adv-x="793" 
d="M710 0h-106v414l-190 -248h-35l-190 249v-415h-106v671h36l277 -369l278 369h36v-671z" />
    <glyph glyph-name="Nu" unicode="&#x39d;" horiz-adv-x="711" 
d="M521 214v446h106v-671h-36l-402 457v-446h-106v671h36z" />
    <glyph glyph-name="Xi" unicode="&#x39e;" horiz-adv-x="556" 
d="M516 565h-476v95h476v-95zM516 0h-476v95h476v-95zM504 303h-452v94h452v-94z" />
    <glyph glyph-name="Omicron" unicode="&#x39f;" horiz-adv-x="780" 
d="M389 671q72 0 135 -26t110 -72t74.5 -108.5t27.5 -134.5q0 -73 -27.5 -135.5t-74.5 -108t-110 -71.5t-135 -26t-135.5 26t-110 72t-73.5 108.5t-27 134.5t27 134.5t74 108.5t110 72t135 26zM390 574q-51 0 -94.5 -18.5t-75 -50.5t-49.5 -77t-18 -97q0 -53 18 -98
t49.5 -77.5t75 -51t94.5 -18.5t94 18.5t75 51t50 77.5t18 98q0 52 -18 96.5t-50 77t-75 51t-94 18.5z" />
    <glyph glyph-name="Pi" unicode="&#x3a0;" horiz-adv-x="686" 
d="M603 0h-106v565h-308v-565h-106v660h520v-660z" />
    <glyph glyph-name="Rho" unicode="&#x3a1;" horiz-adv-x="583" 
d="M323 660q51 0 92.5 -14.5t71 -41.5t45.5 -64t16 -82t-16 -82t-45.5 -64t-71 -42t-92.5 -15h-134v-255h-106v660h240zM189 566v-217h133q57 0 87 30t30 78t-30 78.5t-87 30.5h-133z" />
    <glyph glyph-name="Sigma" unicode="&#x3a3;" horiz-adv-x="572" 
d="M520 565h-293l157 -214v-24l-161 -232h309v-95h-481v24l214 314l-214 298v24h469v-95z" />
    <glyph glyph-name="Tau" unicode="&#x3a4;" horiz-adv-x="583" 
d="M566 565h-222v-565h-106v565h-222v95h550v-95z" />
    <glyph glyph-name="Upsilon" unicode="&#x3a5;" horiz-adv-x="620" 
d="M363 266v-266h-106v266l-228 394h118l163 -288l164 288h118z" />
    <glyph glyph-name="Phi" unicode="&#x3a6;" horiz-adv-x="817" 
d="M461 609q68 0 125.5 -19t99 -54.5t65 -86t23.5 -114.5q0 -65 -23.5 -116t-65 -86.5t-99 -55t-125.5 -19.5v-89h-106v89q-68 0 -125 19.5t-98.5 55t-65 86.5t-23.5 116q0 64 23.5 114.5t65 85.5t98.5 54t125 20v83h106v-83zM149 332q0 -88 56 -134.5t150 -46.5v365
q-94 -1 -150 -48.5t-56 -135.5zM667 332q0 87 -56.5 135t-149.5 49v-365q93 0 149.5 47t56.5 134z" />
    <glyph glyph-name="Chi" unicode="&#x3a7;" horiz-adv-x="607" 
d="M363 336l221 -336h-121l-160 245l-159 -245h-122l223 336l-209 324h122l145 -234l145 234h121z" />
    <glyph glyph-name="Psi" unicode="&#x3a8;" horiz-adv-x="831" 
d="M469 244q43 0 79 10t61.5 31t39.5 53.5t14 76.5v245h106v-254q0 -65 -21.5 -113t-61 -80t-95 -48t-122.5 -16v-149h-106v149q-68 0 -123 16t-95 48t-61.5 80t-21.5 113v254h106v-245q0 -44 14.5 -76.5t40.5 -53.5t61.5 -31t78.5 -10v438h106v-438z" />
    <glyph glyph-name="uni03A9" unicode="&#x3a9;" horiz-adv-x="790" 
d="M394 671q72 0 135 -25t110 -68.5t74.5 -103t27.5 -129.5q0 -85 -38 -145t-101 -105h129v-95h-276v95q38 18 70.5 42.5t56 54.5t36.5 67t13 81q0 51 -18 94t-49.5 74t-75.5 48.5t-95 17.5t-94 -17t-74.5 -47.5t-49.5 -73.5t-18 -95q0 -87 48.5 -147.5t128.5 -98.5v-95
h-276v95h125q-61 45 -98 106t-37 144q0 70 27 129.5t74 103t110 68.5t135 25z" />
    <glyph glyph-name="Iotadieresis" unicode="&#x3aa;" horiz-adv-x="272" 
d="M189 0h-106v660h106v-660zM259 877q28 0 47.5 -19t19.5 -47q0 -26 -19.5 -45.5t-47.5 -19.5q-26 0 -47 19.5t-21 45.5q0 28 21 47t47 19zM14 877q28 0 47.5 -18.5t19.5 -46.5q0 -26 -19.5 -45.5t-47.5 -19.5q-26 0 -47 19.5t-21 45.5q0 28 21 46.5t47 18.5z" />
    <glyph glyph-name="Upsilondieresis" unicode="&#x3ab;" horiz-adv-x="620" 
d="M415 877q28 0 47.5 -19t19.5 -47q0 -26 -19.5 -45.5t-47.5 -19.5q-26 0 -47 19.5t-21 45.5q0 28 21 47t47 19zM170 877q28 0 47.5 -18.5t19.5 -46.5q0 -26 -19.5 -45.5t-47.5 -19.5q-26 0 -47 19.5t-21 45.5q0 28 21 46.5t47 18.5zM363 266v-266h-106v266l-228 394h118
l163 -288l164 288h118z" />
    <glyph glyph-name="alphatonos" unicode="&#x3ac;" horiz-adv-x="643" 
d="M281 -11q-51 0 -94.5 19.5t-75 54t-49 81t-17.5 101.5t17.5 102t49 81.5t74.5 54t95 19.5q57 0 102 -23t71 -64q1 17 2 36.5t3 39.5h98q-5 -79 -7.5 -136.5t-2.5 -95.5v-107q0 -66 49 -66q6 0 12 0.5t17 1.5v-88q-29 -8 -63 -8q-88 0 -111 79q-27 -40 -71.5 -61
t-98.5 -21zM297 85q28 0 54 9.5t46 29.5t32.5 50t12.5 71q0 40 -12 70.5t-32.5 50.5t-46.5 30t-54 10q-31 0 -57.5 -12t-46 -33t-30.5 -50.5t-11 -64.5q0 -36 11 -65.5t30.5 -50.5t46 -33t57.5 -12zM389 761l-47 -193h-79v212h126v-19z" />
    <glyph glyph-name="epsilontonos" unicode="&#x3ad;" horiz-adv-x="503" 
d="M262 502q65 0 115.5 -23t81.5 -62l-64 -63q-21 24 -52 39.5t-79 15.5q-84 0 -84 -56q0 -25 18 -40t53 -15h88v-84h-90q-45 0 -67.5 -17.5t-22.5 -46.5q0 -31 25 -49.5t75 -18.5q51 0 85 18t56 45l64 -63q-35 -46 -87 -69.5t-118 -23.5q-44 0 -81.5 10.5t-65 29.5
t-43 46.5t-15.5 61.5q0 38 20 69t55 50q-54 39 -54 107q0 33 13.5 59t38.5 43.5t59.5 27t75.5 9.5zM335 761l-47 -193h-79v212h126v-19z" />
    <glyph glyph-name="etatonos" unicode="&#x3ae;" horiz-adv-x="595" 
d="M339 502q43 0 77.5 -14.5t58.5 -40t37 -61.5t13 -79v-487h-105v472q0 51 -29 82.5t-78 31.5q-50 0 -81 -31.5t-31 -82.5v-292h-105v339q0 65 -50 65h-9t-19 -1v88q29 8 63 8q38 0 63.5 -14t39.5 -46q28 29 67.5 46t87.5 17zM373 761l-47 -193h-79v212h126v-19z" />
    <glyph glyph-name="iotatonos" unicode="&#x3af;" horiz-adv-x="299" 
d="M178 164q0 -45 16 -62.5t48 -17.5q8 0 17 0.5t20 1.5v-89q-13 -4 -28 -6t-35 -2q-32 0 -58.5 8.5t-45.5 27.5t-29 50t-10 75v341h105v-327zM204 761l-47 -193h-79v212h126v-19z" />
    <glyph glyph-name="upsilondieresistonos" unicode="&#x3b0;" horiz-adv-x="564" 
d="M463 491q9 -26 17 -56.5t14.5 -63.5t10 -66.5t3.5 -64.5q0 -66 -17 -113.5t-47 -78t-70 -45t-85 -14.5q-47 0 -87 15t-69 43t-45.5 69t-16.5 94v281h105v-289q0 -55 32.5 -86.5t81.5 -31.5q22 0 42 8t35 26t24 47.5t9 72.5q0 26 -3.5 59t-9 67t-13 67t-15.5 60h104z
M354 761l-47 -193h-76v212h123v-19zM115 740q28 0 47.5 -18.5t19.5 -47.5q0 -26 -19.5 -45.5t-47.5 -19.5q-13 0 -25 5t-21.5 14t-15 21t-5.5 25q0 29 20.5 47.5t46.5 18.5zM455 740q28 0 47.5 -18.5t19.5 -47.5q0 -26 -19.5 -45.5t-47.5 -19.5q-26 0 -46.5 19.5t-20.5 45.5
q0 29 20.5 47.5t46.5 18.5z" />
    <glyph glyph-name="alpha" unicode="&#x3b1;" horiz-adv-x="643" 
d="M281 -11q-51 0 -94.5 19.5t-75 54t-49 81t-17.5 101.5t17.5 102t49 81.5t74.5 54t95 19.5q57 0 102 -23t71 -64q1 17 2 36.5t3 39.5h98q-5 -79 -7.5 -136.5t-2.5 -95.5v-107q0 -66 49 -66q6 0 12 0.5t17 1.5v-88q-29 -8 -63 -8q-88 0 -111 79q-27 -40 -71.5 -61
t-98.5 -21zM297 85q28 0 54 9.5t46 29.5t32.5 50t12.5 71q0 40 -12 70.5t-32.5 50.5t-46.5 30t-54 10q-31 0 -57.5 -12t-46 -33t-30.5 -50.5t-11 -64.5q0 -36 11 -65.5t30.5 -50.5t46 -33t57.5 -12z" />
    <glyph glyph-name="beta" unicode="&#x3b2;" horiz-adv-x="621" 
d="M299 761q49 0 87 -15t63 -41t38 -60t13 -71q0 -48 -19.5 -85.5t-56.5 -62.5q66 -20 109 -72t43 -134q0 -54 -19 -97t-51.5 -72.5t-76 -45.5t-91.5 -16q-49 0 -88.5 14.5t-68.5 38.5v-222h-105v723q0 52 17 92.5t46.5 68.5t70.5 42.5t89 14.5zM181 144q27 -26 63 -42
t80 -16q65 0 105 36.5t40 100.5q0 32 -11 57.5t-30 43.5t-45.5 28t-57.5 10h-58v90h22q50 0 77 30t27 81q0 53 -29.5 78.5t-70.5 25.5q-48 0 -80 -32.5t-32 -94.5v-396z" />
    <glyph glyph-name="gamma" unicode="&#x3b3;" horiz-adv-x="549" 
d="M327 61v-241h-105v241l-203 430h112l143 -325l144 325h111z" />
    <glyph glyph-name="delta" unicode="&#x3b4;" horiz-adv-x="609" 
d="M534 659h-266l206 -215q51 -53 71 -100t20 -97q0 -55 -20.5 -102.5t-56 -82t-83 -54t-101.5 -19.5t-101 20t-82.5 54.5t-55.5 81.5t-20 102q0 52 18.5 96.5t51 77.5t76.5 52t94 22l-215 226v29h464v-91zM304 403q-33 0 -61 -12t-48 -33.5t-31.5 -50.5t-11.5 -63t11.5 -63
t31.5 -50t48 -33t61 -12t60.5 12t48 33.5t32 50.5t11.5 63t-11.5 63t-32 50t-48 33t-60.5 12z" />
    <glyph glyph-name="epsilon" unicode="&#x3b5;" horiz-adv-x="503" 
d="M262 502q65 0 115.5 -23t81.5 -62l-64 -63q-21 24 -52 39.5t-79 15.5q-84 0 -84 -56q0 -25 18 -40t53 -15h88v-84h-90q-45 0 -67.5 -17.5t-22.5 -46.5q0 -31 25 -49.5t75 -18.5q51 0 85 18t56 45l64 -63q-35 -46 -87 -69.5t-118 -23.5q-44 0 -81.5 10.5t-65 29.5
t-43 46.5t-15.5 61.5q0 38 20 69t55 50q-54 39 -54 107q0 33 13.5 59t38.5 43.5t59.5 27t75.5 9.5z" />
    <glyph glyph-name="zeta" unicode="&#x3b6;" horiz-adv-x="514" 
d="M496 721l-280 -349q-31 -39 -47 -71.5t-16 -67.5q0 -50 32 -81t96 -48l69 -19q81 -21 117.5 -61.5t36.5 -100.5q0 -27 -7 -52t-18 -51h-103q8 20 14 43.5t6 43.5q0 34 -21 54t-63 31l-63 16q-99 23 -151.5 78.5t-52.5 133.5q0 49 22 98.5t69 106.5l190 234h-250v91h420
v-29z" />
    <glyph glyph-name="eta" unicode="&#x3b7;" horiz-adv-x="595" 
d="M339 502q43 0 77.5 -14.5t58.5 -40t37 -61.5t13 -79v-487h-105v472q0 51 -29 82.5t-78 31.5q-50 0 -81 -31.5t-31 -82.5v-292h-105v339q0 65 -50 65h-9t-19 -1v88q29 8 63 8q38 0 63.5 -14t39.5 -46q28 29 67.5 46t87.5 17z" />
    <glyph glyph-name="theta" unicode="&#x3b8;" horiz-adv-x="629" 
d="M314 761q127 0 189.5 -100t62.5 -284q0 -92 -15.5 -164t-47 -122t-78.5 -76.5t-111 -26.5q-63 0 -110.5 26t-78.5 76t-46.5 122.5t-15.5 164.5q0 184 62 284t189 100zM315 84q68 0 102.5 61.5t39.5 194.5h-285q4 -133 39.5 -194.5t103.5 -61.5zM315 664q-65 0 -101 -55
t-42 -178h284q-6 123 -40.5 178t-100.5 55z" />
    <glyph glyph-name="iota" unicode="&#x3b9;" horiz-adv-x="299" 
d="M178 164q0 -45 16 -62.5t48 -17.5q8 0 17 0.5t20 1.5v-89q-13 -4 -28 -6t-35 -2q-32 0 -58.5 8.5t-45.5 27.5t-29 50t-10 75v341h105v-327z" />
    <glyph glyph-name="kappa" unicode="&#x3ba;" horiz-adv-x="534" 
d="M312 264l213 -264h-125l-215 263l200 228h129zM181 0h-105v491h105v-491z" />
    <glyph glyph-name="lambda" unicode="&#x3bb;" 
d="M128 761q30 0 56 -6.5t47.5 -22t39.5 -42.5t33 -68l173 -488q8 -25 21 -35.5t29 -10.5h24v-88q-13 -4 -24.5 -6t-25.5 -2q-45 0 -70.5 24t-42.5 72l-99 293l-153 -381h-112l215 506l-28 80q-16 47 -40 63.5t-62 16.5q-19 0 -50 -3v89q27 9 69 9z" />
    <glyph glyph-name="uni03BC" unicode="&#x3bc;" horiz-adv-x="601" 
d="M505 154q0 -36 12 -52t38 -16q5 0 11 0.5t17 1.5v-88q-29 -8 -62 -8q-73 0 -101 54q-21 -26 -52.5 -41.5t-70.5 -15.5q-36 0 -65.5 13.5t-50.5 37.5v-220h-105v671h105v-288q0 -54 31 -86t78 -32q48 0 78.5 32t30.5 86v288h106v-337z" />
    <glyph glyph-name="nu" unicode="&#x3bd;" horiz-adv-x="549" 
d="M293 -11h-37l-237 502h112l143 -325l144 325h111z" />
    <glyph glyph-name="xi" unicode="&#x3be;" horiz-adv-x="525" 
d="M300 761q69 0 121 -31t84 -84l-74 -58q-23 34 -52.5 55t-70.5 21q-24 0 -45 -7.5t-37 -22t-25 -34t-9 -43.5q0 -46 32.5 -78t85.5 -32h106v-91h-116q-30 0 -55 -9t-44 -25.5t-29.5 -40.5t-10.5 -53q0 -51 33 -84t99 -44l63 -12q78 -14 118.5 -57t40.5 -109
q0 -26 -6.5 -51t-18.5 -51h-103q8 20 14 43t6 44q0 35 -19.5 57t-63.5 29l-55 9q-107 17 -161.5 76t-54.5 141q0 65 32 114t86 74q-41 26 -64 66t-23 93q0 43 16.5 79t45.5 61.5t68.5 40t85.5 14.5z" />
    <glyph glyph-name="omicron" unicode="&#x3bf;" horiz-adv-x="609" 
d="M305 502q54 0 101 -20t82.5 -54.5t56 -81.5t20.5 -101t-20.5 -101t-56 -81.5t-83 -54t-101.5 -19.5t-101 19.5t-82.5 54t-55.5 81.5t-20 101t20 101t55.5 81.5t83 54.5t101.5 20zM304 405q-33 0 -61 -12t-48 -33.5t-31.5 -51t-11.5 -63.5t11.5 -63t31.5 -50.5t48 -33.5
t61 -12t60.5 12t48 33.5t32 50.5t11.5 63t-11.5 63.5t-32 51t-48 33.5t-60.5 12z" />
    <glyph glyph-name="pi" unicode="&#x3c0;" horiz-adv-x="590" 
d="M512 -8q-59 0 -91.5 35.5t-32.5 107.5v265h-207v-400h-105v491h417v-344q0 -32 12.5 -46.5t37.5 -14.5q5 0 11.5 0.5t17.5 1.5v-88q-30 -8 -60 -8z" />
    <glyph glyph-name="rho" unicode="&#x3c1;" horiz-adv-x="619" 
d="M321 502q57 0 104 -19.5t80.5 -54t51.5 -81.5t18 -102t-18 -101.5t-49.5 -81t-75 -54t-94.5 -19.5t-92.5 18t-69.5 51v-238h-105v422q0 58 17.5 105.5t50.5 82t79 53.5t103 19zM319 406q-28 0 -54 -9t-46.5 -28.5t-32.5 -49.5t-12 -72t12.5 -72.5t33 -50.5t46.5 -29.5
t53 -9.5q31 0 58.5 11.5t47 32.5t31 50.5t11.5 65.5t-11 65.5t-31 50.5t-47 33t-59 12z" />
    <glyph glyph-name="uni03C2" unicode="&#x3c2;" horiz-adv-x="529" 
d="M348 -180q11 23 18 45.5t7 45.5q0 21 -7 34.5t-19.5 22.5t-31 15.5t-40.5 12.5q-33 10 -73 25.5t-75 43.5t-58.5 73t-23.5 113q0 60 19.5 107t53.5 79t79.5 48.5t97.5 16.5q73 0 126.5 -31.5t85.5 -84.5l-73 -58q-27 35 -59.5 56t-78.5 21q-62 0 -102 -39t-40 -111
q0 -45 16 -73.5t40 -47t53 -29t55 -17.5q32 -10 61.5 -21t52 -28.5t36 -44t13.5 -65.5q0 -32 -8 -59t-22 -50h-103z" />
    <glyph glyph-name="sigma" unicode="&#x3c3;" horiz-adv-x="640" 
d="M624 400h-141q35 -29 55 -71t20 -93t-19 -96t-53 -78.5t-81.5 -53t-103.5 -19.5q-57 0 -104 20t-80.5 54.5t-52.5 80.5t-19 99q0 55 19.5 100.5t54 78.5t82.5 51t105 18h318v-91zM301 398q-33 0 -60 -11t-47 -31.5t-31 -49t-11 -62.5t10.5 -63t30 -50t47 -33t60.5 -12
t60.5 12t47 33.5t30.5 50.5t11 63t-11 62t-30.5 48.5t-47 31.5t-59.5 11z" />
    <glyph glyph-name="tau" unicode="&#x3c4;" horiz-adv-x="463" 
d="M423 400h-178v-231q0 -49 26.5 -67t77.5 -18q16 0 37 1.5l47 3.5v-89q-24 -5 -52 -8t-53 -3q-90 0 -139 40.5t-49 130.5v240h-129v91h412v-91z" />
    <glyph glyph-name="upsilon" unicode="&#x3c5;" horiz-adv-x="564" 
d="M463 491q9 -26 17 -56.5t14.5 -63.5t10 -66.5t3.5 -64.5q0 -66 -17 -113.5t-47 -78t-70 -45t-85 -14.5q-47 0 -87 15t-69 43t-45.5 69t-16.5 94v281h105v-289q0 -55 32.5 -86.5t81.5 -31.5q22 0 42 8t35 26t24 47.5t9 72.5q0 26 -3.5 59t-9 67t-13 67t-15.5 60h104z" />
    <glyph glyph-name="phi" unicode="&#x3c6;" horiz-adv-x="775" 
d="M439 501q63 0 116.5 -18t92 -51t60.5 -80t22 -106q0 -60 -21.5 -107.5t-60 -80.5t-92 -51t-117.5 -18v-169h-105v169q-63 0 -116.5 18t-91.5 51t-59.5 80.5t-21.5 107.5q0 59 21.5 106t60 80t91.5 51t116 18v201h105v-201zM436 410v-330h4q88 0 137.5 43.5t49.5 120.5
q0 78 -49.5 122t-137.5 44h-4zM148 244q0 -77 49.5 -120.5t136.5 -43.5h3v330h-3q-87 0 -136.5 -44t-49.5 -122z" />
    <glyph glyph-name="chi" unicode="&#x3c7;" horiz-adv-x="526" 
d="M317 165l114 -218q13 -24 27 -32t32 -8h13t13 1v-88q-11 -4 -24.5 -6t-26.5 -2q-41 0 -67 20.5t-46 58.5l-92 180l-134 -251h-116l197 349l-101 194q-13 24 -27.5 32t-32.5 8h-26v88q11 4 24.5 5.5t26.5 1.5q39 0 66.5 -20t50.5 -65l75 -152l124 230h117z" />
    <glyph glyph-name="psi" unicode="&#x3c8;" horiz-adv-x="802" 
d="M456 84q83 0 132.5 44.5t49.5 138.5q0 50 -12 110.5t-29 113.5h104l15 -49.5t15 -57.5t11 -61t4 -61q0 -65 -21 -116t-59 -86t-91.5 -53t-118.5 -18v-169h-105v169q-59 0 -110 16t-88.5 48.5t-59.5 80.5t-22 112v245h105v-236q0 -44 14.5 -76t38.5 -53t55.5 -31.5
t66.5 -10.5v576h105v-576z" />
    <glyph glyph-name="omega" unicode="&#x3c9;" horiz-adv-x="839" 
d="M585 499q43 -11 81.5 -31t67 -51.5t45 -75.5t16.5 -103q0 -61 -17.5 -107.5t-47.5 -78t-70 -47.5t-86 -16q-51 0 -90.5 19.5t-63.5 57.5q-50 -77 -154 -77q-46 0 -86.5 16t-70.5 47.5t-47 78t-17 106.5q0 59 16.5 103t45 75.5t66.5 52t82 31.5l28 -94q-29 -9 -53 -22.5
t-41 -33.5t-27 -47.5t-10 -65.5q0 -39 10 -67t26 -47t37 -28t44 -9q44 0 72 31t28 88v170h102v-170q0 -57 27.5 -88t71.5 -31q23 0 44 9t37.5 28t26.5 47t10 67q0 38 -10 65.5t-27 47.5t-41.5 33.5t-52.5 22.5z" />
    <glyph glyph-name="iotadieresis" unicode="&#x3ca;" horiz-adv-x="299" 
d="M178 164q0 -45 16 -62.5t48 -17.5q8 0 17 0.5t20 1.5v-89q-13 -4 -28 -6t-35 -2q-32 0 -58.5 8.5t-45.5 27.5t-29 50t-10 75v341h105v-327zM231 740q28 0 47.5 -18.5t19.5 -47.5q0 -26 -19.5 -45.5t-47.5 -19.5q-26 0 -47 19.5t-21 45.5q0 29 21 47.5t47 18.5zM30 740
q28 0 47.5 -18.5t19.5 -47.5q0 -26 -19.5 -45.5t-47.5 -19.5q-27 0 -47.5 19.5t-20.5 45.5q0 29 20.5 47.5t47.5 18.5z" />
    <glyph glyph-name="upsilondieresis" unicode="&#x3cb;" horiz-adv-x="564" 
d="M463 491q9 -26 17 -56.5t14.5 -63.5t10 -66.5t3.5 -64.5q0 -66 -17 -113.5t-47 -78t-70 -45t-85 -14.5q-47 0 -87 15t-69 43t-45.5 69t-16.5 94v281h105v-289q0 -55 32.5 -86.5t81.5 -31.5q22 0 42 8t35 26t24 47.5t9 72.5q0 26 -3.5 59t-9 67t-13 67t-15.5 60h104z
M386 740q28 0 47.5 -18.5t19.5 -47.5q0 -26 -19.5 -45.5t-47.5 -19.5q-26 0 -47 19.5t-21 45.5q0 29 21 47.5t47 18.5zM161 740q28 0 47.5 -18.5t19.5 -47.5q0 -26 -19.5 -45.5t-47.5 -19.5q-26 0 -47 19.5t-21 45.5q0 29 21 47.5t47 18.5z" />
    <glyph glyph-name="omicrontonos" unicode="&#x3cc;" horiz-adv-x="609" 
d="M305 502q54 0 101 -20t82.5 -54.5t56 -81.5t20.5 -101t-20.5 -101t-56 -81.5t-83 -54t-101.5 -19.5t-101 19.5t-82.5 54t-55.5 81.5t-20 101t20 101t55.5 81.5t83 54.5t101.5 20zM304 405q-33 0 -61 -12t-48 -33.5t-31.5 -51t-11.5 -63.5t11.5 -63t31.5 -50.5t48 -33.5
t61 -12t60.5 12t48 33.5t32 50.5t11.5 63t-11.5 63.5t-32 51t-48 33.5t-60.5 12zM380 761l-47 -193h-79v212h126v-19z" />
    <glyph glyph-name="upsilontonos" unicode="&#x3cd;" horiz-adv-x="564" 
d="M463 491q9 -26 17 -56.5t14.5 -63.5t10 -66.5t3.5 -64.5q0 -66 -17 -113.5t-47 -78t-70 -45t-85 -14.5q-47 0 -87 15t-69 43t-45.5 69t-16.5 94v281h105v-289q0 -55 32.5 -86.5t81.5 -31.5q22 0 42 8t35 26t24 47.5t9 72.5q0 26 -3.5 59t-9 67t-13 67t-15.5 60h104z
M349 761l-47 -193h-79v212h126v-19z" />
    <glyph glyph-name="omegatonos" unicode="&#x3ce;" horiz-adv-x="839" 
d="M585 499q43 -11 81.5 -31t67 -51.5t45 -75.5t16.5 -103q0 -61 -17.5 -107.5t-47.5 -78t-70 -47.5t-86 -16q-51 0 -90.5 19.5t-63.5 57.5q-50 -77 -154 -77q-46 0 -86.5 16t-70.5 47.5t-47 78t-17 106.5q0 59 16.5 103t45 75.5t66.5 52t82 31.5l28 -94q-29 -9 -53 -22.5
t-41 -33.5t-27 -47.5t-10 -65.5q0 -39 10 -67t26 -47t37 -28t44 -9q44 0 72 31t28 88v170h102v-170q0 -57 27.5 -88t71.5 -31q23 0 44 9t37.5 28t26.5 47t10 67q0 38 -10 65.5t-27 47.5t-41.5 33.5t-52.5 22.5zM492 761l-47 -193h-79v212h126v-19z" />
    <glyph glyph-name="uni0400" unicode="&#x400;" horiz-adv-x="569" 
d="M517 565h-328v-169h246v-92h-246v-209h340v-95h-446v660h434v-95zM338 724h-78l-128 167v19h127z" />
    <glyph glyph-name="uni0401" unicode="&#x401;" horiz-adv-x="569" 
d="M517 565h-328v-169h246v-92h-246v-209h340v-95h-446v660h434v-95zM421 877q28 0 47.5 -19t19.5 -47q0 -26 -19.5 -45.5t-47.5 -19.5q-26 0 -47 19.5t-21 45.5q0 28 21 47t47 19zM176 877q28 0 47.5 -18.5t19.5 -46.5q0 -26 -19.5 -45.5t-47.5 -19.5q-26 0 -47 19.5
t-21 45.5q0 28 21 46.5t47 18.5z" />
    <glyph glyph-name="uni0402" unicode="&#x402;" horiz-adv-x="762" 
d="M566 565h-222v-156h137q54 0 97.5 -15t74.5 -43t47.5 -66.5t16.5 -85.5q0 -51 -19.5 -88.5t-51.5 -63t-74.5 -39.5t-87.5 -19l-20 94q28 4 54.5 12.5t46 22.5t31.5 34.5t12 49.5q0 48 -32 80.5t-94 32.5h-138v-315h-106v565h-222v95h550v-95z" />
    <glyph glyph-name="uni0403" unicode="&#x403;" horiz-adv-x="516" 
d="M492 565h-303v-565h-106v660h409v-95zM437 891l-128 -167h-78l79 186h127v-19z" />
    <glyph glyph-name="uni0404" unicode="&#x404;" horiz-adv-x="717" 
d="M390 671q93 0 166.5 -41.5t116.5 -110.5l-80 -59q-35 54 -86 84t-117 30q-42 0 -80 -13t-68 -36.5t-51 -56t-31 -72.5h322v-92h-329q4 -48 24 -88t51.5 -69t72.5 -45t89 -16q66 0 117 30t86 84l80 -59q-42 -69 -116 -110.5t-167 -41.5q-73 0 -136 26t-110 71.5t-74 108
t-27 135.5q0 72 27 134.5t74 108.5t110 72t136 26z" />
    <glyph glyph-name="uni0405" unicode="&#x405;" horiz-adv-x="559" 
d="M282 671q73 0 128 -33.5t85 -84.5l-74 -57q-26 38 -61 59t-78 21q-40 0 -70 -19.5t-30 -60.5q0 -19 7 -32.5t19 -24t29 -19l37 -18.5l74 -34q37 -17 67 -36t50 -41.5t31 -49.5t11 -61q0 -44 -17 -79.5t-47 -60t-70.5 -38t-87.5 -13.5q-83 0 -147 38.5t-102 104.5l75 57
q14 -21 31.5 -40t38.5 -33.5t46.5 -23t56.5 -8.5q51 0 82.5 24.5t31.5 67.5q0 19 -7 33.5t-20 25.5t-30.5 20.5t-39.5 19.5l-73 34q-32 15 -60 32t-49 39t-33 49.5t-12 62.5q0 41 16.5 74t45 56.5t66 36t80.5 12.5z" />
    <glyph glyph-name="uni0406" unicode="&#x406;" horiz-adv-x="272" 
d="M189 0h-106v660h106v-660z" />
    <glyph glyph-name="uni0407" unicode="&#x407;" horiz-adv-x="272" 
d="M189 0h-106v660h106v-660zM259 877q28 0 47.5 -19t19.5 -47q0 -26 -19.5 -45.5t-47.5 -19.5q-26 0 -47 19.5t-21 45.5q0 28 21 47t47 19zM14 877q28 0 47.5 -18.5t19.5 -46.5q0 -26 -19.5 -45.5t-47.5 -19.5q-26 0 -47 19.5t-21 45.5q0 28 21 46.5t47 18.5z" />
    <glyph glyph-name="uni0408" unicode="&#x408;" horiz-adv-x="381" 
d="M298 164q0 -91 -50.5 -133t-135.5 -42q-26 0 -48.5 3t-42.5 8v91q20 -2 37.5 -3.5t31.5 -1.5q49 0 75.5 18.5t26.5 70.5v485h106v-496z" />
    <glyph glyph-name="uni0409" unicode="&#x409;" horiz-adv-x="1006" 
d="M571 416h160q52 0 94.5 -15.5t72.5 -43t46.5 -65.5t16.5 -84t-16.5 -84.5t-46.5 -66t-72.5 -42.5t-94.5 -15h-266v565h-194q0 -159 -20 -265t-55.5 -171t-85.5 -95t-110 -38v99q42 9 73.5 39t52.5 85.5t31 137.5t10 195v108h404v-244zM571 322v-228h159q60 0 91 32t31 82
t-31 82t-91 32h-159z" />
    <glyph glyph-name="uni040A" unicode="&#x40a;" horiz-adv-x="1048" 
d="M613 410h159q52 0 94.5 -15t73 -42.5t47 -65t16.5 -82.5q0 -46 -16.5 -83.5t-47 -64.5t-73 -42t-94.5 -15h-265v304h-318v-304h-106v660h106v-260h318v260h106v-250zM613 316v-222h159q60 0 91 31t31 79q0 49 -31.5 80.5t-90.5 31.5h-159z" />
    <glyph glyph-name="uni040B" unicode="&#x40b;" horiz-adv-x="794" 
d="M470 408q60 0 105.5 -19t77 -53.5t47.5 -83t16 -107.5v-145h-106v140q0 85 -36 127.5t-114 42.5q-27 0 -57 -5t-59 -14v-291h-106v565h-222v95h550v-95h-222v-177q29 9 61 14.5t65 5.5z" />
    <glyph glyph-name="uni040C" unicode="&#x40c;" horiz-adv-x="651" 
d="M477 891l-128 -167h-78l79 186h127v-19zM324 351l305 -351h-131l-306 351l277 309h130zM189 0h-106v660h106v-660z" />
    <glyph glyph-name="uni040D" unicode="&#x40d;" horiz-adv-x="721" 
d="M637 0h-106v455l-412 -466h-36v671h106v-453l412 464h36v-671zM389 724h-78l-128 167v19h127z" />
    <glyph glyph-name="uni040E" unicode="&#x40e;" horiz-adv-x="620" 
d="M369 129q-31 -72 -82.5 -106t-126.5 -34q-20 0 -41.5 2.5t-41.5 7.5v92q18 -2 33.5 -3.5t29.5 -1.5q38 0 72.5 16.5t53.5 57.5l-234 500h122l169 -381l155 381h120zM481 897q0 -35 -12 -64.5t-33.5 -51.5t-51 -34t-65.5 -12t-65.5 12t-51 34t-33.5 51.5t-12 64.5h85
q0 -38 22 -60t55 -22q34 0 55.5 22t21.5 60h85z" />
    <glyph glyph-name="uni040F" unicode="&#x40f;" horiz-adv-x="686" 
d="M603 0h-207v-141h-106v141h-207v660h106v-565h308v565h106v-660z" />
    <glyph glyph-name="uni0410" unicode="&#x410;" horiz-adv-x="662" 
d="M640 0h-114l-47 110h-297l-47 -110h-113l291 671h36zM220 201h220l-109 273z" />
    <glyph glyph-name="uni0411" unicode="&#x411;" horiz-adv-x="618" 
d="M507 565h-318v-176h177q49 0 88.5 -14t67.5 -39.5t43 -61.5t15 -79t-15 -78.5t-43 -61.5t-67.5 -40.5t-88.5 -14.5h-283v660h424v-95zM189 298v-205h168q56 0 86 27.5t30 74.5t-30 75t-86 28h-168z" />
    <glyph glyph-name="uni0412" unicode="&#x412;" horiz-adv-x="618" 
d="M314 660q45 0 81.5 -13t62.5 -36.5t40 -55.5t14 -71q0 -77 -56 -124q59 -19 91.5 -62.5t32.5 -105.5q0 -42 -15 -77t-43 -60.5t-67.5 -40t-88.5 -14.5h-283v660h231zM187 298v-205h170q57 0 86.5 27.5t29.5 74.5t-29.5 75t-86.5 28h-170zM187 567v-178h117q51 0 76 25
t25 65t-25 64t-76 24h-117z" />
    <glyph glyph-name="uni0413" unicode="&#x413;" horiz-adv-x="516" 
d="M492 565h-303v-565h-106v660h409v-95z" />
    <glyph glyph-name="uni0414" unicode="&#x414;" horiz-adv-x="709" 
d="M679 -141h-106v141h-445v-141h-106v236h51q31 27 56.5 66t43.5 95.5t28 132.5t10 177v94h385v-565h83v-236zM313 565q-1 -90 -9 -162t-23.5 -129.5t-38 -101.5t-51.5 -77h299v470h-177z" />
    <glyph glyph-name="uni0415" unicode="&#x415;" horiz-adv-x="569" 
d="M517 565h-328v-169h246v-92h-246v-209h340v-95h-446v660h434v-95z" />
    <glyph glyph-name="uni0416" unicode="&#x416;" horiz-adv-x="990" 
d="M677 351l291 -351h-131l-286 351l257 309h130zM439 351l-286 -351h-131l291 351l-261 309h130zM548 0h-106v660h106v-660z" />
    <glyph glyph-name="uni0417" unicode="&#x417;" horiz-adv-x="585" 
d="M287 671q46 0 85 -14t67.5 -39t44.5 -58.5t16 -73.5q0 -42 -17 -75.5t-48 -56.5q51 -22 79 -63.5t28 -97.5q0 -45 -19 -82.5t-52 -64.5t-77.5 -42t-95.5 -15q-88 0 -153.5 40.5t-101.5 107.5l75 55q33 -50 77.5 -78t101.5 -28q29 0 54 8t44 22.5t29.5 35t10.5 46.5
q0 41 -29.5 70.5t-85.5 29.5h-133v91h106q50 0 75 26t25 64q0 42 -28 68.5t-78 26.5q-48 0 -86.5 -24t-65.5 -65l-76 55q33 59 92.5 95t135.5 36z" />
    <glyph glyph-name="uni0418" unicode="&#x418;" horiz-adv-x="721" 
d="M637 0h-106v455l-412 -466h-36v671h106v-453l412 464h36v-671z" />
    <glyph glyph-name="uni0419" unicode="&#x419;" horiz-adv-x="721" 
d="M637 0h-106v455l-412 -466h-36v671h106v-453l412 464h36v-671zM512 897q0 -35 -12 -64.5t-33.5 -51.5t-51 -34t-65.5 -12t-65.5 12t-51 34t-33.5 51.5t-12 64.5h85q0 -38 22 -60t55 -22q34 0 55.5 22t21.5 60h85z" />
    <glyph glyph-name="uni041A" unicode="&#x41a;" horiz-adv-x="651" 
d="M324 351l305 -351h-131l-306 351l277 309h130zM189 0h-106v660h106v-660z" />
    <glyph glyph-name="uni041B" unicode="&#x41b;" horiz-adv-x="655" 
d="M571 1h-106v564h-194q-1 -159 -21 -264.5t-55.5 -171t-85 -96t-109.5 -37.5v99q42 9 73.5 39t52.5 85.5t31 137.5t10 195v108h404v-659z" />
    <glyph glyph-name="uni041C" unicode="&#x41c;" horiz-adv-x="793" 
d="M710 0h-106v414l-190 -248h-35l-190 249v-415h-106v671h36l277 -369l278 369h36v-671z" />
    <glyph glyph-name="uni041D" unicode="&#x41d;" horiz-adv-x="711" 
d="M627 0h-106v302h-332v-302h-106v660h106v-263h332v263h106v-660z" />
    <glyph glyph-name="uni041E" unicode="&#x41e;" horiz-adv-x="780" 
d="M389 671q72 0 135 -26t110 -72t74.5 -108.5t27.5 -134.5q0 -73 -27.5 -135.5t-74.5 -108t-110 -71.5t-135 -26t-135.5 26t-110 72t-73.5 108.5t-27 134.5t27 134.5t74 108.5t110 72t135 26zM390 574q-51 0 -94.5 -18.5t-75 -50.5t-49.5 -77t-18 -97q0 -53 18 -98
t49.5 -77.5t75 -51t94.5 -18.5t94 18.5t75 51t50 77.5t18 98q0 52 -18 96.5t-50 77t-75 51t-94 18.5z" />
    <glyph glyph-name="uni041F" unicode="&#x41f;" horiz-adv-x="686" 
d="M603 0h-106v565h-308v-565h-106v660h520v-660z" />
    <glyph glyph-name="uni0420" unicode="&#x420;" horiz-adv-x="583" 
d="M323 660q51 0 92.5 -14.5t71 -41.5t45.5 -64t16 -82t-16 -82t-45.5 -64t-71 -42t-92.5 -15h-134v-255h-106v660h240zM189 566v-217h133q57 0 87 30t30 78t-30 78.5t-87 30.5h-133z" />
    <glyph glyph-name="uni0421" unicode="&#x421;" horiz-adv-x="717" 
d="M390 671q93 0 166.5 -41.5t116.5 -110.5l-80 -59q-35 54 -86 84t-117 30q-51 0 -94.5 -18.5t-75.5 -51t-50 -77t-18 -97.5t18 -97.5t50 -77t75.5 -51t94.5 -18.5q66 0 117 30t86 84l80 -59q-42 -69 -116 -110.5t-167 -41.5q-73 0 -136 26t-110 71.5t-74 108t-27 135.5
q0 72 27 134.5t74 108.5t110 72t136 26z" />
    <glyph glyph-name="uni0422" unicode="&#x422;" horiz-adv-x="583" 
d="M566 565h-222v-565h-106v565h-222v95h550v-95z" />
    <glyph glyph-name="uni0423" unicode="&#x423;" horiz-adv-x="620" 
d="M369 129q-31 -72 -82.5 -106t-126.5 -34q-20 0 -41.5 2.5t-41.5 7.5v92q18 -2 33.5 -3.5t29.5 -1.5q38 0 72.5 16.5t53.5 57.5l-234 500h122l169 -381l155 381h120z" />
    <glyph glyph-name="uni0424" unicode="&#x424;" horiz-adv-x="817" 
d="M461 609q68 0 125.5 -19t99 -54.5t65 -86t23.5 -114.5q0 -65 -23.5 -116t-65 -86.5t-99 -55t-125.5 -19.5v-89h-106v89q-68 0 -125 19.5t-98.5 55t-65 86.5t-23.5 116q0 64 23.5 114.5t65 85.5t98.5 54t125 20v83h106v-83zM149 332q0 -88 56 -134.5t150 -46.5v365
q-94 -1 -150 -48.5t-56 -135.5zM667 332q0 87 -56.5 135t-149.5 49v-365q93 0 149.5 47t56.5 134z" />
    <glyph glyph-name="uni0425" unicode="&#x425;" horiz-adv-x="607" 
d="M363 336l221 -336h-121l-160 245l-159 -245h-122l223 336l-209 324h122l145 -234l145 234h121z" />
    <glyph glyph-name="uni0426" unicode="&#x426;" horiz-adv-x="711" 
d="M598 95h83v-236h-106v141h-492v660h106v-565h303v565h106v-565z" />
    <glyph glyph-name="uni0427" unicode="&#x427;" horiz-adv-x="634" 
d="M550 0h-106v240q-29 -9 -61.5 -14t-67.5 -5q-59 0 -109 17t-86 51t-56.5 83.5t-20.5 114.5v173h106v-164q0 -89 47.5 -133t122.5 -44q29 0 62 6.5t63 17.5v317h106v-660z" />
    <glyph glyph-name="uni0428" unicode="&#x428;" horiz-adv-x="1030" 
d="M947 0h-864v660h106v-565h273v565h106v-565h273v565h106v-660z" />
    <glyph glyph-name="uni0429" unicode="&#x429;" horiz-adv-x="1060" 
d="M947 95h83v-236h-106v141h-841v660h106v-565h273v565h106v-565h273v565h106v-565z" />
    <glyph glyph-name="uni042A" unicode="&#x42a;" horiz-adv-x="643" 
d="M208 416h159q52 0 95 -15.5t73 -43t46.5 -65.5t16.5 -84t-16.5 -84.5t-46.5 -66t-73 -42.5t-95 -15h-265v565h-112v95h218v-244zM208 322v-228h159q60 0 91 32t31 82t-31 82t-91 32h-159z" />
    <glyph glyph-name="uni042B" unicode="&#x42b;" horiz-adv-x="896" 
d="M189 416h160q52 0 94.5 -15.5t73 -43t47 -65.5t16.5 -84t-16.5 -84.5t-47 -66t-73 -42.5t-94.5 -15h-266v660h106v-244zM189 322v-228h160q59 0 90.5 32t31.5 82t-31.5 82t-90.5 32h-160zM813 0h-106v660h106v-660z" />
    <glyph glyph-name="uni042C" unicode="&#x42c;" horiz-adv-x="624" 
d="M189 416h160q52 0 94.5 -15.5t73 -43t47 -65.5t16.5 -84t-16.5 -84.5t-47 -66t-73 -42.5t-94.5 -15h-266v660h106v-244zM189 322v-228h160q59 0 90.5 32t31.5 82t-31.5 82t-90.5 32h-160z" />
    <glyph glyph-name="uni042D" unicode="&#x42d;" horiz-adv-x="717" 
d="M327 671q72 0 135.5 -26t110.5 -72t74 -108.5t27 -134.5q0 -73 -27 -135.5t-74 -108t-110.5 -71.5t-135.5 -26q-94 0 -167.5 41.5t-115.5 110.5l80 59q35 -54 85.5 -84t116.5 -30q48 0 89 16t72.5 45t51 69t24.5 88h-328v92h321q-10 40 -31.5 72.5t-51.5 56t-67.5 36.5
t-79.5 13q-66 0 -116.5 -30t-85.5 -84l-80 59q42 69 115.5 110.5t167.5 41.5z" />
    <glyph glyph-name="uni042E" unicode="&#x42e;" horiz-adv-x="1067" 
d="M189 397h153q11 60 41 110t74.5 86.5t100.5 57t119 20.5q71 0 134 -26t110 -72t74.5 -108.5t27.5 -134.5q0 -73 -27.5 -135.5t-74.5 -108t-110 -71.5t-134 -26q-68 0 -128 23.5t-105 65.5t-73.5 99.5t-33.5 124.5h-148v-302h-106v660h106v-263zM677 574
q-50 0 -93.5 -18.5t-75 -50.5t-49.5 -77t-18 -97q0 -53 18 -98t49.5 -77.5t75 -51t93.5 -18.5q51 0 94 18.5t75 51t50 77.5t18 98q0 52 -18 96.5t-50 77t-75 51t-94 18.5z" />
    <glyph glyph-name="uni042F" unicode="&#x42f;" horiz-adv-x="628" 
d="M545 0h-106v227h-121h-21l-151 -227h-120l168 254q-55 26 -85.5 75.5t-30.5 114.5q0 48 17 87.5t48.5 68t76 44.5t98.5 16h227v-660zM317 566q-63 0 -96.5 -35t-33.5 -87q0 -54 33.5 -88.5t96.5 -34.5h122v245h-122z" />
    <glyph glyph-name="uni0430" unicode="&#x430;" horiz-adv-x="536" 
d="M264 502q45 0 82 -13t63.5 -38.5t41.5 -64t15 -89.5v-297h-98v55q-26 -31 -66 -48.5t-91 -17.5q-39 0 -70.5 10t-54 29t-34.5 45t-12 58q0 65 49 102.5t132 37.5h139v32q0 51 -27 78t-78 27q-43 0 -75 -19t-62 -54l-60 62q38 54 91 79.5t115 25.5zM233 70q26 0 49 8.5
t40.5 24t27.5 37t10 46.5v9h-126q-42 0 -64.5 -15t-22.5 -45q0 -32 25 -48.5t61 -16.5z" />
    <glyph glyph-name="uni0431" unicode="&#x431;" horiz-adv-x="620" 
d="M526 670l-133 -37q-51 -15 -90.5 -34t-68 -46t-44.5 -63.5t-19 -86.5q29 35 70.5 56.5t95.5 21.5q49 0 93 -19t76 -52.5t51 -78t19 -95.5t-19 -96t-53 -78.5t-81 -52.5t-103 -19q-55 0 -102 19.5t-81.5 56t-54 89t-19.5 118.5v59q0 91 19.5 155.5t57.5 110.5t94 75.5
t129 50.5l140 37zM319 384q-31 0 -58 -11.5t-47.5 -31.5t-32 -47.5t-11.5 -58.5q0 -32 11.5 -59t32 -47t47.5 -31.5t58 -11.5t58 11.5t47.5 31.5t32 47t11.5 59q0 31 -11.5 58.5t-32 47.5t-47.5 31.5t-58 11.5z" />
    <glyph glyph-name="uni0432" unicode="&#x432;" horiz-adv-x="552" 
d="M309 491q73 0 119 -35t46 -97q0 -61 -44 -97q35 -16 56.5 -45t21.5 -71q0 -32 -12.5 -58.5t-35 -46t-54.5 -30.5t-71 -11h-253v491h227zM184 214v-125h143q40 0 61 17.5t21 46.5t-21.5 45t-60.5 16h-143zM184 403v-107h123q34 0 50.5 14t16.5 40q0 53 -67 53h-123z" />
    <glyph glyph-name="uni0433" unicode="&#x433;" horiz-adv-x="448" 
d="M435 400h-248v-400h-105v491h353v-91z" />
    <glyph glyph-name="uni0434" unicode="&#x434;" horiz-adv-x="643" 
d="M608 -141h-105v141h-364v-141h-105v232h50q22 20 39.5 48t29.5 68.5t18.5 97t6.5 134.5v52h346v-400h84v-232zM283 400q-1 -112 -18.5 -187t-61.5 -122h216v309h-136z" />
    <glyph glyph-name="uni0435" unicode="&#x435;" horiz-adv-x="570" 
d="M299 502q49 0 91 -17t72 -47t47 -71.5t17 -89.5q0 -20 -2.5 -38t-5.5 -28h-366q11 -61 54 -95t106 -34q43 0 78 15.5t65 42.5l51 -72q-39 -37 -88 -58t-108 -21q-57 0 -106 19.5t-84 54t-55 81.5t-20 101t19.5 101t54 81.5t80.5 54.5t100 20zM296 413q-54 0 -92 -32.5
t-50 -87.5h267q-2 58 -38.5 89t-86.5 31z" />
    <glyph glyph-name="uni0436" unicode="&#x436;" horiz-adv-x="810" 
d="M585 266l211 -266h-125l-210 266l189 225h129zM349 266l-211 -266h-124l211 267l-193 224h128zM458 0h-105v491h105v-491z" />
    <glyph glyph-name="uni0437" unicode="&#x437;" horiz-adv-x="503" 
d="M244 -11q-133 0 -205 93l64 63q23 -27 56.5 -45t84.5 -18q50 0 75.5 18.5t25.5 49.5q0 29 -22.5 46.5t-68.5 17.5h-90v84h89q35 0 52.5 15t17.5 40q0 56 -84 56q-47 0 -78 -15.5t-52 -39.5l-64 63q31 39 81 62t116 23q41 0 75.5 -9.5t59 -27t38.5 -43.5t14 -59
q0 -32 -14.5 -59.5t-40.5 -47.5q35 -19 55 -50t20 -69q0 -34 -15.5 -61.5t-42.5 -46.5t-64.5 -29.5t-82.5 -10.5z" />
    <glyph glyph-name="uni0438" unicode="&#x438;" horiz-adv-x="603" 
d="M522 0h-104v302l-300 -313h-36v502h105v-303l300 314h35v-502z" />
    <glyph glyph-name="uni0439" unicode="&#x439;" horiz-adv-x="603" 
d="M522 0h-104v302l-300 -313h-36v502h105v-303l300 314h35v-502zM466 742q0 -35 -12 -64.5t-33.5 -51.5t-51 -34t-65.5 -12t-65.5 12t-51 34t-33.5 51.5t-12 64.5h85q0 -38 22 -60t55 -22q34 0 56 22t22 60h84z" />
    <glyph glyph-name="uni043A" unicode="&#x43a;" horiz-adv-x="546" 
d="M317 268l215 -268h-125l-215 266l196 225h127zM187 0h-105v491h105v-491z" />
    <glyph glyph-name="uni043B" unicode="&#x43b;" horiz-adv-x="574" 
d="M493 0h-104v400h-149v-48q0 -98 -17 -164t-47.5 -107.5t-72 -61t-89.5 -24.5v93q33 7 56 27t37.5 57.5t21 93.5t6.5 136v89h358v-491z" />
    <glyph glyph-name="uni043C" unicode="&#x43c;" horiz-adv-x="698" 
d="M617 0h-106v284l-143 -167h-37l-144 166v-283h-105v502h36l232 -267l232 267h35v-502z" />
    <glyph glyph-name="uni043D" unicode="&#x43d;" horiz-adv-x="592" 
d="M511 0h-105v212h-219v-212h-105v491h105v-188h219v188h105v-491z" />
    <glyph glyph-name="uni043E" unicode="&#x43e;" horiz-adv-x="609" 
d="M305 502q54 0 101 -20t82.5 -54.5t56 -81t20.5 -100.5t-20.5 -101t-56 -81.5t-83 -54.5t-101.5 -20t-101 20t-82.5 54.5t-55.5 81.5t-20 101t20 100.5t55.5 81t83 54.5t101.5 20zM305 406q-33 0 -61.5 -12.5t-48.5 -34t-31 -51t-11 -63.5t11 -63t31.5 -50.5t48 -33.5
t60.5 -12t61 12t48.5 33.5t32 50.5t11.5 63t-11.5 63.5t-32 51t-48.5 34t-60 12.5z" />
    <glyph glyph-name="uni043F" unicode="&#x43f;" horiz-adv-x="586" 
d="M504 0h-106v400h-211v-400h-105v491h422v-491z" />
    <glyph glyph-name="uni0440" unicode="&#x440;" horiz-adv-x="636" 
d="M350 502q52 0 96.5 -19.5t76.5 -54t50 -81t18 -101.5t-18 -102t-50.5 -81.5t-76.5 -54t-96 -19.5q-51 0 -93.5 18t-70.5 52v-239h-105v671h97v-71q27 39 72 60.5t100 21.5zM333 406q-27 0 -53.5 -9.5t-47.5 -29t-34 -49.5t-13 -72t12.5 -72t33.5 -50t47.5 -29.5
t54.5 -9.5q31 0 58.5 11.5t48 32.5t32 50.5t11.5 65.5t-11.5 65.5t-31.5 50.5t-47.5 33t-59.5 12z" />
    <glyph glyph-name="uni0441" unicode="&#x441;" horiz-adv-x="552" 
d="M305 502q70 0 123 -31t85 -83l-74 -58q-25 34 -56.5 54.5t-76.5 20.5q-33 0 -61.5 -12.5t-48.5 -34t-31.5 -50.5t-11.5 -62q0 -34 11.5 -63.5t31.5 -51t48.5 -33.5t61.5 -12q45 0 76 20t56 54l74 -57q-32 -52 -85 -83t-122 -31q-54 0 -101.5 20t-83 54.5t-55.5 81.5
t-20 101t20 100.5t55.5 81t83 54.5t101.5 20z" />
    <glyph glyph-name="uni0442" unicode="&#x442;" horiz-adv-x="467" 
d="M451 400h-165v-400h-105v400h-165v91h435v-91z" />
    <glyph glyph-name="uni0443" unicode="&#x443;" horiz-adv-x="549" 
d="M291 -56q-31 -71 -74.5 -103t-106.5 -32q-20 0 -41 2.5t-40 7.5v89q18 -2 32 -3t27 -1q34 0 60.5 14t46.5 58l20 46l-196 469h113l140 -358l146 358h112z" />
    <glyph glyph-name="uni0444" unicode="&#x444;" horiz-adv-x="757" 
d="M431 501q60 0 111.5 -18t89.5 -51t59.5 -80t21.5 -106t-21.5 -106.5t-59 -81t-89.5 -51.5t-112 -18v-169h-105v169q-61 1 -112.5 19t-89 51t-58.5 80.5t-21 106.5t21.5 106t59 80t89 50.5t111.5 18.5v249h105v-249zM428 409v-329h2q81 0 129.5 43.5t48.5 120.5
q0 78 -48.5 121.5t-129.5 43.5h-2zM150 244q0 -77 48 -120.5t129 -43.5h2v329h-2q-81 0 -129 -43.5t-48 -121.5z" />
    <glyph glyph-name="uni0445" unicode="&#x445;" horiz-adv-x="514" 
d="M315 254l184 -254h-119l-124 178l-123 -178h-119l182 255l-169 236h119l110 -160l111 160h119z" />
    <glyph glyph-name="uni0446" unicode="&#x446;" horiz-adv-x="609" 
d="M492 91h83v-232h-105v141h-388v491h105v-400h200v400h105v-400z" />
    <glyph glyph-name="uni0447" unicode="&#x447;" horiz-adv-x="555" 
d="M473 0h-105v177q-21 -7 -46 -11.5t-53 -4.5q-48 0 -89 14.5t-71 43t-47 70.5t-17 97v105h105v-98q0 -71 35 -102.5t92 -31.5q21 0 44.5 3.5t46.5 11.5v217h105v-491z" />
    <glyph glyph-name="uni0448" unicode="&#x448;" horiz-adv-x="871" 
d="M790 0h-708v491h105v-400h196v400h105v-400h197v400h105v-491z" />
    <glyph glyph-name="uni0449" unicode="&#x449;" horiz-adv-x="907" 
d="M790 91h83v-232h-106v141h-685v491h105v-400h197v400h105v-400h196v400h105v-400z" />
    <glyph glyph-name="uni044A" unicode="&#x44a;" horiz-adv-x="574" 
d="M211 349h118q43 0 79.5 -12t62 -34.5t40 -55t14.5 -72.5q0 -41 -14.5 -73t-40 -55t-62 -35t-79.5 -12h-224v400h-105v91h211v-142zM211 258v-167h110q45 0 71 22t26 60t-26 61.5t-71 23.5h-110z" />
    <glyph glyph-name="uni044B" unicode="&#x44b;" horiz-adv-x="792" 
d="M711 0h-105v491h105v-491zM187 349h118q43 0 79.5 -12t62.5 -34.5t40.5 -55t14.5 -72.5q0 -41 -14.5 -73t-40.5 -55t-62.5 -35t-79.5 -12h-223v491h105v-142zM187 258v-167h111q45 0 70.5 22t25.5 60t-26 61.5t-71 23.5h-110z" />
    <glyph glyph-name="uni044C" unicode="&#x44c;" horiz-adv-x="550" 
d="M187 349h118q43 0 79.5 -12t62.5 -34.5t40.5 -55t14.5 -72.5q0 -41 -14.5 -73t-40.5 -55t-62.5 -35t-79.5 -12h-223v491h105v-142zM187 258v-167h111q45 0 70.5 22t25.5 60t-26 61.5t-71 23.5h-110z" />
    <glyph glyph-name="uni044D" unicode="&#x44d;" horiz-adv-x="552" 
d="M246 502q55 0 102.5 -20t82.5 -54.5t55.5 -81t20.5 -100.5t-20.5 -101t-55.5 -81.5t-82.5 -54.5t-102.5 -20q-67 0 -119 29.5t-87 83.5l71 57q25 -34 57.5 -55t77.5 -21q58 0 99 35.5t52 90.5h-213v82h211q-13 51 -52.5 83.5t-96.5 32.5q-46 0 -78.5 -21t-57.5 -54
l-71 56q35 54 87 84t120 30z" />
    <glyph glyph-name="uni044E" unicode="&#x44e;" horiz-adv-x="857" 
d="M187 303h114q9 43 32 79.5t55.5 63t73.5 41.5t88 15q54 0 101.5 -20t83.5 -54.5t56.5 -81t20.5 -100.5t-20.5 -101t-56 -81.5t-83.5 -54.5t-102 -20q-50 0 -93.5 17t-77 46.5t-55 70.5t-27.5 89h-110v-212h-105v491h105v-188zM551 405q-33 0 -60.5 -12t-48 -33.5t-32 -51
t-11.5 -63.5t11.5 -63t32 -50.5t48 -33.5t60.5 -12t60.5 12t48 33.5t32 50.5t11.5 64q0 34 -11.5 63t-32 50.5t-48 33.5t-60.5 12z" />
    <glyph glyph-name="uni044F" unicode="&#x44f;" horiz-adv-x="569" 
d="M487 0h-105v142h-118h-3l-122 -142h-118l136 165q-42 22 -66 60t-24 91q0 40 14.5 72.5t40.5 55t62 35t80 12.5h223v-491zM272 400q-45 0 -71 -22t-26 -61q0 -38 26 -61t71 -23h110v167h-110z" />
    <glyph glyph-name="uni0450" unicode="&#x450;" horiz-adv-x="570" 
d="M299 502q49 0 91 -17t72 -47t47 -71.5t17 -89.5q0 -20 -2.5 -38t-5.5 -28h-366q11 -61 54 -95t106 -34q43 0 78 15.5t65 42.5l51 -72q-39 -37 -88 -58t-108 -21q-57 0 -106 19.5t-84 54t-55 81.5t-20 101t19.5 101t54 81.5t80.5 54.5t100 20zM296 413q-54 0 -92 -32.5
t-50 -87.5h267q-2 58 -38.5 89t-86.5 31zM336 568h-78l-128 193v19h127z" />
    <glyph glyph-name="uni0451" unicode="&#x451;" horiz-adv-x="570" 
d="M299 502q49 0 91 -17t72 -47t47 -71.5t17 -89.5q0 -20 -2.5 -38t-5.5 -28h-366q11 -61 54 -95t106 -34q43 0 78 15.5t65 42.5l51 -72q-39 -37 -88 -58t-108 -21q-57 0 -106 19.5t-84 54t-55 81.5t-20 101t19.5 101t54 81.5t80.5 54.5t100 20zM296 413q-54 0 -92 -32.5
t-50 -87.5h267q-2 58 -38.5 89t-86.5 31zM409 740q28 0 47.5 -18.5t19.5 -47.5q0 -26 -19.5 -45.5t-47.5 -19.5q-26 0 -47 19.5t-21 45.5q0 29 21 47.5t47 18.5zM184 740q28 0 47.5 -18.5t19.5 -47.5q0 -26 -19.5 -45.5t-47.5 -19.5q-26 0 -47 19.5t-21 45.5q0 29 21 47.5
t47 18.5z" />
    <glyph glyph-name="uni0452" unicode="&#x452;" horiz-adv-x="589" 
d="M383 566h-196v-145q25 29 60.5 44.5t80.5 15.5q42 0 76 -14.5t58 -40t36.5 -62t12.5 -79.5v-305q0 -89 -49 -130t-127 -41q-40 0 -67 9v89q24 -3 42 -3q45 0 70 18t25 67v283q0 50 -28.5 81t-77.5 31q-50 0 -81 -31t-31 -81v-272h-105v566h-81v90h81v94h105v-94h196v-90z
" />
    <glyph glyph-name="uni0453" unicode="&#x453;" horiz-adv-x="448" 
d="M435 400h-248v-400h-105v491h353v-91zM413 761l-128 -193h-78l79 212h127v-19z" />
    <glyph glyph-name="uni0454" unicode="&#x454;" horiz-adv-x="557" 
d="M306 502q67 0 119.5 -30t87.5 -84l-72 -56q-24 33 -57 54t-78 21q-57 0 -96.5 -32.5t-53.5 -83.5h212v-82h-214q11 -55 51.5 -90.5t100.5 -35.5q45 0 77 21t57 55l72 -57q-35 -54 -87 -83.5t-119 -29.5q-55 0 -102.5 20t-83 54.5t-55.5 81.5t-20 101t20 100.5t55.5 81
t83 54.5t102.5 20z" />
    <glyph glyph-name="uni0455" unicode="&#x455;" horiz-adv-x="455" 
d="M233 502q54 0 96.5 -19.5t73.5 -56.5l-57 -65q-24 24 -54 37t-62 13q-29 0 -48 -11.5t-19 -35.5q0 -20 16 -32t50 -26l46 -19q67 -28 101 -61t34 -87q0 -37 -14.5 -65t-39.5 -47t-58 -28.5t-70 -9.5q-66 0 -116 26.5t-82 68.5l59 66q30 -31 63.5 -50.5t75.5 -19.5
q32 0 55 13.5t23 41.5q0 24 -19 36.5t-49 24.5l-50 21q-30 12 -53.5 25.5t-40 30.5t-25.5 38t-9 49q0 34 13.5 60.5t36.5 44.5t55 27.5t68 9.5z" />
    <glyph glyph-name="uni0456" unicode="&#x456;" horiz-adv-x="273" 
d="M189 0h-105v491h105v-491zM137 744q29 0 50.5 -20.5t21.5 -49.5t-21.5 -49t-50.5 -20q-30 0 -51 20t-21 49t21 49.5t51 20.5z" />
    <glyph glyph-name="uni0457" unicode="&#x457;" horiz-adv-x="273" 
d="M190 0h-105v491h105v-491zM31 735q28 0 48 -18.5t20 -47.5q0 -26 -20 -45.5t-48 -19.5q-26 0 -47 19.5t-21 45.5q0 29 21 47.5t47 18.5zM242 735q28 0 48 -18.5t20 -47.5q0 -26 -20 -45.5t-48 -19.5q-26 0 -46.5 19.5t-20.5 45.5q0 29 20.5 47.5t46.5 18.5z" />
    <glyph glyph-name="uni0458" unicode="&#x458;" horiz-adv-x="273" 
d="M189 -20q0 -89 -48.5 -130t-126.5 -41q-40 0 -68 9v89q13 -2 22.5 -2.5t20.5 -0.5q45 0 70 18.5t25 66.5v502h105v-511zM137 744q29 0 50.5 -20.5t21.5 -49.5t-21.5 -49t-50.5 -20q-30 0 -51 20t-21 49t21 49.5t51 20.5z" />
    <glyph glyph-name="uni0459" unicode="&#x459;" horiz-adv-x="856" 
d="M493 349h118q43 0 79.5 -12t62.5 -34.5t40.5 -55t14.5 -72.5q0 -41 -14.5 -73t-40.5 -55t-62.5 -35t-79.5 -12h-222v400h-149v-48q0 -98 -17 -164t-47.5 -107.5t-72 -61t-89.5 -24.5v93q33 7 56 27t37.5 57.5t21 93.5t6.5 136v89h358v-142zM492 258v-167h111q44 0 70 22
t26 60t-26 61.5t-70 23.5h-111z" />
    <glyph glyph-name="uni045A" unicode="&#x45a;" horiz-adv-x="867" 
d="M504 336h117q44 0 80.5 -11.5t62.5 -33t40.5 -52.5t14.5 -70q0 -41 -14.5 -72t-40.5 -53t-62.5 -33t-80.5 -11h-222v220h-212v-220h-105v491h105v-180h212v180h105v-155zM504 245v-154h110q44 0 70.5 19t26.5 57q0 37 -26.5 57.5t-70.5 20.5h-110z" />
    <glyph glyph-name="uni045B" unicode="&#x45b;" horiz-adv-x="589" 
d="M383 566h-196v-145q25 29 60.5 44.5t80.5 15.5q42 0 76 -14.5t58 -40t36.5 -62t12.5 -79.5v-285h-106v272q0 50 -28.5 81t-77.5 31q-50 0 -81 -31t-31 -81v-272h-105v566h-81v90h81v94h105v-94h196v-90z" />
    <glyph glyph-name="uni045C" unicode="&#x45c;" horiz-adv-x="546" 
d="M317 268l215 -268h-125l-215 266l196 225h127zM187 0h-105v491h105v-491zM450 761l-128 -193h-78l79 212h127v-19z" />
    <glyph glyph-name="uni045D" unicode="&#x45d;" horiz-adv-x="603" 
d="M522 0h-104v302l-300 -313h-36v502h105v-303l300 314h35v-502zM343 568h-78l-128 193v19h127z" />
    <glyph glyph-name="uni045E" unicode="&#x45e;" horiz-adv-x="549" 
d="M291 -56q-31 -71 -74.5 -103t-106.5 -32q-20 0 -41 2.5t-40 7.5v89q18 -2 32 -3t27 -1q34 0 60.5 14t46.5 58l20 46l-196 469h113l140 -358l146 358h112zM435 742q0 -35 -12 -64.5t-33.5 -51.5t-51 -34t-65.5 -12t-65.5 12t-51 34t-33.5 51.5t-12 64.5h85q0 -38 22 -60
t55 -22q34 0 56 22t22 60h84z" />
    <glyph glyph-name="uni045F" unicode="&#x45f;" horiz-adv-x="574" 
d="M493 0h-154v-141h-105v141h-152v491h105v-400h201v400h105v-491z" />
    <glyph glyph-name="uni0462" unicode="&#x462;" horiz-adv-x="624" 
d="M189 580h271v-89h-271v-94h161q54 0 96.5 -15t72 -41t45.5 -63t16 -80q0 -44 -16 -80.5t-46 -62.5t-72.5 -40.5t-96.5 -14.5h-266v491h-80v89h80v80h106v-80zM189 303v-209h161q59 0 90 30t31 74q0 45 -31 75t-90 30h-161z" />
    <glyph glyph-name="uni0463" unicode="&#x463;" horiz-adv-x="550" 
d="M187 502h201v-89h-201v-77h118q43 0 79.5 -12t62.5 -34t40.5 -52.5t14.5 -67.5q0 -39 -14.5 -70t-40.5 -53.5t-62.5 -34.5t-79.5 -12h-223v413h-81v89h81v248h105v-248zM186 248v-157h111q47 0 72 21.5t25 56.5t-25 57t-72 22h-111z" />
    <glyph glyph-name="uni0472" unicode="&#x472;" horiz-adv-x="780" 
d="M389 671q72 0 135 -26t110 -72t74.5 -108.5t27.5 -134.5q0 -73 -27.5 -135.5t-74.5 -108t-110 -71.5t-135 -26t-135.5 26t-110 72t-73.5 108.5t-27 134.5t27 134.5t74 108.5t110 72t135 26zM389 86q48 0 90 16.5t73.5 46.5t51 71t22.5 90q-63 -28 -122 -28q-33 0 -61 6.5
t-54 14t-53.5 14t-58.5 6.5q-30 0 -59.5 -7.5t-62.5 -21.5q6 -46 25.5 -84t50.5 -65.5t71 -43t87 -15.5zM277 419q32 0 59.5 -6.5t54 -14t54 -13.5t59.5 -6q28 0 55.5 5.5t57.5 18.5q-11 38 -32 69.5t-50.5 54t-66.5 35t-79 12.5q-43 0 -80.5 -13.5t-67.5 -37.5t-51 -57.5
t-30 -73.5q31 14 59.5 20.5t57.5 6.5z" />
    <glyph glyph-name="uni0473" unicode="&#x473;" horiz-adv-x="609" 
d="M305 502q54 0 101 -20t82.5 -54.5t56 -81.5t20.5 -101t-20.5 -101t-56 -81.5t-83 -54t-101.5 -19.5t-101 19.5t-82.5 54t-55.5 81.5t-20 101t20 101t55.5 81.5t83 54.5t101.5 20zM303 82q59 0 101.5 35.5t53.5 92.5q-35 -14 -72 -14q-24 0 -44 4.5t-38.5 10t-38 10
t-41.5 4.5q-19 0 -36.5 -3.5t-36.5 -10.5q10 -58 51.5 -93.5t100.5 -35.5zM224 305q23 0 42.5 -4.5t38.5 -10.5t38.5 -10.5t42.5 -4.5q35 0 70 13q-13 54 -54 87.5t-98 33.5t-97 -32.5t-53 -85.5q18 7 35 10.5t35 3.5z" />
    <glyph glyph-name="uni0474" unicode="&#x474;" horiz-adv-x="684" 
d="M627 671q16 0 30 -2.5t27 -6.5v-91q-18 3 -32 3q-28 0 -46 -16.5t-33 -49.5l-224 -519h-36l-291 671h119l190 -459l149 357q23 58 58 85.5t89 27.5z" />
    <glyph glyph-name="uni0475" unicode="&#x475;" horiz-adv-x="552" 
d="M499 498q14 0 27.5 -1.5t25.5 -5.5v-89q-10 1 -15.5 1h-11.5q-20 0 -34.5 -10.5t-26.5 -35.5l-171 -368h-37l-237 502h112l143 -324l104 235q22 49 50 72.5t71 23.5z" />
    <glyph glyph-name="uni0490" unicode="&#x490;" horiz-adv-x="494" 
d="M469 565h-280v-565h-106v660h280v121h106v-216z" />
    <glyph glyph-name="uni0491" unicode="&#x491;" horiz-adv-x="459" 
d="M446 400h-259v-400h-105v491h259v127h105v-218z" />
    <glyph glyph-name="uni0492" unicode="&#x492;" horiz-adv-x="505" 
d="M434 272h-238v-272h-106v272h-95v96h95v292h392v-95h-286v-197h238v-96z" />
    <glyph glyph-name="uni0493" unicode="&#x493;" horiz-adv-x="472" 
d="M413 181h-226v-181h-105v181h-81v90h81v220h373v-91h-268v-129h226v-90z" />
    <glyph glyph-name="uni0496" unicode="&#x496;" horiz-adv-x="984" 
d="M677 352l213 -258h82v-235h-105v141h-30l-286 351l257 309h130zM439 351l-286 -351h-131l291 351l-261 309h130zM548 0h-106v660h106v-660z" />
    <glyph glyph-name="uni0497" unicode="&#x497;" horiz-adv-x="840" 
d="M584 266l140 -175h82v-232h-106v141h-29l-210 266l189 225h129zM349 266l-211 -266h-124l211 267l-193 224h128zM458 0h-105v491h105v-491z" />
    <glyph glyph-name="uni0498" unicode="&#x498;" horiz-adv-x="585" 
d="M287 671q46 0 85 -14t67.5 -39t44.5 -58.5t16 -73.5q0 -42 -17 -75.5t-48 -56.5q51 -22 79 -63.5t28 -97.5q0 -45 -19 -82.5t-52 -64.5t-77.5 -42t-95.5 -15q-88 0 -153.5 40.5t-101.5 107.5l75 55q33 -50 77.5 -78t101.5 -28q29 0 54 8t44 22.5t29.5 35t10.5 46.5
q0 41 -29.5 70.5t-85.5 29.5h-133v91h106q50 0 75 26t25 64q0 42 -28 68.5t-78 26.5q-48 0 -86.5 -24t-65.5 -65l-76 55q33 59 92.5 95t135.5 36zM314 35q30 -16 48 -43t18 -63q0 -25 -9.5 -46.5t-28 -38t-45 -26t-60.5 -9.5q-18 0 -36.5 2.5t-34.5 6.5v72q37 -3 58 -3
q31 0 50.5 14.5t19.5 46.5q0 20 -7 36.5t-16 29.5z" />
    <glyph glyph-name="uni0499" unicode="&#x499;" horiz-adv-x="503" 
d="M244 -11q-133 0 -205 93l64 63q23 -27 56.5 -45t84.5 -18q50 0 75.5 18.5t25.5 49.5q0 29 -22.5 46.5t-68.5 17.5h-90v84h89q35 0 52.5 15t17.5 40q0 56 -84 56q-47 0 -78 -15.5t-52 -39.5l-64 63q31 39 81 62t116 23q41 0 75.5 -9.5t59 -27t38.5 -43.5t14 -59
q0 -32 -14.5 -59.5t-40.5 -47.5q35 -19 55 -50t20 -69q0 -34 -15.5 -61.5t-42.5 -46.5t-64.5 -29.5t-82.5 -10.5zM268 35q30 -16 48 -43t18 -63q0 -25 -9.5 -46.5t-28 -38t-45 -26t-60.5 -9.5q-18 0 -36.5 2.5t-34.5 6.5v72q37 -3 58 -3q31 0 50.5 14.5t19.5 46.5
q0 20 -7 36.5t-16 29.5z" />
    <glyph glyph-name="uni049A" unicode="&#x49a;" horiz-adv-x="651" 
d="M324 351l223 -256h93v-236h-106v141h-36l-306 351l277 309h130zM189 0h-106v660h106v-660z" />
    <glyph glyph-name="uni049B" unicode="&#x49b;" horiz-adv-x="574" 
d="M315 268l144 -177h81v-232h-105v141h-29l-215 266l196 225h127zM187 0h-105v491h105v-491z" />
    <glyph glyph-name="uni04A0" unicode="&#x4a0;" horiz-adv-x="683" 
d="M356 351l305 -351h-131l-306 351l277 309h130zM221 0h-106v566h-115v94h221v-660z" />
    <glyph glyph-name="uni04A1" unicode="&#x4a1;" horiz-adv-x="569" 
d="M341 268l215 -268h-125l-215 266l196 225h127zM211 0h-106v400h-105v91h211v-491z" />
    <glyph glyph-name="uni04A2" unicode="&#x4a2;" horiz-adv-x="740" 
d="M627 95h84v-236h-106v141h-84v302h-332v-302h-106v660h106v-263h332v263h106v-565z" />
    <glyph glyph-name="uni04A3" unicode="&#x4a3;" horiz-adv-x="631" 
d="M511 91h86v-232h-108v141h-83v212h-219v-212h-105v491h105v-188h219v188h105v-400z" />
    <glyph glyph-name="uni04AA" unicode="&#x4aa;" horiz-adv-x="717" 
d="M410 35q30 -16 48 -43t18 -63q0 -25 -9.5 -46.5t-28 -38t-45 -26t-60.5 -9.5q-18 0 -36.5 2.5t-34.5 6.5v72q37 -3 58 -3q31 0 50.5 14.5t19.5 46.5q0 20 -7 36.5t-16 29.5zM390 671q93 0 166.5 -41.5t116.5 -110.5l-80 -59q-35 54 -86 84t-117 30q-51 0 -94.5 -18.5
t-75.5 -51t-50 -77t-18 -97.5t18 -97.5t50 -77t75.5 -51t94.5 -18.5q66 0 117 30t86 84l80 -59q-42 -69 -116 -110.5t-167 -41.5q-73 0 -136 26t-110 71.5t-74 108t-27 135.5q0 72 27 134.5t74 108.5t110 72t136 26z" />
    <glyph glyph-name="uni04AB" unicode="&#x4ab;" horiz-adv-x="552" 
d="M315 35q30 -16 48 -43t18 -63q0 -25 -9.5 -46.5t-28 -38t-45 -26t-60.5 -9.5q-18 0 -36.5 2.5t-34.5 6.5v72q37 -3 58 -3q31 0 50.5 14.5t19.5 46.5q0 20 -7 36.5t-16 29.5zM305 502q70 0 123 -31t85 -83l-74 -58q-25 34 -56.5 54.5t-76.5 20.5q-33 0 -61.5 -12.5
t-48.5 -34t-31.5 -50.5t-11.5 -62q0 -34 11.5 -63.5t31.5 -51t48.5 -33.5t61.5 -12q45 0 76 20t56 54l74 -57q-32 -52 -85 -83t-122 -31q-54 0 -101.5 20t-83 54.5t-55.5 81.5t-20 101t20 100.5t55.5 81t83 54.5t101.5 20z" />
    <glyph glyph-name="uni04AE" unicode="&#x4ae;" horiz-adv-x="620" 
d="M363 266v-266h-106v266l-228 394h118l163 -288l164 288h118z" />
    <glyph glyph-name="uni04AF" unicode="&#x4af;" horiz-adv-x="544" 
d="M325 38v-218h-105v218l-203 453h112l143 -343l144 343h111z" />
    <glyph glyph-name="uni04B0" unicode="&#x4b0;" horiz-adv-x="633" 
d="M559 188h-189v-188h-106v188h-190v95h179l-218 377h118l163 -288l164 288h118l-219 -377h180v-95z" />
    <glyph glyph-name="uni04B1" unicode="&#x4b1;" 
d="M486 0h-154v-180h-105v180h-153v90h130l-179 401h112l143 -343l144 343h111l-179 -401h130v-90z" />
    <glyph glyph-name="uni04B2" unicode="&#x4b2;" horiz-adv-x="609" 
d="M363 336l159 -242h76v-235h-106v141h-29l-160 245l-159 -245h-122l223 336l-209 324h122l145 -234l145 234h121z" />
    <glyph glyph-name="uni04B3" unicode="&#x4b3;" horiz-adv-x="549" 
d="M315 254l118 -163h82v-232h-106v141h-29l-124 178l-123 -178h-119l182 255l-169 236h119l110 -160l111 160h119z" />
    <glyph glyph-name="uni04B6" unicode="&#x4b6;" horiz-adv-x="663" 
d="M550 95h84v-236h-106v141h-84v240q-29 -9 -61.5 -14t-67.5 -5q-59 0 -109 17t-86 51t-56.5 83.5t-20.5 114.5v173h106v-164q0 -89 47.5 -133t122.5 -44q29 0 62 6.5t63 17.5v317h106v-565z" />
    <glyph glyph-name="uni04B7" unicode="&#x4b7;" horiz-adv-x="591" 
d="M473 91h83v-232h-105v141h-83v177q-21 -7 -46 -11.5t-53 -4.5q-48 0 -89 14.5t-71 43t-47 70.5t-17 97v105h105v-98q0 -71 35 -102.5t92 -31.5q21 0 44.5 3.5t46.5 11.5v217h105v-400z" />
    <glyph glyph-name="uni04BA" unicode="&#x4ba;" horiz-adv-x="634" 
d="M189 409q28 9 58.5 14.5t63.5 5.5q59 0 105 -19t77 -53.5t47 -83t16 -108.5v-165h-106v162q0 84 -36 126.5t-113 42.5q-26 0 -55 -5t-57 -14v-312h-106v660h106v-251z" />
    <glyph glyph-name="uni04BB" unicode="&#x4bb;" horiz-adv-x="589" 
d="M186 441q25 29 60.5 45t81.5 16q42 0 76 -14.5t57.5 -40t36 -61.5t12.5 -79v-307h-106v292q0 51 -28.5 82.5t-77.5 31.5t-80.5 -31.5t-31.5 -82.5v-292h-105v750h105v-309z" />
    <glyph glyph-name="uni04C0" unicode="&#x4c0;" horiz-adv-x="272" 
d="M189 0h-106v660h106v-660z" />
    <glyph glyph-name="uni04C1" unicode="&#x4c1;" horiz-adv-x="990" 
d="M677 351l291 -351h-131l-286 351l257 309h130zM439 351l-286 -351h-131l291 351l-261 309h130zM548 0h-106v660h106v-660zM657 897q0 -35 -12 -64.5t-33.5 -51.5t-51 -34t-65.5 -12t-65.5 12t-51 34t-33.5 51.5t-12 64.5h85q0 -38 22 -60t55 -22q34 0 55.5 22t21.5 60h85
z" />
    <glyph glyph-name="uni04C2" unicode="&#x4c2;" horiz-adv-x="810" 
d="M585 266l211 -266h-125l-210 266l189 225h129zM349 266l-211 -266h-124l211 267l-193 224h128zM458 0h-105v491h105v-491zM566 742q0 -35 -12 -64.5t-33.5 -51.5t-51 -34t-65.5 -12t-65.5 12t-51 34t-33.5 51.5t-12 64.5h85q0 -38 22 -60t55 -22q34 0 56 22t22 60h84z
" />
    <glyph glyph-name="uni04CF" unicode="&#x4cf;" horiz-adv-x="268" 
d="M187 0h-105v750h105v-750z" />
    <glyph glyph-name="uni04D0" unicode="&#x4d0;" horiz-adv-x="662" 
d="M493 897q0 -35 -12 -64.5t-33.5 -51.5t-51 -34t-65.5 -12t-65.5 12t-51 34t-33.5 51.5t-12 64.5h85q0 -38 22 -60t55 -22q34 0 55.5 22t21.5 60h85zM640 0h-114l-47 110h-297l-47 -110h-113l291 671h36zM220 201h220l-109 273z" />
    <glyph glyph-name="uni04D1" unicode="&#x4d1;" horiz-adv-x="536" 
d="M427 742q0 -35 -12 -64.5t-33.5 -51.5t-51 -34t-65.5 -12t-65.5 12t-51 34t-33.5 51.5t-12 64.5h85q0 -38 22 -60t55 -22q34 0 56 22t22 60h84zM264 502q45 0 82 -13t63.5 -38.5t41.5 -64t15 -89.5v-297h-98v55q-26 -31 -66 -48.5t-91 -17.5q-39 0 -70.5 10t-54 29
t-34.5 45t-12 58q0 65 49 102.5t132 37.5h139v32q0 51 -27 78t-78 27q-43 0 -75 -19t-62 -54l-60 62q38 54 91 79.5t115 25.5zM233 70q26 0 49 8.5t40.5 24t27.5 37t10 46.5v9h-126q-42 0 -64.5 -15t-22.5 -45q0 -32 25 -48.5t61 -16.5z" />
    <glyph glyph-name="uni04D4" unicode="&#x4d4;" horiz-adv-x="836" 
d="M704 304h-188l35 -209h245v-95h-335l-19 110h-261l-58 -110h-114l341 660h434v-95h-312l28 -169h204v-92zM228 201h199l-49 303z" />
    <glyph glyph-name="uni04D5" unicode="&#x4d5;" horiz-adv-x="887" 
d="M265 502q56 0 98.5 -21.5t66.5 -65.5q32 40 80 63.5t106 23.5q49 0 90.5 -17t71.5 -47t47 -71.5t17 -90.5q0 -20 -2.5 -40.5t-5.5 -31.5h-364q12 -58 54 -90t104 -32q42 0 76.5 15t65.5 42l51 -71q-40 -38 -89 -58.5t-106 -20.5q-70 0 -124.5 29t-87.5 79
q-27 -54 -79 -81t-118 -27q-85 0 -131 40.5t-46 103.5q0 67 49 107t132 40h139v23q0 51 -27.5 78t-76.5 27q-42 0 -74.5 -19.5t-61.5 -53.5l-61 62q39 54 92 79.5t114 25.5zM612 413q-57 0 -96 -36.5t-48 -96.5h269q2 32 -7.5 56.5t-27 41.5t-41 26t-49.5 9zM233 71
q26 0 49 8.5t40.5 23.5t27.5 36t10 46v19h-126q-42 0 -64.5 -15.5t-22.5 -47.5q0 -35 25 -52.5t61 -17.5z" />
    <glyph glyph-name="uni04D6" unicode="&#x4d6;" horiz-adv-x="569" 
d="M447 897q0 -35 -12 -64.5t-33.5 -51.5t-51 -34t-65.5 -12t-65.5 12t-51 34t-33.5 51.5t-12 64.5h85q0 -38 22 -60t55 -22q34 0 55.5 22t21.5 60h85zM517 565h-328v-169h246v-92h-246v-209h340v-95h-446v660h434v-95z" />
    <glyph glyph-name="uni04D7" unicode="&#x4d7;" horiz-adv-x="570" 
d="M447 742q0 -35 -12 -64.5t-33.5 -51.5t-51 -34t-65.5 -12t-65.5 12t-51 34t-33.5 51.5t-12 64.5h85q0 -38 22 -60t55 -22q34 0 56 22t22 60h84zM299 502q49 0 91 -17t72 -47t47 -71.5t17 -89.5q0 -20 -2.5 -38t-5.5 -28h-366q11 -61 54 -95t106 -34q43 0 78 15.5t65 42.5
l51 -72q-39 -37 -88 -58t-108 -21q-57 0 -106 19.5t-84 54t-55 81.5t-20 101t19.5 101t54 81.5t80.5 54.5t100 20zM296 413q-54 0 -92 -32.5t-50 -87.5h267q-2 58 -38.5 89t-86.5 31z" />
    <glyph glyph-name="uni04D8" unicode="&#x4d8;" horiz-adv-x="732" 
d="M351 671q71 0 132.5 -26.5t107 -72t71.5 -107.5t26 -133q0 -72 -27 -135t-73 -109t-108.5 -72.5t-132.5 -26.5q-63 0 -118.5 21.5t-97 60.5t-65 93.5t-23.5 121.5q0 24 2.5 45t4.5 34h527q-5 46 -24.5 84.5t-49.5 66.5t-69 43t-84 15q-62 0 -113 -28t-88 -78l-72 61
q46 64 115.5 103t158.5 39zM349 86q42 0 79 13.5t66 38t49 58.5t29 76h-426q0 -45 17.5 -79.5t45.5 -58t64.5 -36t75.5 -12.5z" />
    <glyph glyph-name="uni04D9" unicode="&#x4d9;" horiz-adv-x="570" 
d="M272 -11q-50 0 -91.5 17t-71.5 47t-47 71t-17 90q0 20 2.5 37.5t4.5 28.5h367q-11 60 -54 94.5t-106 34.5q-43 0 -78 -15.5t-65 -42.5l-51 72q39 37 88 58t108 21q57 0 105.5 -20t84 -54.5t55.5 -81t20 -100.5t-19.5 -101t-54 -81.5t-80.5 -54.5t-100 -20zM275 78
q53 0 91 32t51 88h-268q0 -29 10.5 -51.5t27.5 -37.5t40 -23t48 -8z" />
    <glyph glyph-name="uni04E2" unicode="&#x4e2;" horiz-adv-x="721" 
d="M637 0h-106v455l-412 -466h-36v671h106v-453l412 464h36v-671zM504 762h-308v85h308v-85z" />
    <glyph glyph-name="uni04E3" unicode="&#x4e3;" horiz-adv-x="603" 
d="M522 0h-104v302l-300 -313h-36v502h105v-303l300 314h35v-502zM448 632h-288v84h288v-84z" />
    <glyph glyph-name="uni04E6" unicode="&#x4e6;" horiz-adv-x="780" 
d="M512 877q28 0 47.5 -19t19.5 -47q0 -26 -19.5 -45.5t-47.5 -19.5q-26 0 -47 19.5t-21 45.5q0 28 21 47t47 19zM267 877q28 0 47.5 -18.5t19.5 -46.5q0 -26 -19.5 -45.5t-47.5 -19.5q-26 0 -47 19.5t-21 45.5q0 28 21 46.5t47 18.5zM389 671q72 0 135 -26t110 -72
t74.5 -108.5t27.5 -134.5q0 -73 -27.5 -135.5t-74.5 -108t-110 -71.5t-135 -26t-135.5 26t-110 72t-73.5 108.5t-27 134.5t27 134.5t74 108.5t110 72t135 26zM390 574q-51 0 -94.5 -18.5t-75 -50.5t-49.5 -77t-18 -97q0 -53 18 -98t49.5 -77.5t75 -51t94.5 -18.5t94 18.5
t75 51t50 77.5t18 98q0 52 -18 96.5t-50 77t-75 51t-94 18.5z" />
    <glyph glyph-name="uni04E7" unicode="&#x4e7;" horiz-adv-x="609" 
d="M417 740q28 0 47.5 -18.5t19.5 -47.5q0 -26 -19.5 -45.5t-47.5 -19.5q-26 0 -47 19.5t-21 45.5q0 29 21 47.5t47 18.5zM192 740q28 0 47.5 -18.5t19.5 -47.5q0 -26 -19.5 -45.5t-47.5 -19.5q-26 0 -47 19.5t-21 45.5q0 29 21 47.5t47 18.5zM305 502q54 0 101 -20
t82.5 -54.5t56 -81t20.5 -100.5t-20.5 -101t-56 -81.5t-83 -54.5t-101.5 -20t-101 20t-82.5 54.5t-55.5 81.5t-20 101t20 100.5t55.5 81t83 54.5t101.5 20zM305 406q-33 0 -61.5 -12.5t-48.5 -34t-31 -51t-11 -63.5t11 -63t31.5 -50.5t48 -33.5t60.5 -12t61 12t48.5 33.5
t32 50.5t11.5 63t-11.5 63.5t-32 51t-48.5 34t-60 12.5z" />
    <glyph glyph-name="uni04E8" unicode="&#x4e8;" horiz-adv-x="780" 
d="M389 671q72 0 135 -26t110 -72t74.5 -108.5t27.5 -134.5q0 -73 -27.5 -135.5t-74.5 -108t-110 -71.5t-135 -26t-135.5 26t-110 72t-73.5 108.5t-27 134.5t27 134.5t74 108.5t110 72t135 26zM390 86q47 0 88 16t72.5 45t51 69t24.5 88h-472q4 -48 23.5 -88t51 -69
t72.5 -45t89 -16zM390 574q-43 0 -80.5 -13t-67.5 -36.5t-51 -56t-31 -72.5h459q-10 39 -31 72t-51 56.5t-67.5 36.5t-79.5 13z" />
    <glyph glyph-name="uni04E9" unicode="&#x4e9;" horiz-adv-x="609" 
d="M305 502q54 0 101.5 -20t82.5 -54.5t55.5 -81t20.5 -100.5t-20.5 -101t-55.5 -81.5t-83 -54.5t-102 -20t-101 20t-82.5 54.5t-55.5 81.5t-20 101t20 100.5t55.5 81t83 54.5t101.5 20zM304 83q59 0 100.5 35t52.5 91h-305q11 -57 52 -91.5t100 -34.5zM305 409
q-57 0 -97.5 -32.5t-53.5 -85.5h301q-13 53 -53 85.5t-97 32.5z" />
    <glyph glyph-name="uni04EE" unicode="&#x4ee;" horiz-adv-x="620" 
d="M369 129q-31 -72 -82.5 -106t-126.5 -34q-20 0 -41.5 2.5t-41.5 7.5v92q18 -2 33.5 -3.5t29.5 -1.5q38 0 72.5 16.5t53.5 57.5l-234 500h122l169 -381l155 381h120zM473 762h-308v85h308v-85z" />
    <glyph glyph-name="uni04EF" unicode="&#x4ef;" horiz-adv-x="549" 
d="M419 632h-288v84h288v-84zM291 -56q-31 -71 -74.5 -103t-106.5 -32q-20 0 -41 2.5t-40 7.5v89q18 -2 32 -3t27 -1q34 0 60.5 14t46.5 58l20 46l-196 469h113l140 -358l146 358h112z" />
    <glyph glyph-name="uni04F2" unicode="&#x4f2;" horiz-adv-x="620" 
d="M369 129q-31 -72 -82.5 -106t-126.5 -34q-20 0 -41.5 2.5t-41.5 7.5v92q18 -2 33.5 -3.5t29.5 -1.5q38 0 72.5 16.5t53.5 57.5l-234 500h122l169 -381l155 381h120zM565 891l-117 -167h-73l79 186h111v-19zM366 891l-118 -167h-72l79 186h111v-19z" />
    <glyph glyph-name="uni04F3" unicode="&#x4f3;" horiz-adv-x="549" 
d="M514 761l-117 -193h-73l79 212h111v-19zM335 761l-118 -193h-72l79 212h111v-19zM291 -56q-31 -71 -74.5 -103t-106.5 -32q-20 0 -41 2.5t-40 7.5v89q18 -2 32 -3t27 -1q34 0 60.5 14t46.5 58l20 46l-196 469h113l140 -358l146 358h112z" />
    <glyph glyph-name="Wgrave" unicode="&#x1e80;" horiz-adv-x="1051" 
d="M734 214l165 446h117l-257 -671h-36l-197 468l-197 -468h-36l-257 671h117l164 -447l191 458h36zM565 724h-78l-128 167v19h127z" />
    <glyph glyph-name="wgrave" unicode="&#x1e81;" horiz-adv-x="854" 
d="M596 173l127 318h111l-217 -502h-36l-155 328l-153 -328h-36l-218 502h112l129 -321l149 332h36zM464 568h-78l-128 193v19h127z" />
    <glyph glyph-name="Wacute" unicode="&#x1e82;" horiz-adv-x="1051" 
d="M734 214l165 446h117l-257 -671h-36l-197 468l-197 -468h-36l-257 671h117l164 -447l191 458h36zM691 891l-128 -167h-78l79 186h127v-19z" />
    <glyph glyph-name="wacute" unicode="&#x1e83;" horiz-adv-x="854" 
d="M596 173l127 318h111l-217 -502h-36l-155 328l-153 -328h-36l-218 502h112l129 -321l149 332h36zM593 761l-128 -193h-78l79 212h127v-19z" />
    <glyph glyph-name="Wdieresis" unicode="&#x1e84;" horiz-adv-x="1051" 
d="M734 214l165 446h117l-257 -671h-36l-197 468l-197 -468h-36l-257 671h117l164 -447l191 458h36zM648 877q28 0 47.5 -19t19.5 -47q0 -26 -19.5 -45.5t-47.5 -19.5q-26 0 -47 19.5t-21 45.5q0 28 21 47t47 19zM403 877q28 0 47.5 -18.5t19.5 -46.5q0 -26 -19.5 -45.5
t-47.5 -19.5q-26 0 -47 19.5t-21 45.5q0 28 21 46.5t47 18.5z" />
    <glyph glyph-name="wdieresis" unicode="&#x1e85;" horiz-adv-x="854" 
d="M596 173l127 318h111l-217 -502h-36l-155 328l-153 -328h-36l-218 502h112l129 -321l149 332h36zM537 740q28 0 47.5 -18.5t19.5 -47.5q0 -26 -19.5 -45.5t-47.5 -19.5q-26 0 -47 19.5t-21 45.5q0 29 21 47.5t47 18.5zM312 740q28 0 47.5 -18.5t19.5 -47.5
q0 -26 -19.5 -45.5t-47.5 -19.5q-26 0 -47 19.5t-21 45.5q0 29 21 47.5t47 18.5z" />
    <glyph glyph-name="uni1E9E" unicode="&#x1e9e;" horiz-adv-x="720" 
d="M625 631l-126 -216q36 -7 68 -24.5t56 -44.5t38.5 -63t14.5 -79q0 -49 -18 -88.5t-48 -67.5t-70.5 -43.5t-85.5 -15.5q-55 0 -105 22.5t-86 61.5l59 75q26 -27 57.5 -44.5t69.5 -17.5q25 0 47 9t37.5 24.5t24.5 37.5t9 49q0 58 -40.5 90t-112.5 32h-60v28l122 209h-287
v-565h-106v660h542v-29z" />
    <glyph glyph-name="Ygrave" unicode="&#x1ef2;" horiz-adv-x="620" 
d="M363 266v-266h-106v266l-228 394h118l163 -288l164 288h118zM347 724h-78l-128 167v19h127z" />
    <glyph glyph-name="ygrave" unicode="&#x1ef3;" horiz-adv-x="549" 
d="M291 -56q-31 -71 -74.5 -103t-106.5 -32q-20 0 -41 2.5t-40 7.5v89q18 -2 32 -3t27 -1q34 0 60.5 14t46.5 58l20 46l-196 469h113l140 -358l146 358h112zM312 568h-78l-128 193v19h127z" />
    <glyph glyph-name="uni2009" unicode="&#x2009;" horiz-adv-x="147" 
 />
    <glyph glyph-name="endash" unicode="&#x2013;" horiz-adv-x="504" 
d="M465 273h-426v89h426v-89z" />
    <glyph glyph-name="emdash" unicode="&#x2014;" horiz-adv-x="1000" 
d="M950 273h-900v89h900v-89z" />
    <glyph glyph-name="uni2015" unicode="&#x2015;" horiz-adv-x="1000" 
d="M950 273h-900v89h900v-89z" />
    <glyph glyph-name="quoteleft" unicode="&#x2018;" horiz-adv-x="291" 
d="M192 392h-121l49 268h81z" />
    <glyph glyph-name="quoteright" unicode="&#x2019;" horiz-adv-x="291" 
d="M170 392h-81l9 268h121z" />
    <glyph glyph-name="quotesinglbase" unicode="&#x201a;" horiz-adv-x="291" 
d="M170 -161h-81l9 267h121z" />
    <glyph glyph-name="quotedblleft" unicode="&#x201c;" horiz-adv-x="500" 
d="M192 392h-121l49 268h81zM402 392h-121l49 268h81z" />
    <glyph glyph-name="quotedblright" unicode="&#x201d;" horiz-adv-x="500" 
d="M380 392h-81l9 268h121zM170 392h-81l9 268h121z" />
    <glyph glyph-name="quotedblbase" unicode="&#x201e;" horiz-adv-x="500" 
d="M170 -161h-81l9 267h121zM380 -161h-81l9 267h121z" />
    <glyph glyph-name="dagger" unicode="&#x2020;" horiz-adv-x="467" 
d="M286 611h126v-91h-126v-233h-105v233h-126v91h126v139h105v-139z" />
    <glyph glyph-name="daggerdbl" unicode="&#x2021;" horiz-adv-x="467" 
d="M286 641h126v-91h-126v-131h126v-91h-126v-110h-105v110h-126v91h126v131h-126v91h126v109h105v-109z" />
    <glyph glyph-name="bullet" unicode="&#x2022;" horiz-adv-x="402" 
d="M201 413q30 0 56.5 -10.5t46.5 -30t31.5 -46t11.5 -57.5t-11.5 -57.5t-31.5 -45.5t-46.5 -29.5t-56.5 -10.5t-56.5 10.5t-46.5 29.5t-32 45.5t-12 57.5t12 57.5t32 46t46.5 30t56.5 10.5z" />
    <glyph glyph-name="ellipsis" unicode="&#x2026;" horiz-adv-x="778" 
d="M389 144q32 0 54.5 -22t22.5 -56t-22.5 -55.5t-54.5 -21.5q-33 0 -55.5 21.5t-22.5 55.5t22.5 56t55.5 22zM135 144q32 0 54.5 -22t22.5 -56t-22.5 -55.5t-54.5 -21.5q-33 0 -55.5 21.5t-22.5 55.5t22.5 56t55.5 22zM643 144q32 0 54.5 -22t22.5 -56t-22.5 -55.5
t-54.5 -21.5q-33 0 -55.5 21.5t-22.5 55.5t22.5 56t55.5 22z" />
    <glyph glyph-name="perthousand" unicode="&#x2030;" horiz-adv-x="1202" 
d="M989 316q35 0 65.5 -12.5t53.5 -34t36 -51.5t13 -65t-13 -64.5t-36 -51t-53.5 -34t-65.5 -12.5t-65 12.5t-52.5 34t-35.5 51t-13 64.5t13 65t35.5 51.5t52.5 34t65 12.5zM990 241q-37 0 -60 -25t-23 -63t23 -62.5t60 -24.5q36 0 59.5 24.5t23.5 62.5t-23.5 63t-59.5 25z
M607 315q34 0 65 -12.5t53.5 -34t36 -51.5t13.5 -65t-13.5 -64.5t-36 -51t-53.5 -34t-65 -12.5q-35 0 -65 12.5t-52.5 34t-35.5 51t-13 64.5t13 65t35.5 51.5t52.5 34t65 12.5zM608 240q-37 0 -60 -25t-23 -63t23 -62.5t60 -24.5q35 0 58.5 24.5t23.5 62.5t-23.5 63
t-58.5 25zM213 671q34 0 64.5 -12.5t53.5 -34t36 -51.5t13 -64q0 -35 -13 -65t-36 -51.5t-53.5 -34t-64.5 -12.5q-35 0 -65.5 12.5t-53 34t-35.5 51.5t-13 65q0 34 13 64t35.5 51.5t53 34t65.5 12.5zM213 597q-37 0 -60 -25t-23 -63t23 -63t60 -25q36 0 59.5 25t23.5 63
t-23.5 63t-59.5 25zM265 0h-88l378 660h89z" />
    <glyph glyph-name="minute" unicode="&#x2032;" horiz-adv-x="268" 
d="M149 382h-82l38 278h123z" />
    <glyph glyph-name="second" unicode="&#x2033;" horiz-adv-x="477" 
d="M149 382h-82l38 278h123zM359 382h-82l38 278h123z" />
    <glyph glyph-name="guilsinglleft" unicode="&#x2039;" horiz-adv-x="323" 
d="M288 425l-138 -153l138 -155l-68 -59l-186 199v29l186 199z" />
    <glyph glyph-name="guilsinglright" unicode="&#x203a;" horiz-adv-x="323" 
d="M289 286v-29l-186 -199l-68 59l138 155l-138 153l68 60z" />
    <glyph glyph-name="fraction" unicode="&#x2044;" horiz-adv-x="244" 
d="M-23 0h-88l378 660h89z" />
    <glyph glyph-name="uni2070" unicode="&#x2070;" horiz-adv-x="415" 
d="M208 787q42 0 72.5 -16t50.5 -44.5t29.5 -67t9.5 -83.5t-9.5 -85t-29.5 -70t-50.5 -47t-72.5 -17q-41 0 -71.5 17t-50.5 47t-30 70t-10 85t10 83.5t30 67t50.5 44.5t71.5 16zM207 711q-41 0 -59 -35t-18 -101t18.5 -104.5t58.5 -38.5q42 0 60 38.5t18 104.5t-18 101
t-60 35z" />
    <glyph glyph-name="uni2074" unicode="&#x2074;" horiz-adv-x="365" 
d="M299 501h53v-68h-53v-69h-76v69h-209v22l127 325h85l-110 -279h107v120h76v-120z" />
    <glyph glyph-name="uni2075" unicode="&#x2075;" horiz-adv-x="368" 
d="M303 705h-159v-78q25 5 45 5q27 0 53 -8t45.5 -24.5t31.5 -41t12 -56.5q0 -33 -12.5 -60t-33.5 -45.5t-49.5 -29t-61.5 -10.5q-54 0 -93 26.5t-59 66.5l57 41q17 -27 39 -42.5t53 -15.5q32 0 54 17.5t22 48.5q0 62 -87 62h-95v219h238v-75z" />
    <glyph glyph-name="uni2076" unicode="&#x2076;" horiz-adv-x="373" 
d="M197 646h5q25 0 49.5 -10.5t44 -29.5t31 -45t11.5 -57q0 -32 -12 -59t-33 -46.5t-48.5 -30.5t-58.5 -11q-30 0 -57 11t-48 30.5t-33 47t-12 60.5q0 37 15 66t41 64l104 144h97zM186 576q-29 0 -48.5 -20.5t-19.5 -51.5t19.5 -51t48.5 -20t49.5 20t20.5 51t-20.5 51.5
t-49.5 20.5z" />
    <glyph glyph-name="uni2077" unicode="&#x2077;" horiz-adv-x="336" 
d="M318 757l-189 -393h-90l168 341h-177v75h288v-23z" />
    <glyph glyph-name="uni2078" unicode="&#x2078;" horiz-adv-x="385" 
d="M192 787q58 0 97 -28t39 -82q0 -33 -16.5 -57t-46.5 -41q36 -15 59 -40.5t23 -64.5q0 -27 -11.5 -48.5t-32 -37t-49 -23.5t-62.5 -8q-67 0 -110 31.5t-43 86.5q0 38 22 63.5t59 40.5q-29 17 -45.5 41t-16.5 58q0 26 10.5 46.5t28.5 34.5t42.5 21t52.5 7zM265 478
q0 26 -20.5 41t-52.5 26q-32 -11 -52 -26t-20 -41q0 -23 18 -38.5t54 -15.5t54.5 15.5t18.5 38.5zM192 721q-25 0 -42 -12t-17 -35q0 -22 16 -35t43 -26q26 12 42.5 25.5t16.5 35.5q0 23 -17 35t-42 12z" />
    <glyph glyph-name="uni2079" unicode="&#x2079;" horiz-adv-x="373" 
d="M187 787q30 0 57.5 -11t48 -30.5t32.5 -47t12 -60.5q0 -37 -15 -66t-41 -64l-103 -144h-97l94 134h-4q-25 0 -49.5 10.5t-43.5 29.5t-31 45t-12 57q0 32 12.5 59t33.5 46.5t48.5 30.5t57.5 11zM187 711q-29 0 -49 -20t-20 -51t20 -51.5t49 -20.5t49 20.5t20 51.5t-20 51
t-49 20z" />
    <glyph glyph-name="uni207A" unicode="&#x207a;" horiz-adv-x="427" 
d="M253 609h135v-73h-135v-139h-80v139h-135v73h135v139h80v-139z" />
    <glyph glyph-name="uni207B" unicode="&#x207b;" horiz-adv-x="427" 
d="M388 538h-350v69h350v-69z" />
    <glyph glyph-name="uni207C" unicode="&#x207c;" horiz-adv-x="427" 
d="M46 689h336v-72h-336v72zM46 529h336v-73h-336v73z" />
    <glyph glyph-name="uni207D" unicode="&#x207d;" horiz-adv-x="265" 
d="M245 852q-23 -15 -44 -37t-37.5 -55.5t-26.5 -79.5t-10 -108t10 -108t26.5 -79.5t37.5 -55.5t44 -36l-33 -51q-30 18 -58.5 45t-50 66t-35 93t-13.5 126q0 73 13.5 128.5t35 95.5t50 66t58.5 40z" />
    <glyph glyph-name="uni207E" unicode="&#x207e;" horiz-adv-x="265" 
d="M53 902q30 -14 58.5 -40t50 -66t35 -95.5t13.5 -128.5q0 -74 -13.5 -129t-35 -95t-50 -66t-58.5 -40l-33 51q22 14 43.5 36t38 55.5t26.5 79.5t10 108t-10 108t-26.5 79.5t-38 55.5t-43.5 37z" />
    <glyph glyph-name="uni2080" unicode="&#x2080;" horiz-adv-x="415" 
d="M208 304q42 0 72.5 -16t50.5 -44.5t29.5 -67t9.5 -83.5t-9.5 -85t-29.5 -70t-50.5 -47t-72.5 -17q-41 0 -71.5 17t-50.5 47t-30 70t-10 85t10 83.5t30 67t50.5 44.5t71.5 16zM207 228q-41 0 -59 -35t-18 -101t18.5 -104.5t58.5 -38.5q42 0 60 38.5t18 104.5t-18 101
t-60 35z" />
    <glyph glyph-name="uni2081" unicode="&#x2081;" horiz-adv-x="361" 
d="M232 -44h88v-75h-275v75h104v266h-97v75h180v-341z" />
    <glyph glyph-name="uni2082" unicode="&#x2082;" horiz-adv-x="376" 
d="M182 304q31 0 57 -10t45 -27.5t30 -42t11 -52.5q0 -23 -7 -44t-19 -40.5t-28.5 -38.5l-35.5 -39l-51 -54h153v-75h-303v18l148 160q29 32 43.5 56t14.5 50q0 27 -16 45t-42 18q-27 0 -43.5 -18t-16.5 -47q0 -7 0.5 -14.5t1.5 -16.5h-82q-2 9 -3 18.5t-1 17.5
q0 25 10 49.5t28.5 44t45 31t60.5 11.5z" />
    <glyph glyph-name="uni2083" unicode="&#x2083;" horiz-adv-x="357" 
d="M311 274l-92 -130q18 -5 36 -15t32.5 -26t23 -37.5t8.5 -48.5q0 -32 -12.5 -58.5t-33.5 -45.5t-49 -29t-59 -10q-54 0 -92 26.5t-58 66.5l57 41q17 -27 38 -42.5t52 -15.5q32 0 52.5 17.5t20.5 49.5q0 61 -86 61h-45v21l87 123h-145v75h265v-23z" />
    <glyph glyph-name="uni2084" unicode="&#x2084;" horiz-adv-x="365" 
d="M299 18h53v-68h-53v-69h-76v69h-209v22l127 325h85l-110 -279h107v120h76v-120z" />
    <glyph glyph-name="uni2085" unicode="&#x2085;" horiz-adv-x="368" 
d="M303 222h-159v-78q25 5 45 5q27 0 53 -8t45.5 -24.5t31.5 -41t12 -56.5q0 -33 -12.5 -60t-33.5 -45.5t-49.5 -29t-61.5 -10.5q-54 0 -93 26.5t-59 66.5l57 41q17 -27 39 -42.5t53 -15.5q32 0 54 17.5t22 48.5q0 62 -87 62h-95v219h238v-75z" />
    <glyph glyph-name="uni2086" unicode="&#x2086;" horiz-adv-x="373" 
d="M197 163h5q25 0 49.5 -10.5t44 -29.5t31 -45t11.5 -57q0 -32 -12 -59t-33 -46.5t-48.5 -30.5t-58.5 -11q-30 0 -57 11t-48 30.5t-33 47t-12 60.5q0 37 15 66t41 64l104 144h97zM186 93q-29 0 -48.5 -20.5t-19.5 -51.5t19.5 -51t48.5 -20t49.5 20t20.5 51t-20.5 51.5
t-49.5 20.5z" />
    <glyph glyph-name="uni2087" unicode="&#x2087;" horiz-adv-x="336" 
d="M318 274l-189 -393h-90l168 341h-177v75h288v-23z" />
    <glyph glyph-name="uni2088" unicode="&#x2088;" horiz-adv-x="385" 
d="M192 304q58 0 97 -28t39 -82q0 -33 -16.5 -57t-46.5 -41q36 -15 59 -40.5t23 -64.5q0 -27 -11.5 -48.5t-32 -37t-49 -23.5t-62.5 -8q-67 0 -110 31.5t-43 86.5q0 38 22 63.5t59 40.5q-29 17 -45.5 41t-16.5 58q0 26 10.5 46.5t28.5 34.5t42.5 21t52.5 7zM265 -5
q0 26 -20.5 41t-52.5 26q-32 -11 -52 -26t-20 -41q0 -23 18 -38.5t54 -15.5t54.5 15.5t18.5 38.5zM192 238q-25 0 -42 -12t-17 -35q0 -22 16 -35t43 -26q26 12 42.5 25.5t16.5 35.5q0 23 -17 35t-42 12z" />
    <glyph glyph-name="uni2089" unicode="&#x2089;" horiz-adv-x="373" 
d="M187 304q30 0 57.5 -11t48 -30.5t32.5 -47t12 -60.5q0 -37 -15 -66t-41 -64l-103 -144h-97l94 134h-4q-25 0 -49.5 10.5t-43.5 29.5t-31 45t-12 57q0 32 12.5 59t33.5 46.5t48.5 30.5t57.5 11zM187 228q-29 0 -49 -20t-20 -51t20 -51.5t49 -20.5t49 20.5t20 51.5t-20 51
t-49 20z" />
    <glyph glyph-name="uni208A" unicode="&#x208a;" horiz-adv-x="427" 
d="M253 125h135v-73h-135v-139h-80v139h-135v73h135v139h80v-139z" />
    <glyph glyph-name="uni208B" unicode="&#x208b;" horiz-adv-x="426" 
d="M388 54h-350v69h350v-69z" />
    <glyph glyph-name="uni208C" unicode="&#x208c;" horiz-adv-x="427" 
d="M46 205h336v-72h-336v72zM46 45h336v-73h-336v73z" />
    <glyph glyph-name="uni208D" unicode="&#x208d;" horiz-adv-x="265" 
d="M245 368q-23 -15 -44 -37t-37.5 -55.5t-26.5 -79.5t-10 -108t10 -108t26.5 -79.5t37.5 -55.5t44 -36l-33 -51q-30 18 -58.5 45t-50 66t-35 93t-13.5 126q0 73 13.5 128.5t35 95.5t50 66t58.5 40z" />
    <glyph glyph-name="uni208E" unicode="&#x208e;" horiz-adv-x="265" 
d="M53 418q30 -14 58.5 -40t50 -66t35 -95.5t13.5 -128.5q0 -74 -13.5 -129t-35 -95t-50 -66t-58.5 -40l-33 51q22 14 43.5 36t38 55.5t26.5 79.5t10 108t-10 108t-26.5 79.5t-38 55.5t-43.5 37z" />
    <glyph glyph-name="lira" unicode="&#x20a4;" horiz-adv-x="548" 
d="M403 170h-121q-10 -46 -42 -82h264v-88h-455v24q48 32 81 67t46 79h-117v80h119q-5 19 -12 36t-15 34h-92v80h52q-8 20 -13 41.5t-5 46.5q0 42 15.5 75.5t42.5 57.5t64.5 37t81.5 13q79 0 136 -43t80 -129l-91 -33q-16 51 -45 79.5t-74 28.5q-50 0 -76 -30t-26 -73
q0 -20 4.5 -37t12.5 -34h185v-80h-143q8 -17 14 -34t10 -36h119v-80z" />
    <glyph glyph-name="peseta" unicode="&#x20a7;" horiz-adv-x="607" 
d="M608 394h-81q-8 -40 -28.5 -72.5t-51.5 -56t-72 -36t-89 -12.5h-80v-217h-106v394h-80v88h80v178h186q48 0 89 -13t72.5 -36t51.5 -56t28 -73h81v-88zM206 569v-91h214q-11 45 -46 68t-89 23h-79zM285 308q54 0 89 22.5t46 67.5h-214v-90h79z" />
    <glyph glyph-name="Euro" unicode="&#x20ac;" horiz-adv-x="679" 
d="M420 209h-199q24 -57 71 -90t113 -33q52 0 90.5 21.5t64.5 56.5l74 -59q-34 -54 -94.5 -85t-138.5 -31q-55 0 -102.5 16t-85 45t-65 69.5t-42.5 89.5h-102v83h86q-1 9 -1 18.5v19.5v17t1 17h-85v83h100q15 50 42 91t65 70.5t85.5 46t103.5 16.5q78 0 138.5 -31t94.5 -85
l-74 -58q-26 34 -64.5 55.5t-90.5 21.5q-68 0 -115 -34.5t-71 -92.5h265l-21 -83h-263q-1 -8 -1.5 -17t-0.5 -17v-19.5t2 -18.5h242z" />
    <glyph glyph-name="uni20AE" unicode="&#x20ae;" horiz-adv-x="583" 
d="M517 219l-173 -59v-160h-106v125l-171 -58v93l171 58v75l-171 -58v94l171 57v179h-222v95h550v-95h-222v-143l173 58v-93l-173 -59v-75l173 59v-93z" />
    <glyph glyph-name="uni20B4" unicode="&#x20b4;" horiz-adv-x="541" 
d="M526 213h-353q-6 -15 -6 -35q0 -42 28.5 -67t78.5 -25q29 0 54 8.5t46 22.5t38.5 33t31.5 39l75 -57q-35 -65 -99.5 -104t-147.5 -39q-46 0 -85 13t-67.5 37.5t-45 59t-16.5 77.5q0 19 3 37h-45v85h99q19 16 42.5 30t51.5 29h-193v85h332q7 9 11 20.5t4 27.5
q0 22 -8 37.5t-21.5 26t-31 15.5t-36.5 5q-43 0 -75 -22.5t-55 -54.5l-75 56q29 53 82 85.5t127 32.5q44 0 81 -12.5t64 -35t42 -55.5t15 -73q0 -31 -9 -53h63v-85h-139q-16 -11 -33 -20.5l-36 -19.5l-33 -19h241v-85z" />
    <glyph glyph-name="uni20B8" unicode="&#x20b8;" horiz-adv-x="583" 
d="M566 396h-222v-396h-106v396h-222v96h550v-96zM566 565h-550v95h550v-95z" />
    <glyph glyph-name="uni20B9" unicode="&#x20b9;" horiz-adv-x="525" 
d="M451 423h-77q-10 -70 -58.5 -112.5t-126.5 -52.5l262 -258h-133l-260 255v85h85q51 0 81 21.5t40 61.5h-207v83h204q-25 70 -118 70h-85v84h393v-82h-113q25 -29 34 -72h79v-83z" />
    <glyph glyph-name="uni20BA" unicode="&#x20ba;" horiz-adv-x="528" 
d="M394 349l-178 -82v-179q37 4 71.5 15t60 30t41 46t15.5 62q0 11 -1 25t-3 28h89q4 -15 6 -30t2 -32q0 -64 -27.5 -110t-78.5 -75.5t-122.5 -43.5t-158.5 -14v229l-91 -41v93l91 41v75l-91 -41v94l91 41v180h106v-131l178 81v-93l-178 -82v-75l178 82v-93z" />
    <glyph glyph-name="uni20BD" unicode="&#x20bd;" horiz-adv-x="587" 
d="M337 660q46 0 84 -13t65.5 -37.5t42.5 -59.5t15 -78t-15 -77.5t-42.5 -59t-65.5 -38t-84 -13.5h-131v-77h259v-88h-259v-119h-106v119h-80v88h80v77h-80v91h80v285h237zM206 569v-194h127q49 0 77.5 25.5t28.5 70.5t-28 71.5t-78 26.5h-127z" />
    <glyph glyph-name="uni2105" unicode="&#x2105;" horiz-adv-x="821" 
d="M264 0h-88l378 660h89zM213 671q45 0 80 -20.5t55 -56.5l-60 -45q-14 20 -31.5 32t-43.5 12q-35 0 -57.5 -24t-22.5 -60q0 -37 22.5 -61t57.5 -24q26 0 43.5 12t31.5 32l60 -45q-20 -35 -55 -56.5t-80 -21.5q-35 0 -65.5 12.5t-53 34.5t-35.5 52t-13 65q0 34 13 64
t35.5 51.5t53 34t65.5 12.5zM608 315q34 0 64.5 -12.5t53.5 -34.5t36 -52t13 -65t-13 -64.5t-36 -51t-53.5 -34t-64.5 -12.5q-35 0 -65.5 12.5t-53 34t-35.5 51t-13 64.5t13 65t35.5 52t53 34.5t65.5 12.5zM608 236q-36 0 -58.5 -23.5t-22.5 -61.5q0 -36 22.5 -59.5
t58.5 -23.5q35 0 57.5 23.5t22.5 59.5q0 38 -22.5 61.5t-57.5 23.5z" />
    <glyph glyph-name="uni2113" unicode="&#x2113;" horiz-adv-x="459" 
d="M276 761q69 0 110 -38.5t41 -122.5q0 -96 -54.5 -182t-161.5 -177v-56q0 -54 26 -77.5t74 -23.5q20 0 43.5 3t49.5 7v-89q-25 -8 -54 -12t-58 -4q-85 0 -132.5 42t-52.5 129l-53 -38l-50 80l54 40t49 38v278q0 54 12.5 92.5t35 63t53.5 36t68 11.5zM211 368q62 59 93 113
t31 114q0 44 -16 60.5t-39 16.5q-29 0 -49 -24t-20 -85v-195z" />
    <glyph glyph-name="uni2116" unicode="&#x2116;" horiz-adv-x="1125" 
d="M521 214v446h106v-671h-36l-402 457v-446h-106v671h36zM912 562q34 0 65 -12.5t53.5 -34t36 -51.5t13.5 -65t-13.5 -64.5t-36 -51t-53.5 -34t-65 -12.5q-35 0 -65 12.5t-52.5 34t-35.5 51t-13 64.5t13 65t35.5 51.5t52.5 34t65 12.5zM913 487q-37 0 -60.5 -24.5
t-23.5 -63.5q0 -38 23.5 -62.5t60.5 -24.5t60.5 24.5t23.5 62.5t-23.5 63t-60.5 25zM1075 94h-322v71h322v-71z" />
    <glyph glyph-name="uni2117" unicode="&#x2117;" horiz-adv-x="780" 
d="M389 671q70 0 133.5 -26t110.5 -72t75 -108.5t28 -134.5q0 -73 -28 -135.5t-75 -108t-110.5 -71.5t-133.5 -26q-71 0 -133.5 26t-110 71.5t-75 108t-27.5 135.5t28 135t75 108t110 72t133 26zM389 604q-55 0 -104 -20t-86.5 -56t-59.5 -86.5t-22 -111.5q0 -62 22 -112.5
t59.5 -86.5t86.5 -55.5t104 -19.5q54 0 104 19.5t87.5 55.5t60 86.5t22.5 112.5q0 61 -22.5 111.5t-60 86.5t-87 56t-104.5 20zM417 504q60 0 98 -32.5t38 -87.5t-38 -87.5t-98 -32.5h-65v-112h-78v352h143zM353 436v-104h64q27 0 41.5 14.5t14.5 37.5t-14.5 37.5
t-41.5 14.5h-64z" />
    <glyph glyph-name="trademark" unicode="&#x2122;" horiz-adv-x="971" 
d="M900 211h-89v248l-115 -150h-30l-114 150v-248h-90v456h30l189 -245l190 245h29v-456zM391 579h-145v-368h-89v368h-145v81h379v-81z" />
    <glyph glyph-name="uni2126" unicode="&#x2126;" horiz-adv-x="790" 
d="M394 671q72 0 135 -25t110 -68.5t74.5 -103t27.5 -129.5q0 -85 -38 -145t-101 -105h129v-95h-276v95q38 18 70.5 42.5t56 54.5t36.5 67t13 81q0 51 -18 94t-49.5 74t-75.5 48.5t-95 17.5t-94 -17t-74.5 -47.5t-49.5 -73.5t-18 -95q0 -87 48.5 -147.5t128.5 -98.5v-95
h-276v95h125q-61 45 -98 106t-37 144q0 70 27 129.5t74 103t110 68.5t135 25z" />
    <glyph glyph-name="estimated" unicode="&#x212e;" horiz-adv-x="795" 
d="M403 670q60 0 119 -20.5t106.5 -58.5t77 -91t29.5 -119q0 -11 -0.5 -20t-1.5 -17q-1 -9 -2 -17h-544v-200q34 -47 89 -75.5t131 -28.5q82 0 147.5 33.5t107.5 84.5l25 -22q-48 -60 -120 -94.5t-160 -34.5q-75 0 -138.5 26t-110 71.5t-72.5 107t-26 131.5q0 73 27.5 135.5
t75 109t109.5 73t131 26.5zM407 636q-72 0 -128.5 -28t-91.5 -76v-172h421v187q-37 43 -87.5 66t-113.5 23z" />
    <glyph glyph-name="uni2150" unicode="&#x2150;" horiz-adv-x="941" 
d="M232 319h88v-75h-275v75h104v266h-97v75h180v-341zM338 0h-88l378 660h89zM923 394l-189 -393h-90l168 341h-177v75h288v-23z" />
    <glyph glyph-name="uni2151" unicode="&#x2151;" horiz-adv-x="948" 
d="M232 319h88v-75h-275v75h104v266h-97v75h180v-341zM338 0h-88l378 660h89zM762 424q30 0 57.5 -11t48 -30.5t32.5 -47t12 -60.5q0 -37 -15 -66t-41 -64l-103 -144h-97l94 134h-4q-25 0 -49.5 10.5t-43.5 29.5t-31 45t-12 57q0 32 12.5 59t33.5 46.5t48.5 30.5t57.5 11z
M762 348q-29 0 -49 -20t-20 -51t20 -51.5t49 -20.5t49 20.5t20 51.5t-20 51t-49 20z" />
    <glyph glyph-name="uni2152" unicode="&#x2152;" horiz-adv-x="1381" 
d="M232 319h88v-75h-275v75h104v266h-97v75h180v-341zM338 0h-88l378 660h89zM1174 424q42 0 72.5 -16t50.5 -44.5t29.5 -67t9.5 -83.5t-9.5 -85t-29.5 -70t-50.5 -47t-72.5 -17q-41 0 -71.5 17t-50.5 47t-30 70t-10 85t10 83.5t30 67t50.5 44.5t71.5 16zM1173 348
q-41 0 -59 -35t-18 -101t18.5 -104.5t58.5 -38.5q42 0 60 38.5t18 104.5t-18 101t-60 35zM837 76h88v-75h-275v75h104v266h-97v75h180v-341z" />
    <glyph glyph-name="uni2153" unicode="&#x2153;" horiz-adv-x="962" 
d="M232 319h88v-75h-275v75h104v266h-97v75h180v-341zM338 0h-88l378 660h89zM916 394l-92 -130q18 -5 36 -15t32.5 -26t23 -37.5t8.5 -48.5q0 -32 -12.5 -58.5t-33.5 -45.5t-49 -29t-59 -10q-54 0 -92 26.5t-58 66.5l57 41q17 -27 38 -42.5t52 -15.5q32 0 52.5 17.5
t20.5 49.5q0 61 -86 61h-45v21l87 123h-145v75h265v-23z" />
    <glyph glyph-name="uni2154" unicode="&#x2154;" horiz-adv-x="977" 
d="M182 667q31 0 57 -10t45 -27.5t30 -42t11 -52.5q0 -23 -7 -44t-19 -40.5t-28.5 -38.5l-35.5 -39l-51 -54h153v-75h-303v18l148 160q29 32 43.5 56t14.5 50q0 27 -16 45t-42 18q-27 0 -43.5 -18t-16.5 -47q0 -7 0.5 -14.5t1.5 -16.5h-82q-2 9 -3 18.5t-1 17.5
q0 25 10 49.5t28.5 44t45 31t60.5 11.5zM353 0h-88l378 660h89zM931 394l-92 -130q18 -5 36 -15t32.5 -26t23 -37.5t8.5 -48.5q0 -32 -12.5 -58.5t-33.5 -45.5t-49 -29t-59 -10q-54 0 -92 26.5t-58 66.5l57 41q17 -27 38 -42.5t52 -15.5q32 0 52.5 17.5t20.5 49.5
q0 61 -86 61h-45v21l87 123h-145v75h265v-23z" />
    <glyph glyph-name="uni2155" unicode="&#x2155;" horiz-adv-x="965" 
d="M232 319h88v-75h-275v75h104v266h-97v75h180v-341zM338 0h-88l378 660h89zM900 342h-159v-78q25 5 45 5q27 0 53 -8t45.5 -24.5t31.5 -41t12 -56.5q0 -33 -12.5 -60t-33.5 -45.5t-49.5 -29t-61.5 -10.5q-54 0 -93 26.5t-59 66.5l57 41q17 -27 39 -42.5t53 -15.5
q32 0 54 17.5t22 48.5q0 62 -87 62h-95v219h238v-75z" />
    <glyph glyph-name="uni2156" unicode="&#x2156;" horiz-adv-x="980" 
d="M182 667q31 0 57 -10t45 -27.5t30 -42t11 -52.5q0 -23 -7 -44t-19 -40.5t-28.5 -38.5l-35.5 -39l-51 -54h153v-75h-303v18l148 160q29 32 43.5 56t14.5 50q0 27 -16 45t-42 18q-27 0 -43.5 -18t-16.5 -47q0 -7 0.5 -14.5t1.5 -16.5h-82q-2 9 -3 18.5t-1 17.5
q0 25 10 49.5t28.5 44t45 31t60.5 11.5zM353 0h-88l378 660h89zM915 342h-159v-78q25 5 45 5q27 0 53 -8t45.5 -24.5t31.5 -41t12 -56.5q0 -33 -12.5 -60t-33.5 -45.5t-49.5 -29t-61.5 -10.5q-54 0 -93 26.5t-59 66.5l57 41q17 -27 39 -42.5t53 -15.5q32 0 54 17.5t22 48.5
q0 62 -87 62h-95v219h238v-75z" />
    <glyph glyph-name="uni2157" unicode="&#x2157;" horiz-adv-x="926" 
d="M311 637l-92 -130q18 -5 36 -15t32.5 -26t23 -37.5t8.5 -48.5q0 -32 -12.5 -58.5t-33.5 -45.5t-49 -29t-59 -10q-54 0 -92 26.5t-58 66.5l57 41q17 -27 38 -42.5t52 -15.5q32 0 52.5 17.5t20.5 49.5q0 61 -86 61h-45v21l87 123h-145v75h265v-23zM299 0h-88l378 660h89z
M861 342h-159v-78q25 5 45 5q27 0 53 -8t45.5 -24.5t31.5 -41t12 -56.5q0 -33 -12.5 -60t-33.5 -45.5t-49.5 -29t-61.5 -10.5q-54 0 -93 26.5t-59 66.5l57 41q17 -27 39 -42.5t53 -15.5q32 0 54 17.5t22 48.5q0 62 -87 62h-95v219h238v-75z" />
    <glyph glyph-name="uni2158" unicode="&#x2158;" horiz-adv-x="979" 
d="M299 381h53v-68h-53v-69h-76v69h-209v22l127 325h85l-110 -279h107v120h76v-120zM352 0h-88l378 660h89zM914 342h-159v-78q25 5 45 5q27 0 53 -8t45.5 -24.5t31.5 -41t12 -56.5q0 -33 -12.5 -60t-33.5 -45.5t-49.5 -29t-61.5 -10.5q-54 0 -93 26.5t-59 66.5l57 41
q17 -27 39 -42.5t53 -15.5q32 0 54 17.5t22 48.5q0 62 -87 62h-95v219h238v-75z" />
    <glyph glyph-name="uni2159" unicode="&#x2159;" horiz-adv-x="898" 
d="M232 319h88v-75h-275v75h104v266h-97v75h180v-341zM338 0h-88l378 660h89zM722 283h5q25 0 49.5 -10.5t44 -29.5t31 -45t11.5 -57q0 -32 -12 -59t-33 -46.5t-48.5 -30.5t-58.5 -11q-30 0 -57 11t-48 30.5t-33 47t-12 60.5q0 37 15 66t41 64l104 144h97zM711 213
q-29 0 -48.5 -20.5t-19.5 -51.5t19.5 -51t48.5 -20t49.5 20t20.5 51t-20.5 51.5t-49.5 20.5z" />
    <glyph glyph-name="uni215A" unicode="&#x215a;" horiz-adv-x="870" 
d="M303 585h-159v-78q25 5 45 5q27 0 53 -8t45.5 -24.5t31.5 -41t12 -56.5q0 -33 -12.5 -60t-33.5 -45.5t-49.5 -29t-61.5 -10.5q-54 0 -93 26.5t-59 66.5l57 41q17 -27 39 -42.5t53 -15.5q32 0 54 17.5t22 48.5q0 62 -87 62h-95v219h238v-75zM310 0h-88l378 660h89z
M694 283h5q25 0 49.5 -10.5t44 -29.5t31 -45t11.5 -57q0 -32 -12 -59t-33 -46.5t-48.5 -30.5t-58.5 -11q-30 0 -57 11t-48 30.5t-33 47t-12 60.5q0 37 15 66t41 64l104 144h97zM683 213q-29 0 -48.5 -20.5t-19.5 -51.5t19.5 -51t48.5 -20t49.5 20t20.5 51t-20.5 51.5
t-49.5 20.5z" />
    <glyph glyph-name="oneeighth" unicode="&#x215b;" horiz-adv-x="945" 
d="M232 319h88v-75h-275v75h104v266h-97v75h180v-341zM338 0h-88l378 660h89zM752 424q58 0 97 -28t39 -82q0 -33 -16.5 -57t-46.5 -41q36 -15 59 -40.5t23 -64.5q0 -27 -11.5 -48.5t-32 -37t-49 -23.5t-62.5 -8q-67 0 -110 31.5t-43 86.5q0 38 22 63.5t59 40.5
q-29 17 -45.5 41t-16.5 58q0 26 10.5 46.5t28.5 34.5t42.5 21t52.5 7zM825 115q0 26 -20.5 41t-52.5 26q-32 -11 -52 -26t-20 -41q0 -23 18 -38.5t54 -15.5t54.5 15.5t18.5 38.5zM752 358q-25 0 -42 -12t-17 -35q0 -22 16 -35t43 -26q26 12 42.5 25.5t16.5 35.5q0 23 -17 35
t-42 12z" />
    <glyph glyph-name="threeeighths" unicode="&#x215c;" horiz-adv-x="906" 
d="M311 637l-92 -130q18 -5 36 -15t32.5 -26t23 -37.5t8.5 -48.5q0 -32 -12.5 -58.5t-33.5 -45.5t-49 -29t-59 -10q-54 0 -92 26.5t-58 66.5l57 41q17 -27 38 -42.5t52 -15.5q32 0 52.5 17.5t20.5 49.5q0 61 -86 61h-45v21l87 123h-145v75h265v-23zM299 0h-88l378 660h89z
M713 424q58 0 97 -28t39 -82q0 -33 -16.5 -57t-46.5 -41q36 -15 59 -40.5t23 -64.5q0 -27 -11.5 -48.5t-32 -37t-49 -23.5t-62.5 -8q-67 0 -110 31.5t-43 86.5q0 38 22 63.5t59 40.5q-29 17 -45.5 41t-16.5 58q0 26 10.5 46.5t28.5 34.5t42.5 21t52.5 7zM786 115
q0 26 -20.5 41t-52.5 26q-32 -11 -52 -26t-20 -41q0 -23 18 -38.5t54 -15.5t54.5 15.5t18.5 38.5zM713 358q-25 0 -42 -12t-17 -35q0 -22 16 -35t43 -26q26 12 42.5 25.5t16.5 35.5q0 23 -17 35t-42 12z" />
    <glyph glyph-name="fiveeighths" unicode="&#x215d;" horiz-adv-x="917" 
d="M303 585h-159v-78q25 5 45 5q27 0 53 -8t45.5 -24.5t31.5 -41t12 -56.5q0 -33 -12.5 -60t-33.5 -45.5t-49.5 -29t-61.5 -10.5q-54 0 -93 26.5t-59 66.5l57 41q17 -27 39 -42.5t53 -15.5q32 0 54 17.5t22 48.5q0 62 -87 62h-95v219h238v-75zM310 0h-88l378 660h89z
M724 424q58 0 97 -28t39 -82q0 -33 -16.5 -57t-46.5 -41q36 -15 59 -40.5t23 -64.5q0 -27 -11.5 -48.5t-32 -37t-49 -23.5t-62.5 -8q-67 0 -110 31.5t-43 86.5q0 38 22 63.5t59 40.5q-29 17 -45.5 41t-16.5 58q0 26 10.5 46.5t28.5 34.5t42.5 21t52.5 7zM797 115
q0 26 -20.5 41t-52.5 26q-32 -11 -52 -26t-20 -41q0 -23 18 -38.5t54 -15.5t54.5 15.5t18.5 38.5zM724 358q-25 0 -42 -12t-17 -35q0 -22 16 -35t43 -26q26 12 42.5 25.5t16.5 35.5q0 23 -17 35t-42 12z" />
    <glyph glyph-name="seveneighths" unicode="&#x215e;" horiz-adv-x="822" 
d="M318 637l-189 -393h-90l168 341h-177v75h288v-23zM215 0h-88l378 660h89zM629 424q58 0 97 -28t39 -82q0 -33 -16.5 -57t-46.5 -41q36 -15 59 -40.5t23 -64.5q0 -27 -11.5 -48.5t-32 -37t-49 -23.5t-62.5 -8q-67 0 -110 31.5t-43 86.5q0 38 22 63.5t59 40.5
q-29 17 -45.5 41t-16.5 58q0 26 10.5 46.5t28.5 34.5t42.5 21t52.5 7zM702 115q0 26 -20.5 41t-52.5 26q-32 -11 -52 -26t-20 -41q0 -23 18 -38.5t54 -15.5t54.5 15.5t18.5 38.5zM629 358q-25 0 -42 -12t-17 -35q0 -22 16 -35t43 -26q26 12 42.5 25.5t16.5 35.5q0 23 -17 35
t-42 12z" />
    <glyph glyph-name="arrowleft" unicode="&#x2190;" horiz-adv-x="650" 
d="M265 273l-70 1l177 -177l-62 -62l-272 272v21l272 272l62 -62l-177 -177l70 2h336v-91z" />
    <glyph glyph-name="arrowup" unicode="&#x2191;" horiz-adv-x="650" 
d="M43 320l271 272h22l271 -272l-63 -62l-173 172l2 -67v-321h-96v321l1 67l-172 -172z" />
    <glyph glyph-name="arrowright" unicode="&#x2192;" horiz-adv-x="650" 
d="M49 363h336l68 -2l-176 177l62 62l272 -272v-21l-272 -272l-62 62l176 177l-68 -1l-336 -1v91z" />
    <glyph glyph-name="arrowdown" unicode="&#x2193;" horiz-adv-x="650" 
d="M43 315l63 63l172 -173l-1 68v320h96v-320l-2 -68l173 173l63 -63l-271 -271h-22z" />
    <glyph glyph-name="arrowboth" unicode="&#x2194;" horiz-adv-x="934" 
d="M738 361l-176 177l62 62l272 -272v-21l-272 -272l-62 62l176 177l-68 -1l-110 -1h-89h-85l-121 1l-70 1l177 -177l-62 -62l-272 272v21l272 272l62 -62l-177 -177l70 2h405z" />
    <glyph glyph-name="arrowupdn" unicode="&#x2195;" horiz-adv-x="636" 
d="M592 464l-62 -62l-166 165l2 -68v-338l-2 -69l166 166l62 -62l-263 -264h-22l-264 264l63 62l165 -166l-1 69v338l1 68l-165 -165l-63 62l264 264h22z" />
    <glyph glyph-name="arrowupleft" unicode="&#x2196;" horiz-adv-x="650" 
d="M111 506l15 15h393v-89h-257l49 -46l257 -258l-65 -65l-257 257l-42 44v-256h-93v398z" />
    <glyph glyph-name="arrowupright" unicode="&#x2197;" horiz-adv-x="650" 
d="M446 365l-43 -45l-256 -257l-66 65l258 258l48 46h-256v89h393l15 -15v-398h-93v257z" />
    <glyph glyph-name="arrowdownright" unicode="&#x2198;" horiz-adv-x="650" 
d="M131 184h256l-48 46l-258 258l66 65l256 -257l43 -45v257h93v-398l-15 -15h-393v89z" />
    <glyph glyph-name="arrowdownleft" unicode="&#x2199;" horiz-adv-x="650" 
d="M111 110v398h93v-256l42 44l257 257l65 -65l-257 -258l-49 -46h257v-89h-393z" />
    <glyph glyph-name="partialdiff" unicode="&#x2202;" horiz-adv-x="596" 
d="M304 672q55 0 100.5 -20t77.5 -59t49.5 -96t17.5 -132q0 -81 -21 -150.5t-59 -119.5t-91.5 -78.5t-117.5 -28.5q-42 0 -81 13t-68.5 38.5t-47 63t-17.5 86.5q0 47 16.5 86.5t48.5 68t78 44.5t105 16q38 0 76 -6t71 -15q-3 102 -40 148t-101 46q-44 0 -75.5 -19.5
t-59.5 -54.5l-68 57q30 50 82.5 81t124.5 31zM267 81q65 0 111 55t59 158q-38 9 -75 14t-63 5q-40 0 -67.5 -10t-45 -26.5t-25 -38.5t-7.5 -45q0 -50 31 -81t82 -31z" />
    <glyph glyph-name="uni2206" unicode="&#x2206;" horiz-adv-x="662" 
d="M640 0h-618l291 671h36zM175 95h310l-154 364z" />
    <glyph glyph-name="product" unicode="&#x220f;" horiz-adv-x="696" 
d="M613 -121h-106v686h-318v-686h-106v781h530v-781z" />
    <glyph glyph-name="summation" unicode="&#x2211;" horiz-adv-x="572" 
d="M520 565h-303l172 -272v-25l-175 -294h318v-95h-481v25l223 375l-223 356v25h469v-95z" />
    <glyph glyph-name="minus" unicode="&#x2212;" 
d="M508 272h-458v91h458v-91z" />
    <glyph glyph-name="uni2219" unicode="&#x2219;" horiz-adv-x="270" 
d="M135 395q32 0 54.5 -22t22.5 -56t-22.5 -55.5t-54.5 -21.5q-33 0 -55.5 21.5t-22.5 55.5t22.5 56t55.5 22z" />
    <glyph glyph-name="radical" unicode="&#x221a;" horiz-adv-x="734" 
d="M216 -133h-36v323h-161v88h253v-136l353 608h104z" />
    </font>
</defs>
</svg>
