<?xml version="1.0" encoding="iso-8859-1"?>
<!-- Generator: Adobe Illustrator 16.0.0, SVG Export Plug-In . SVG Version: 6.00 Build 0)  -->
<!DOCTYPE svg PUBLIC "-//W3C//DTD SVG 1.1//EN" "http://www.w3.org/Graphics/SVG/1.1/DTD/svg11.dtd">
<svg version="1.1" id="Capa_1" xmlns="http://www.w3.org/2000/svg" xmlns:xlink="http://www.w3.org/1999/xlink" x="0px" y="0px"
	 width="44.635px" height="44.635px" viewBox="0 0 44.635 44.635" style="enable-background:new 0 0 44.635 44.635;"
	 xml:space="preserve">
<g>
	<g id="Layer_60_35_">
		<g>
			<path d="M7.519,3.773h18.553v8.154h3.771V0H3.746v39.15h17.058v-6.492H7.519V3.773z M17.344,34.67
				c0.695,0,1.258,0.562,1.258,1.257s-0.563,1.259-1.258,1.259c-0.695,0-1.258-0.563-1.258-1.259
				C16.086,35.232,16.649,34.67,17.344,34.67z"/>
			<path d="M22.633,13.926v30.709H40.89V13.926H22.633z M32.169,15.198c0.242,0,0.439,0.197,0.439,0.44
				c0,0.243-0.197,0.441-0.439,0.441c-0.244,0-0.441-0.198-0.441-0.441C31.728,15.395,31.923,15.198,32.169,15.198z M29.542,16.671
				h5.252v0.423h-5.252V16.671z M31.995,43.309c-0.582,0-1.053-0.472-1.053-1.053s0.471-1.053,1.053-1.053
				c0.58,0,1.053,0.472,1.053,1.053S32.575,43.309,31.995,43.309z M37.962,39.693c-4.742,0.024-10.047,0.045-12.398,0.023V18.604
				L37.962,18.6V39.693z"/>
		</g>
	</g>
</g>
<g>
</g>
<g>
</g>
<g>
</g>
<g>
</g>
<g>
</g>
<g>
</g>
<g>
</g>
<g>
</g>
<g>
</g>
<g>
</g>
<g>
</g>
<g>
</g>
<g>
</g>
<g>
</g>
<g>
</g>
</svg>
