<!-- Generated by IcoMoon.io -->
<svg version="1.1" xmlns="http://www.w3.org/2000/svg" width="32" height="32" viewBox="0 0 32 32">
<title>app</title>
<path d="M5.391 2.705h13.301v5.846h2.704v-8.551h-18.71v28.068h12.229v-4.654h-9.524v-20.708zM12.434 24.856c0.498 0 0.902 0.403 0.902 0.901s-0.404 0.903-0.902 0.903c-0.498 0-0.902-0.404-0.902-0.903s0.404-0.901 0.902-0.901z"></path>
<path d="M16.226 9.984v22.016h13.089v-22.016h-13.089zM23.063 10.896c0.174 0 0.315 0.141 0.315 0.315s-0.141 0.316-0.315 0.316c-0.175 0-0.316-0.142-0.316-0.316s0.14-0.315 0.316-0.315zM21.179 11.952h3.765v0.303h-3.765v-0.303zM22.938 31.049c-0.417 0-0.755-0.338-0.755-0.755s0.338-0.755 0.755-0.755c0.416 0 0.755 0.338 0.755 0.755s-0.339 0.755-0.755 0.755zM27.216 28.457c-3.4 0.017-7.203 0.032-8.888 0.017v-15.136l8.888-0.003v15.122z"></path>
</svg>
