<!-- Generated by IcoMoon.io -->
<svg version="1.1" xmlns="http://www.w3.org/2000/svg" width="32" height="32" viewBox="0 0 32 32">
<title>be</title>
<path d="M28.898 8.862h-8.018v-1.992h8.019v1.992h-0.001zM15.543 17.029c0.517 0.801 0.776 1.774 0.776 2.917 0 1.181-0.291 2.241-0.884 3.177-0.377 0.619-0.846 1.143-1.409 1.564-0.634 0.487-1.384 0.821-2.247 1-0.865 0.179-1.802 0.269-2.811 0.269h-8.967v-19.911h9.616c2.424 0.039 4.142 0.742 5.157 2.121 0.609 0.846 0.911 1.861 0.911 3.040 0 1.217-0.305 2.191-0.92 2.931-0.342 0.415-0.847 0.792-1.516 1.133 1.013 0.371 1.782 0.955 2.295 1.759zM4.592 13.894h4.213c0.866 0 1.566-0.165 2.105-0.494s0.807-0.912 0.807-1.751c0-0.926-0.356-1.541-1.069-1.837-0.613-0.206-1.398-0.311-2.35-0.311h-3.706v4.392zM12.123 19.661c0-1.034-0.423-1.749-1.266-2.133-0.472-0.218-1.138-0.329-1.991-0.337h-4.274v5.306h4.208c0.864 0 1.533-0.113 2.016-0.349 0.871-0.434 1.307-1.26 1.307-2.486zM31.873 16.422c0.097 0.651 0.141 1.597 0.123 2.832h-10.384c0.057 1.433 0.552 2.436 1.491 3.009 0.566 0.36 1.252 0.535 2.056 0.535 0.847 0 1.538-0.214 2.069-0.654 0.29-0.233 0.545-0.563 0.766-0.978h3.806c-0.1 0.847-0.558 1.705-1.382 2.578-1.276 1.387-3.066 2.082-5.364 2.082-1.899 0-3.572-0.586-5.024-1.755-1.448-1.173-2.175-3.075-2.175-5.713 0-2.474 0.653-4.368 1.962-5.686 1.315-1.321 3.011-1.978 5.102-1.978 1.24 0 2.357 0.222 3.354 0.667 0.994 0.446 1.815 1.148 2.462 2.112 0.585 0.849 0.962 1.831 1.137 2.95zM28.127 16.794c-0.070-0.991-0.401-1.741-0.997-2.254-0.591-0.514-1.329-0.772-2.21-0.772-0.959 0-1.699 0.276-2.225 0.818-0.53 0.541-0.859 1.277-0.994 2.208l6.426-0z"></path>
</svg>
