<!-- Generated by IcoMoon.io -->
<svg version="1.1" xmlns="http://www.w3.org/2000/svg" width="32" height="32" viewBox="0 0 32 32">
<title>close</title>
<path d="M20.953 16l10.851-10.852c0.261-0.261 0.261-0.683 0-0.943l-4.009-4.010c-0.125-0.125-0.295-0.195-0.472-0.195s-0.347 0.070-0.472 0.195l-10.852 10.852-10.852-10.852c-0.25-0.25-0.693-0.25-0.943 0l-4.009 4.010c-0.261 0.261-0.261 0.683 0 0.943l10.852 10.852-10.852 10.852c-0.261 0.261-0.261 0.683 0 0.943l4.009 4.010c0.125 0.125 0.295 0.195 0.472 0.195s0.347-0.070 0.472-0.195l10.852-10.852 10.852 10.852c0.125 0.125 0.295 0.195 0.472 0.195s0.347-0.070 0.472-0.195l4.009-4.010c0.26-0.261 0.26-0.683 0-0.943l-10.852-10.852z"></path>
</svg>
