<!-- Generated by IcoMoon.io -->
<svg version="1.1" xmlns="http://www.w3.org/2000/svg" width="32" height="32" viewBox="0 0 32 32">
<title>location</title>
<path d="M16 7.2c-3.333 0-6.133 2.8-6.133 6.133s2.8 6.133 6.133 6.133c3.333 0 6.133-2.8 6.133-6.133s-2.8-6.133-6.133-6.133zM16 17.867c-2.533 0-4.533-2-4.533-4.533s2-4.533 4.533-4.533c2.533 0 4.533 2 4.533 4.533s-2 4.533-4.533 4.533z"></path>
<path d="M16 0.533c-7.067 0-12.8 5.733-12.8 12.8 0 2.267 0.533 4.4 1.733 6.4 1.2 1.467 2.533 3.2 2.8 3.333l8.267 8.267 8.267-8.267c0.267-0.267 1.6-1.867 2.8-3.333 1.2-1.867 1.733-4.133 1.733-6.4 0-7.067-5.733-12.8-12.8-12.8zM26.133 17.6c-0.133 0.267-0.267 0.4-0.4 0.667v0 0c-0.533 0.667-2.133 2.667-2.4 2.933l-6.933 7.067-0.4 0.533-0.4-0.4-6.933-7.067c-0.267-0.267-1.867-2.267-2.4-2.933v0 0c-0.133-0.267-0.267-0.533-0.4-0.667-0.667-1.2-1.2-2-1.2-3.867 0-6.4 5.067-11.6 11.2-11.6s11.2 5.2 11.2 11.6c0.133 1.733-0.267 2.533-0.933 3.733z"></path>
</svg>
