<!-- Generated by IcoMoon.io -->
<svg version="1.1" xmlns="http://www.w3.org/2000/svg" width="32" height="32" viewBox="0 0 32 32">
<title>sound-off</title>
<path d="M4.067 11.412c0.577 0 1.044-0.468 1.044-1.044s-0.467-1.044-1.044-1.044c-2.243 0-4.067 1.572-4.067 3.506v8.897c0 1.933 1.825 3.506 4.067 3.506 0.577 0 1.044-0.468 1.044-1.044s-0.467-1.044-1.044-1.044c-1.072 0-1.979-0.649-1.979-1.418v-8.897c0-0.768 0.907-1.418 1.979-1.418z"></path>
<path d="M16.702 31.928c0.175 0 0.35-0.044 0.509-0.133 0.33-0.184 0.535-0.533 0.535-0.912v-27.662c0-0.381-0.209-0.732-0.543-0.915s-0.741-0.17-1.064 0.036l-10.168 6.504c-0.3 0.191-0.481 0.523-0.481 0.879v14.893c0 0.363 0.188 0.699 0.497 0.888l10.166 6.267c0.169 0.104 0.36 0.155 0.549 0.155zM15.658 29.015l-8.079-4.98v-13.738l8.079-5.168v23.886z"></path>
</svg>
