<svg id="Layer_1" data-name="Layer 1" xmlns="http://www.w3.org/2000/svg" viewBox="0 0 344 459.41"><title>tap-icon</title><path d="M30,135.5a105.5,105.5,0,1,1,206.89,29.18L265.72,173A135.32,135.32,0,0,0,271,135.5C271,60.79,210.21,0,135.5,0S0,60.79,0,135.5a135.24,135.24,0,0,0,34.23,89.93L56.65,205.5A105.28,105.28,0,0,1,30,135.5Z" transform="translate(0 0)"/><path d="M220.34,145.93A85.49,85.49,0,1,0,50,135.5a84.59,84.59,0,0,0,18.19,52.65l23.61-18.5A54.86,54.86,0,0,1,80,135.5a55.5,55.5,0,1,1,110.57,6.79Z" transform="translate(0 0)"/><path d="M318.5,226a25.5,25.5,0,0,0-25.5,25.5H283V224a25.5,25.5,0,1,0-51,0v27.47H222V198.88a25.5,25.5,0,0,0-51,0v52.57H161v-116a25.5,25.5,0,0,0-51,0V324.3H100V262.73a25.5,25.5,0,0,0-51,0v93.85A103,103,0,0,0,151.83,459.41h89.34A103,103,0,0,0,344,356.58V251.45A25.5,25.5,0,0,0,318.5,226Z" transform="translate(0 0)"/></svg>