<!-- Generated by IcoMoon.io -->
<svg version="1.1" xmlns="http://www.w3.org/2000/svg" width="32" height="32" viewBox="0 0 32 32">
<title>volume</title>
<path d="M4.073 11.384c0.578 0 1.046-0.468 1.046-1.046s-0.468-1.046-1.046-1.046c-2.245 0-4.073 1.575-4.073 3.511v8.909c0 1.936 1.827 3.511 4.073 3.511 0.578 0 1.046-0.468 1.046-1.046s-0.468-1.046-1.046-1.046c-1.074 0-1.982-0.65-1.982-1.419v-8.909c0-0.77 0.908-1.419 1.982-1.419z"></path>
<path d="M17.227 2.267c-0.334-0.183-0.742-0.17-1.066 0.037l-10.181 6.512c-0.3 0.192-0.481 0.524-0.481 0.88v14.913c0 0.363 0.187 0.7 0.497 0.89l10.181 6.276c0.169 0.104 0.358 0.156 0.548 0.156 0.176 0 0.351-0.044 0.511-0.133 0.331-0.185 0.535-0.534 0.535-0.913v-27.701c0-0.381-0.209-0.734-0.543-0.917zM15.679 29.011l-8.089-4.986v-13.757l8.089-5.176v23.919z"></path>
<path d="M26.064 8.316c-0.23-0.529-0.846-0.769-1.373-0.542-0.53 0.229-0.773 0.845-0.545 1.374 0.032 0.072 3.089 7.348-0.022 15.825-0.198 0.541 0.079 1.143 0.622 1.341 0.119 0.044 0.24 0.064 0.36 0.064 0.427 0 0.826-0.262 0.982-0.686 3.407-9.291 0.119-17.052-0.023-17.378z"></path>
<path d="M21.596 12.389c-0.559 0.139-0.901 0.706-0.761 1.266 0.008 0.031 0.761 3.156-0.008 6.791-0.121 0.565 0.241 1.119 0.806 1.239 0.073 0.015 0.145 0.023 0.216 0.023 0.483 0 0.919-0.337 1.023-0.829 0.872-4.127 0.026-7.586-0.011-7.731-0.139-0.56-0.706-0.897-1.266-0.759z"></path>
</svg>
