<svg xmlns="http://www.w3.org/2000/svg" width="32" height="32" viewBox="0 0 32 32"><title>app</title><path d="M5.391 2.705h13.301v5.846h2.704V0H2.686v28.068h12.229v-4.654H5.391V2.706zm7.043 22.151a.901.901 0 1 1 .001 1.803.901.901 0 0 1-.001-1.803z"/><path d="M16.226 9.984V32h13.089V9.984H16.226zm6.837.912a.315.315 0 1 1 0 .63.315.315 0 0 1 0-.63zm-1.884 1.056h3.765v.303h-3.765v-.303zm1.759 19.097a.755.755 0 1 1 0-1.51.755.755 0 0 1 0 1.51zm4.278-2.592c-3.4.017-7.203.032-8.888.017V13.338l8.888-.003v15.122z"/></svg>