<svg xmlns="http://www.w3.org/2000/svg" width="32" height="32" viewBox="0 0 32 32"><title>be</title><path d="M28.898 8.862H20.88V6.87h8.019v1.992h-.001zm-13.355 8.167c.517.801.776 1.774.776 2.917 0 1.181-.291 2.241-.884 3.177a5.507 5.507 0 0 1-1.409 1.564c-.634.487-1.384.821-2.247 1-.865.179-1.802.269-2.811.269H.001V6.045h9.616c2.424.039 4.142.742 5.157 2.121.609.846.911 1.861.911 3.04 0 1.217-.305 2.191-.92 2.931-.342.415-.847.792-1.516 1.133 1.013.371 1.782.955 2.295 1.759zM4.592 13.894h4.213c.866 0 1.566-.165 2.105-.494s.807-.912.807-1.751c0-.926-.356-1.541-1.069-1.837-.613-.206-1.398-.311-2.35-.311H4.592v4.392zm7.531 5.767c0-1.034-.423-1.749-1.266-2.133-.472-.218-1.138-.329-1.991-.337H4.592v5.306H8.8c.864 0 1.533-.113 2.016-.349.871-.434 1.307-1.26 1.307-2.486zm19.75-3.239c.097.651.141 1.597.123 2.832H21.612c.057 1.433.552 2.436 1.491 3.009.566.36 1.252.535 2.056.535.847 0 1.538-.214 2.069-.654.29-.233.545-.563.766-.978H31.8c-.1.847-.558 1.705-1.382 2.578-1.276 1.387-3.066 2.082-5.364 2.082-1.899 0-3.572-.586-5.024-1.755-1.448-1.173-2.175-3.075-2.175-5.713 0-2.474.653-4.368 1.962-5.686 1.315-1.321 3.011-1.978 5.102-1.978 1.24 0 2.357.222 3.354.667.994.446 1.815 1.148 2.462 2.112.585.849.962 1.831 1.137 2.95zm-3.746.372c-.07-.991-.401-1.741-.997-2.254-.591-.514-1.329-.772-2.21-.772-.959 0-1.699.276-2.225.818-.53.541-.859 1.277-.994 2.208h6.426z"/></svg>