<svg xmlns="http://www.w3.org/2000/svg" width="32" height="32" viewBox="0 0 32 32"><title>location</title><path d="M16 7.2c-3.333 0-6.133 2.8-6.133 6.133s2.8 6.133 6.133 6.133 6.133-2.8 6.133-6.133S19.333 7.2 16 7.2zm0 10.667c-2.533 0-4.533-2-4.533-4.533s2-4.533 4.533-4.533c2.533 0 4.533 2 4.533 4.533s-2 4.533-4.533 4.533z"/><path d="M16 .533c-7.067 0-12.8 5.733-12.8 12.8 0 2.267.533 4.4 1.733 6.4 1.2 1.467 2.533 3.2 2.8 3.333L16 31.333l8.267-8.267c.267-.267 1.6-1.867 2.8-3.333 1.2-1.867 1.733-4.133 1.733-6.4 0-7.067-5.733-12.8-12.8-12.8zM26.133 17.6c-.133.267-.267.4-.4.667-.533.667-2.133 2.667-2.4 2.933L16.4 28.267l-.4.533-.4-.4-6.933-7.067c-.267-.267-1.867-2.267-2.4-2.933-.133-.267-.267-.533-.4-.667-.667-1.2-1.2-2-1.2-3.867 0-6.4 5.067-11.6 11.2-11.6s11.2 5.2 11.2 11.6c.133 1.733-.267 2.533-.933 3.733z"/></svg>