<svg xmlns="http://www.w3.org/2000/svg" width="32" height="32" viewBox="0 0 32 32"><title>skype</title><path d="M22.133 32a9.45 9.45 0 0 1-4.863-1.342c-.463.042-.928.063-1.392.063-8.13 0-14.745-6.683-14.745-14.904 0-.633.042-1.276.121-1.914a9.789 9.789 0 0 1-.964-4.23C.29 4.34 4.584 0 9.864 0a9.52 9.52 0 0 1 4.271 1.018c.576-.069 1.16-.102 1.743-.102 8.133 0 14.746 6.685 14.746 14.903 0 .61-.038 1.225-.112 1.831a9.739 9.739 0 0 1 1.196 4.675C31.706 27.66 27.412 32 22.133 32zm-4.502-2.915l.227.144a7.927 7.927 0 0 0 4.275 1.246c4.442 0 8.05-3.654 8.05-8.15a8.212 8.212 0 0 0-1.117-4.137l-.131-.225.035-.26c.088-.623.133-1.254.133-1.881 0-7.377-5.933-13.38-13.225-13.38-.595 0-1.195.043-1.781.122l-.245.029-.218-.117a7.997 7.997 0 0 0-3.77-.952c-4.44 0-8.049 3.654-8.049 8.15 0 1.303.312 2.6.904 3.754l.111.216-.036.239a13.762 13.762 0 0 0-.139 1.938c0 7.377 5.932 13.381 13.222 13.381.493 0 .993-.029 1.485-.083l.267-.031z"/><path d="M15.551 26.312c-2.516 0-4.584-.583-6.146-1.737-1.487-1.071-2.277-2.446-2.277-3.973 0-.852.303-1.6.877-2.169a3.02 3.02 0 0 1 2.343-.848c-2.754-1.434-3.22-3.834-3.22-5.291 0-2.217.958-4.016 2.768-5.201 1.448-.934 3.245-1.408 5.35-1.408 1.828 0 3.54.442 5.083 1.315 1.892 1.069 2.85 2.438 2.85 4.068 0 .898-.373 1.69-1.046 2.229a3.237 3.237 0 0 1-1.687.698c2.917 1.446 3.41 3.989 3.41 5.545 0 2.042-.752 3.698-2.244 4.921-1.454 1.227-3.496 1.852-6.061 1.852zm-5.408-7.21c-.438 0-.787.135-1.069.415-.283.281-.422.638-.422 1.083 0 1.046.54 1.942 1.651 2.746 1.299.958 3.064 1.444 5.248 1.444 2.197 0 3.912-.504 5.091-1.5 1.142-.94 1.692-2.165 1.692-3.75 0-2.514-1.45-4.124-4.308-4.783l-3.206-.729c-1.817-.41-2.7-1.046-2.7-1.944 0-.629.257-1.146.766-1.534.499-.383 1.207-.578 2.103-.578 1.046 0 1.911.231 2.571.683.069.047.288.196 1.231 1.218.383.421.785.625 1.223.625.46 0 .842-.128 1.162-.389.317-.253.477-.603.477-1.041 0-1.041-.694-1.962-2.073-2.742-1.315-.74-2.772-1.116-4.335-1.116-1.805 0-3.326.391-4.521 1.163-1.395.913-2.073 2.198-2.073 3.922 0 2.327 1.356 3.856 4.029 4.548l4.323 1.107c1.144.3 1.721.929 1.721 1.873 0 .627-.281 1.171-.84 1.619-.59.49-1.359.729-2.345.729-1.123 0-2.046-.285-2.748-.846-.073-.058-.267-.212-1.276-1.462-.411-.512-.859-.76-1.372-.76zm1.897-.856c.234.183.456.402.664.658.834 1.029 1.038 1.225 1.06 1.246.412.329.996.496 1.777.496.619 0 1.071-.127 1.386-.388.275-.221.275-.35.275-.435 0-.11 0-.246-.58-.398l-4.318-1.106a8.421 8.421 0 0 1-.265-.073zm1.61-6.269c.143.117.574.354 1.506.563l2.785.635a4.618 4.618 0 0 1-.271-.271c-.77-.833-.976-.994-.985-1-.388-.269-.964-.407-1.698-.407-.537 0-.955.094-1.177.265-.105.078-.146.136-.161.216z"/></svg>