<svg xmlns="http://www.w3.org/2000/svg" width="32" height="32" viewBox="0 0 32 32"><title>sound-off</title><path d="M4.067 11.412a1.044 1.044 0 0 0 0-2.088C1.824 9.324 0 10.896 0 12.83v8.897c0 1.933 1.825 3.506 4.067 3.506a1.044 1.044 0 0 0 0-2.088c-1.072 0-1.979-.649-1.979-1.418V12.83c0-.768.907-1.418 1.979-1.418zm12.635 20.516a1.044 1.044 0 0 0 1.044-1.045V3.221a1.045 1.045 0 0 0-1.607-.879L5.971 8.846c-.3.191-.481.523-.481.879v14.893c0 .363.188.699.497.888l10.166 6.267c.169.104.36.155.549.155zm-1.044-2.913l-8.079-4.98V10.297l8.079-5.168v23.886z"/></svg>