<svg data-name="Layer 1" xmlns="http://www.w3.org/2000/svg" viewBox="0 0 344 459.41"><title>tap-icon</title><path d="M30 135.5a105.5 105.5 0 1 1 206.89 29.18l28.83 8.32a135.32 135.32 0 0 0 5.28-37.5C271 60.79 210.21 0 135.5 0S0 60.79 0 135.5a135.24 135.24 0 0 0 34.23 89.93l22.42-19.93a105.28 105.28 0 0 1-26.65-70z"/><path d="M220.34 145.93A85.49 85.49 0 1 0 50 135.5a84.59 84.59 0 0 0 18.19 52.65l23.61-18.5A54.86 54.86 0 0 1 80 135.5a55.5 55.5 0 1 1 110.57 6.79z"/><path d="M318.5 226a25.5 25.5 0 0 0-25.5 25.5h-10V224a25.5 25.5 0 1 0-51 0v27.47h-10v-52.59a25.5 25.5 0 0 0-51 0v52.57h-10v-116a25.5 25.5 0 0 0-51 0V324.3h-10v-61.57a25.5 25.5 0 0 0-51 0v93.85a103 103 0 0 0 102.83 102.83h89.34A103 103 0 0 0 344 356.58V251.45A25.5 25.5 0 0 0 318.5 226z"/></svg>