<svg xmlns="http://www.w3.org/2000/svg" width="32" height="32" viewBox="0 0 32 32"><title>volume</title><path d="M4.073 11.384a1.046 1.046 0 1 0 0-2.092C1.828 9.292 0 10.867 0 12.803v8.909c0 1.936 1.827 3.511 4.073 3.511a1.046 1.046 0 1 0 0-2.092c-1.074 0-1.982-.65-1.982-1.419v-8.909c0-.77.908-1.419 1.982-1.419zm13.154-9.117a1.045 1.045 0 0 0-1.066.037L5.98 8.816c-.3.192-.481.524-.481.88v14.913c0 .363.187.7.497.89l10.181 6.276a1.043 1.043 0 0 0 1.059.023c.331-.185.535-.534.535-.913V3.184c0-.381-.209-.734-.543-.917zm-1.548 26.744L7.59 24.025V10.268l8.089-5.176v23.919zM26.064 8.316a1.046 1.046 0 0 0-1.918.832c.032.072 3.089 7.348-.022 15.825a1.045 1.045 0 1 0 1.964.719c3.407-9.291.119-17.052-.023-17.378zm-4.468 4.073a1.044 1.044 0 0 0-.761 1.266c.008.031.761 3.156-.008 6.791a1.044 1.044 0 1 0 2.045.433c.872-4.127.026-7.586-.011-7.731a1.044 1.044 0 0 0-1.266-.759z"/></svg>