<?xml version="1.0" encoding="UTF-8"?><!DOCTYPE svg PUBLIC "-//W3C//DTD SVG 1.1//EN" "http://www.w3.org/Graphics/SVG/1.1/DTD/svg11.dtd"><svg xmlns="http://www.w3.org/2000/svg"><symbol id="app" viewBox="0 0 32 32"><title>app</title><path d="M5.391 2.705h13.301v5.846h2.704V0H2.686v28.068h12.229v-4.654H5.391V2.706zm7.043 22.151a.901.901 0 1 1 .001 1.803.901.901 0 0 1-.001-1.803z"/><path d="M16.226 9.984V32h13.089V9.984H16.226zm6.837.912a.315.315 0 1 1 0 .63.315.315 0 0 1 0-.63zm-1.884 1.056h3.765v.303h-3.765v-.303zm1.759 19.097a.755.755 0 1 1 0-1.51.755.755 0 0 1 0 1.51zm4.278-2.592c-3.4.017-7.203.032-8.888.017V13.338l8.888-.003v15.122z"/></symbol><symbol id="arrow-back" viewBox="0 0 25.8 14.6"><path d="M13.4 14.1c0 .3-.2.5-.5.5s-.5-.2-.5-.5"/><path d="M12.9 14.6c-.1 0-.3-.1-.4-.1L0 2c-.2-.2 1.7-2.2 1.9-2l11 11.2L23.9 0c.2-.2 2.1 1.8 1.9 2L13.3 14.5c-.1.1-.3.1-.4.1z"/></symbol><symbol id="arrow" viewBox="0 0 832 1024"><title/><path d="M431.238 710.473c0 9.527-6.351 15.88-15.88 15.88s-15.88-6.351-15.88-15.88z"/><path d="M415.359 726.351c-3.174 0-9.527-3.174-12.702-3.174L5.708 326.228c-6.351-6.351-6.351-15.88 0-22.23s15.88-6.351 22.23 0l387.421 387.421L802.78 303.998c6.351-6.351 15.88-6.351 22.23 0s6.351 15.88 0 22.23L428.061 723.177c-3.174 3.174-9.527 3.174-12.702 3.174z"/></symbol><symbol id="be" viewBox="0 0 32 32"><title>be</title><path d="M28.898 8.862H20.88V6.87h8.019v1.992h-.001zm-13.355 8.167c.517.801.776 1.774.776 2.917 0 1.181-.291 2.241-.884 3.177a5.507 5.507 0 0 1-1.409 1.564c-.634.487-1.384.821-2.247 1-.865.179-1.802.269-2.811.269H.001V6.045h9.616c2.424.039 4.142.742 5.157 2.121.609.846.911 1.861.911 3.04 0 1.217-.305 2.191-.92 2.931-.342.415-.847.792-1.516 1.133 1.013.371 1.782.955 2.295 1.759zM4.592 13.894h4.213c.866 0 1.566-.165 2.105-.494s.807-.912.807-1.751c0-.926-.356-1.541-1.069-1.837-.613-.206-1.398-.311-2.35-.311H4.592v4.392zm7.531 5.767c0-1.034-.423-1.749-1.266-2.133-.472-.218-1.138-.329-1.991-.337H4.592v5.306H8.8c.864 0 1.533-.113 2.016-.349.871-.434 1.307-1.26 1.307-2.486zm19.75-3.239c.097.651.141 1.597.123 2.832H21.612c.057 1.433.552 2.436 1.491 3.009.566.36 1.252.535 2.056.535.847 0 1.538-.214 2.069-.654.29-.233.545-.563.766-.978H31.8c-.1.847-.558 1.705-1.382 2.578-1.276 1.387-3.066 2.082-5.364 2.082-1.899 0-3.572-.586-5.024-1.755-1.448-1.173-2.175-3.075-2.175-5.713 0-2.474.653-4.368 1.962-5.686 1.315-1.321 3.011-1.978 5.102-1.978 1.24 0 2.357.222 3.354.667.994.446 1.815 1.148 2.462 2.112.585.849.962 1.831 1.137 2.95zm-3.746.372c-.07-.991-.401-1.741-.997-2.254-.591-.514-1.329-.772-2.21-.772-.959 0-1.699.276-2.225.818-.53.541-.859 1.277-.994 2.208h6.426z"/></symbol><symbol id="close-bold" viewBox="0 0 32 32"><title>close-bold</title><path d="M20.953 16L31.804 5.148a.666.666 0 0 0 0-.943L27.795.195a.668.668 0 0 0-.944 0L15.999 11.047 5.147.195a.687.687 0 0 0-.943 0L.195 4.205a.666.666 0 0 0 0 .943L11.047 16 .195 26.852a.666.666 0 0 0 0 .943l4.009 4.01a.668.668 0 0 0 .944 0L16 20.953l10.852 10.852a.668.668 0 0 0 .944 0l4.009-4.01a.668.668 0 0 0 0-.943L20.953 16z"/></symbol><symbol id="close" viewBox="0 0 32 32"><title>close</title><path d="M18.855 16L31.791 3.064a.715.715 0 0 0 0-1.009L29.946.209a.715.715 0 0 0-1.01 0L16 13.145 3.064.209a.735.735 0 0 0-1.01 0L.209 2.055a.713.713 0 0 0 0 1.009L13.145 16 .209 28.936a.713.713 0 0 0 0 1.009l1.845 1.846a.715.715 0 0 0 1.01 0L16 18.855l12.936 12.936a.715.715 0 0 0 1.01 0l1.845-1.846a.715.715 0 0 0 0-1.009L18.854 16z"/></symbol><symbol id="email" viewBox="0 0 32 32"><title>email</title><path d="M32 4.202H0v23.597h32V4.202zm-1.913 21.683H1.913V6.115h28.174v19.77zM10.746 15.604l-5.241-4.25L6.71 9.868 16 17.402l9.29-7.534 1.205 1.486-5.241 4.25 4.96 4.022-1.205 1.486-5.273-4.276-3.735 3.029-3.735-3.029-5.274 4.276-1.205-1.486 4.96-4.022z"/></symbol><symbol id="fb" viewBox="0 0 32 32"><title>fb</title><path d="M18.518 32h-5.996V16h-4v-5.514l4-.002-.007-3.248c0-4.498 1.22-7.236 6.519-7.236h4.412v5.515h-2.757c-2.064 0-2.163.771-2.163 2.209l-.008 2.76h4.959l-.585 5.514-4.37.002-.004 16z"/></symbol><symbol id="location-pin" viewBox="0 0 32 32"><title>location-pin</title><path d="M15.999 0C8.598 0 2.6 5.999 2.6 13.4S15.999 32 15.999 32 29.4 20.801 29.4 13.4C29.4 6 23.4 0 15.999 0zm0 17.904a5.911 5.911 0 1 1 0-11.822 5.911 5.911 0 0 1 0 11.822z"/></symbol><symbol id="location" viewBox="0 0 32 32"><title>location</title><path d="M16 7.2c-3.333 0-6.133 2.8-6.133 6.133s2.8 6.133 6.133 6.133 6.133-2.8 6.133-6.133S19.333 7.2 16 7.2zm0 10.667c-2.533 0-4.533-2-4.533-4.533s2-4.533 4.533-4.533c2.533 0 4.533 2 4.533 4.533s-2 4.533-4.533 4.533z"/><path d="M16 .533c-7.067 0-12.8 5.733-12.8 12.8 0 2.267.533 4.4 1.733 6.4 1.2 1.467 2.533 3.2 2.8 3.333L16 31.333l8.267-8.267c.267-.267 1.6-1.867 2.8-3.333 1.2-1.867 1.733-4.133 1.733-6.4 0-7.067-5.733-12.8-12.8-12.8zM26.133 17.6c-.133.267-.267.4-.4.667-.533.667-2.133 2.667-2.4 2.933L16.4 28.267l-.4.533-.4-.4-6.933-7.067c-.267-.267-1.867-2.267-2.4-2.933-.133-.267-.267-.533-.4-.667-.667-1.2-1.2-2-1.2-3.867 0-6.4 5.067-11.6 11.2-11.6s11.2 5.2 11.2 11.6c.133 1.733-.267 2.533-.933 3.733z"/></symbol><symbol id="phone" viewBox="0 0 32 32"><title>phone</title><path d="M23 32c1.1 0 2-.9 2-2V2c0-1.1-.9-2-2-2H9C7.9 0 7 .9 7 2v28c0 1.1.9 2 2 2h14zM9 30v-3h14v3H9zM23 3.362V25H9V3.362h14z"/><path d="M17.167 28.498a1.167 1.167 0 1 1-2.334 0 1.167 1.167 0 0 1 2.334 0z"/></symbol><symbol id="skype" viewBox="0 0 32 32"><title>skype</title><path d="M22.133 32a9.45 9.45 0 0 1-4.863-1.342c-.463.042-.928.063-1.392.063-8.13 0-14.745-6.683-14.745-14.904 0-.633.042-1.276.121-1.914a9.789 9.789 0 0 1-.964-4.23C.29 4.34 4.584 0 9.864 0a9.52 9.52 0 0 1 4.271 1.018c.576-.069 1.16-.102 1.743-.102 8.133 0 14.746 6.685 14.746 14.903 0 .61-.038 1.225-.112 1.831a9.739 9.739 0 0 1 1.196 4.675C31.706 27.66 27.412 32 22.133 32zm-4.502-2.915l.227.144a7.927 7.927 0 0 0 4.275 1.246c4.442 0 8.05-3.654 8.05-8.15a8.212 8.212 0 0 0-1.117-4.137l-.131-.225.035-.26c.088-.623.133-1.254.133-1.881 0-7.377-5.933-13.38-13.225-13.38-.595 0-1.195.043-1.781.122l-.245.029-.218-.117a7.997 7.997 0 0 0-3.77-.952c-4.44 0-8.049 3.654-8.049 8.15 0 1.303.312 2.6.904 3.754l.111.216-.036.239a13.762 13.762 0 0 0-.139 1.938c0 7.377 5.932 13.381 13.222 13.381.493 0 .993-.029 1.485-.083l.267-.031z"/><path d="M15.551 26.312c-2.516 0-4.584-.583-6.146-1.737-1.487-1.071-2.277-2.446-2.277-3.973 0-.852.303-1.6.877-2.169a3.02 3.02 0 0 1 2.343-.848c-2.754-1.434-3.22-3.834-3.22-5.291 0-2.217.958-4.016 2.768-5.201 1.448-.934 3.245-1.408 5.35-1.408 1.828 0 3.54.442 5.083 1.315 1.892 1.069 2.85 2.438 2.85 4.068 0 .898-.373 1.69-1.046 2.229a3.237 3.237 0 0 1-1.687.698c2.917 1.446 3.41 3.989 3.41 5.545 0 2.042-.752 3.698-2.244 4.921-1.454 1.227-3.496 1.852-6.061 1.852zm-5.408-7.21c-.438 0-.787.135-1.069.415-.283.281-.422.638-.422 1.083 0 1.046.54 1.942 1.651 2.746 1.299.958 3.064 1.444 5.248 1.444 2.197 0 3.912-.504 5.091-1.5 1.142-.94 1.692-2.165 1.692-3.75 0-2.514-1.45-4.124-4.308-4.783l-3.206-.729c-1.817-.41-2.7-1.046-2.7-1.944 0-.629.257-1.146.766-1.534.499-.383 1.207-.578 2.103-.578 1.046 0 1.911.231 2.571.683.069.047.288.196 1.231 1.218.383.421.785.625 1.223.625.46 0 .842-.128 1.162-.389.317-.253.477-.603.477-1.041 0-1.041-.694-1.962-2.073-2.742-1.315-.74-2.772-1.116-4.335-1.116-1.805 0-3.326.391-4.521 1.163-1.395.913-2.073 2.198-2.073 3.922 0 2.327 1.356 3.856 4.029 4.548l4.323 1.107c1.144.3 1.721.929 1.721 1.873 0 .627-.281 1.171-.84 1.619-.59.49-1.359.729-2.345.729-1.123 0-2.046-.285-2.748-.846-.073-.058-.267-.212-1.276-1.462-.411-.512-.859-.76-1.372-.76zm1.897-.856c.234.183.456.402.664.658.834 1.029 1.038 1.225 1.06 1.246.412.329.996.496 1.777.496.619 0 1.071-.127 1.386-.388.275-.221.275-.35.275-.435 0-.11 0-.246-.58-.398l-4.318-1.106a8.421 8.421 0 0 1-.265-.073zm1.61-6.269c.143.117.574.354 1.506.563l2.785.635a4.618 4.618 0 0 1-.271-.271c-.77-.833-.976-.994-.985-1-.388-.269-.964-.407-1.698-.407-.537 0-.955.094-1.177.265-.105.078-.146.136-.161.216z"/></symbol><symbol id="sound-off" viewBox="0 0 32 32"><title>sound-off</title><path d="M4.067 11.412a1.044 1.044 0 0 0 0-2.088C1.824 9.324 0 10.896 0 12.83v8.897c0 1.933 1.825 3.506 4.067 3.506a1.044 1.044 0 0 0 0-2.088c-1.072 0-1.979-.649-1.979-1.418V12.83c0-.768.907-1.418 1.979-1.418zM16.702 31.928a1.044 1.044 0 0 0 1.044-1.045V3.221a1.045 1.045 0 0 0-1.607-.879L5.971 8.846c-.3.191-.481.523-.481.879v14.893c0 .363.188.699.497.888l10.166 6.267c.169.104.36.155.549.155zm-1.044-2.913l-8.079-4.98V10.297l8.079-5.168v23.886z"/></symbol><symbol id="touch" viewBox="0 0 344 459.41"><title>tap-icon</title><path d="M30 135.5a105.5 105.5 0 1 1 206.89 29.18l28.83 8.32a135.32 135.32 0 0 0 5.28-37.5C271 60.79 210.21 0 135.5 0S0 60.79 0 135.5a135.24 135.24 0 0 0 34.23 89.93l22.42-19.93a105.28 105.28 0 0 1-26.65-70z"/><path d="M220.34 145.93A85.49 85.49 0 1 0 50 135.5a84.59 84.59 0 0 0 18.19 52.65l23.61-18.5A54.86 54.86 0 0 1 80 135.5a55.5 55.5 0 1 1 110.57 6.79z"/><path d="M318.5 226a25.5 25.5 0 0 0-25.5 25.5h-10V224a25.5 25.5 0 1 0-51 0v27.47h-10v-52.59a25.5 25.5 0 0 0-51 0v52.57h-10v-116a25.5 25.5 0 0 0-51 0V324.3h-10v-61.57a25.5 25.5 0 0 0-51 0v93.85a103 103 0 0 0 102.83 102.83h89.34A103 103 0 0 0 344 356.58V251.45A25.5 25.5 0 0 0 318.5 226z"/></symbol><symbol id="volume" viewBox="0 0 32 32"><title>volume</title><path d="M4.073 11.384a1.046 1.046 0 1 0 0-2.092C1.828 9.292 0 10.867 0 12.803v8.909c0 1.936 1.827 3.511 4.073 3.511a1.046 1.046 0 1 0 0-2.092c-1.074 0-1.982-.65-1.982-1.419v-8.909c0-.77.908-1.419 1.982-1.419zM17.227 2.267a1.045 1.045 0 0 0-1.066.037L5.98 8.816c-.3.192-.481.524-.481.88v14.913c0 .363.187.7.497.89l10.181 6.276a1.043 1.043 0 0 0 1.059.023c.331-.185.535-.534.535-.913V3.184c0-.381-.209-.734-.543-.917zm-1.548 26.744L7.59 24.025V10.268l8.089-5.176v23.919zM26.064 8.316a1.046 1.046 0 0 0-1.918.832c.032.072 3.089 7.348-.022 15.825a1.045 1.045 0 1 0 1.964.719c3.407-9.291.119-17.052-.023-17.378zM21.596 12.389a1.044 1.044 0 0 0-.761 1.266c.008.031.761 3.156-.008 6.791a1.044 1.044 0 1 0 2.045.433c.872-4.127.026-7.586-.011-7.731a1.044 1.044 0 0 0-1.266-.759z"/></symbol><symbol id="ig" viewBox="0 0 32 32"><title>ig</title><path d="M20.667 4h-9.333a7.333 7.333 0 0 0-7.333 7.333v9.333a7.333 7.333 0 0 0 7.333 7.333h9.333A7.333 7.333 0 0 0 28 20.666v-9.333A7.333 7.333 0 0 0 20.667 4zM26 20.667A5.339 5.339 0 0 1 20.667 26h-9.334A5.339 5.339 0 0 1 6 20.667v-9.334A5.339 5.339 0 0 1 11.333 6h9.334A5.339 5.339 0 0 1 26 11.333z"/><path d="M16 10a6 6 0 1 0 6 6 6 6 0 0 0-6-6zm0 10a4 4 0 1 1 4-4 4.005 4.005 0 0 1-4 4zM23.6 9.733a1.333 1.333 0 1 1-2.667 0 1.333 1.333 0 0 1 2.667 0z"/></symbol></svg>
