<?xml version="1.0" encoding="UTF-8"?><!DOCTYPE svg PUBLIC "-//W3C//DTD SVG 1.1//EN" "http://www.w3.org/Graphics/SVG/1.1/DTD/svg11.dtd"><svg xmlns="http://www.w3.org/2000/svg"><symbol id="be" viewBox="0 0 32 32"><title>be</title><path d="M28.898 8.862H20.88V6.87h8.019v1.992h-.001zm-13.355 8.167c.517.801.776 1.774.776 2.917 0 1.181-.291 2.241-.884 3.177a5.507 5.507 0 0 1-1.409 1.564c-.634.487-1.384.821-2.247 1-.865.179-1.802.269-2.811.269H.001V6.045h9.616c2.424.039 4.142.742 5.157 2.121.609.846.911 1.861.911 3.04 0 1.217-.305 2.191-.92 2.931-.342.415-.847.792-1.516 1.133 1.013.371 1.782.955 2.295 1.759zM4.592 13.894h4.213c.866 0 1.566-.165 2.105-.494s.807-.912.807-1.751c0-.926-.356-1.541-1.069-1.837-.613-.206-1.398-.311-2.35-.311H4.592v4.392zm7.531 5.767c0-1.034-.423-1.749-1.266-2.133-.472-.218-1.138-.329-1.991-.337H4.592v5.306H8.8c.864 0 1.533-.113 2.016-.349.871-.434 1.307-1.26 1.307-2.486zm19.75-3.239c.097.651.141 1.597.123 2.832H21.612c.057 1.433.552 2.436 1.491 3.009.566.36 1.252.535 2.056.535.847 0 1.538-.214 2.069-.654.29-.233.545-.563.766-.978H31.8c-.1.847-.558 1.705-1.382 2.578-1.276 1.387-3.066 2.082-5.364 2.082-1.899 0-3.572-.586-5.024-1.755-1.448-1.173-2.175-3.075-2.175-5.713 0-2.474.653-4.368 1.962-5.686 1.315-1.321 3.011-1.978 5.102-1.978 1.24 0 2.357.222 3.354.667.994.446 1.815 1.148 2.462 2.112.585.849.962 1.831 1.137 2.95zm-3.746.372c-.07-.991-.401-1.741-.997-2.254-.591-.514-1.329-.772-2.21-.772-.959 0-1.699.276-2.225.818-.53.541-.859 1.277-.994 2.208h6.426z"/></symbol><symbol id="close" viewBox="0 0 32 32"><title>close</title><path d="M20.953 16L31.804 5.148a.666.666 0 0 0 0-.943L27.795.195a.668.668 0 0 0-.944 0L15.999 11.047 5.147.195a.687.687 0 0 0-.943 0L.195 4.205a.666.666 0 0 0 0 .943L11.047 16 .195 26.852a.666.666 0 0 0 0 .943l4.009 4.01a.668.668 0 0 0 .944 0L16 20.953l10.852 10.852a.668.668 0 0 0 .944 0l4.009-4.01a.668.668 0 0 0 0-.943L20.953 16z"/></symbol><symbol id="fb" viewBox="0 0 32 32"><title>fb</title><path d="M18.518 32h-5.996V16h-4v-5.514l4-.002-.007-3.248c0-4.498 1.22-7.236 6.519-7.236h4.412v5.515h-2.757c-2.064 0-2.163.771-2.163 2.209l-.008 2.76h4.959l-.585 5.514-4.37.002-.004 16z"/></symbol><symbol id="sound-off" viewBox="0 0 32 32"><title>sound-off</title><path d="M4.067 11.412a1.044 1.044 0 0 0 0-2.088C1.824 9.324 0 10.896 0 12.83v8.897c0 1.933 1.825 3.506 4.067 3.506a1.044 1.044 0 0 0 0-2.088c-1.072 0-1.979-.649-1.979-1.418V12.83c0-.768.907-1.418 1.979-1.418zM16.702 31.928a1.044 1.044 0 0 0 1.044-1.045V3.221a1.045 1.045 0 0 0-1.607-.879L5.971 8.846c-.3.191-.481.523-.481.879v14.893c0 .363.188.699.497.888l10.166 6.267c.169.104.36.155.549.155zm-1.044-2.913l-8.079-4.98V10.297l8.079-5.168v23.886z"/></symbol><symbol id="volume" viewBox="0 0 32 32"><title>volume</title><path d="M4.073 11.384a1.046 1.046 0 1 0 0-2.092C1.828 9.292 0 10.867 0 12.803v8.909c0 1.936 1.827 3.511 4.073 3.511a1.046 1.046 0 1 0 0-2.092c-1.074 0-1.982-.65-1.982-1.419v-8.909c0-.77.908-1.419 1.982-1.419zM17.227 2.267a1.045 1.045 0 0 0-1.066.037L5.98 8.816c-.3.192-.481.524-.481.88v14.913c0 .363.187.7.497.89l10.181 6.276a1.043 1.043 0 0 0 1.059.023c.331-.185.535-.534.535-.913V3.184c0-.381-.209-.734-.543-.917zm-1.548 26.744L7.59 24.025V10.268l8.089-5.176v23.919zM26.064 8.316a1.046 1.046 0 0 0-1.918.832c.032.072 3.089 7.348-.022 15.825a1.045 1.045 0 1 0 1.964.719c3.407-9.291.119-17.052-.023-17.378zM21.596 12.389a1.044 1.044 0 0 0-.761 1.266c.008.031.761 3.156-.008 6.791a1.044 1.044 0 1 0 2.045.433c.872-4.127.026-7.586-.011-7.731a1.044 1.044 0 0 0-1.266-.759z"/></symbol></svg>